<?xml version="1.0" standalone="no"?>
<!DOCTYPE svg PUBLIC "-//W3C//DTD SVG 1.1//EN" "http://www.w3.org/Graphics/SVG/1.1/DTD/svg11.dtd" >
<svg>
<metadata>
Created by FontForge 20090914 at Fri Dec  4 11:08:06 2020
 By www-data
&#194;&#169; 2018 Microsoft Corporation. All Rights Reserved.
</metadata>
<defs>
<font id="SegoeUIBlack" horiz-adv-x="0" >
  <font-face 
    font-family="Segoe UI Black"
    font-weight="900"
    font-stretch="normal"
    units-per-em="2048"
    panose-1="2 11 10 2 4 2 4 2 2 3"
    ascent="1638"
    descent="-410"
    x-height="1024"
    cap-height="1434"
    bbox="-936 -514 3027 2210"
    underline-thickness="119"
    underline-position="-119"
    unicode-range="U+000D-U+FFFD"
  />
<missing-glyph horiz-adv-x="1322" 
d="M166 0v1398h990v-1398h-990zM314 148h694v1102h-694v-1102z" />
    <glyph glyph-name=".notdef" horiz-adv-x="1322" 
d="M166 0v1398h990v-1398h-990zM314 148h694v1102h-694v-1102z" />
    <glyph glyph-name="uni000D" unicode="&#xd;" 
 />
    <glyph glyph-name="space" unicode=" " horiz-adv-x="569" 
 />
    <glyph glyph-name="exclam" unicode="!" horiz-adv-x="750" 
d="M543 483h-342l-54 951h449zM612 178c0 -59.333 -21.501 -108 -64.501 -146s-100.5 -57 -172.5 -57c-70 0 -127.167 19.333 -171.5 58s-66.5 87 -66.5 145c0 58.667 21.5 106.167 64.5 142.5s100.833 54.5 173.5 54.5c70.667 0 127.834 -18.167 171.501 -54.5
s65.5 -83.833 65.5 -142.5z" />
    <glyph glyph-name="quotedbl" unicode="&#x22;" horiz-adv-x="1188" 
d="M965 1024h-258l-52 444h359zM481 1024h-262l-45 444h356z" />
    <glyph glyph-name="numbersign" unicode="#" horiz-adv-x="1227" 
d="M1126 864h-122l-52 -221h142l-58 -235h-135l-67 -302h-248l63 302h-219l-65 -302h-252l63 302h-127l49 235h129l52 221h-144l47 236h146l67 317h256l-67 -317h215l67 317h256l-67 -317h123zM530 864l-51 -221h219l52 221h-220z" />
    <glyph glyph-name="dollar" unicode="$" horiz-adv-x="1227" 
d="M1100 442c0 -62.667 -13.666 -121.167 -40.999 -175.5s-67.5 -101.666 -120.5 -141.999s-117.5 -70.166 -193.5 -89.499v-230h-237v203c-74.667 1.33301 -150.167 10.5 -226.5 27.5s-125.833 35.167 -148.5 54.5v375c138 -101.333 272 -152 402 -152
c35.333 0 63.166 8.66699 83.499 26s30.5 41 30.5 71c0 25.333 -6.33301 45.5 -19 60.5s-33.5 30.5 -62.5 46.5s-72.167 35.333 -129.5 58c-215.333 85.333 -323 222.666 -323 411.999c0 110 34.833 202.333 104.5 277s165.834 123 288.501 145v199h237v-189
c118 -6.66699 213 -21.667 285 -45v-364c-51.333 32 -108.833 57.667 -172.5 77s-126.167 29 -187.5 29c-36.667 0 -66.334 -8.5 -89.001 -25.5s-34 -38.5 -34 -64.5c0 -32 13.5 -59.167 40.5 -81.5s70.833 -45.833 131.5 -70.5c132 -54 228.5 -115.833 289.5 -185.5
s91.5 -151.834 91.5 -246.501z" />
    <glyph glyph-name="percent" unicode="%" horiz-adv-x="1839" 
d="M1737 367c0 -116.667 -34.332 -210.335 -102.999 -281.002s-161.334 -106 -278.001 -106c-108 0 -194.5 33 -259.5 99s-97.5 153 -97.5 261c0 118.667 34.667 212.834 104 282.501s161.666 104.5 276.999 104.5c110.667 0 197.834 -31.667 261.501 -95
s95.5 -151.666 95.5 -264.999zM1475 353.999c0 47.333 -8.99902 84.499 -26.999 111.499s-42.667 40.5 -74 40.5c-34.667 0 -61.334 -14.167 -80.001 -42.5s-28 -66.833 -28 -115.5c0 -46 8.5 -82 25.5 -108s42.5 -39 76.5 -39c34.667 0 61.167 13.333 79.5 40
s27.5 64.334 27.5 113.001zM618.002 -0.00195312h-315l922 1434h315zM838.002 1092c0 -118.667 -34.501 -212.833 -103.501 -282.5s-160.833 -104.5 -275.5 -104.5c-108 0 -194.5 33 -259.5 99s-97.5 153 -97.5 261c0 117.333 33.833 211.5 101.5 282.5
s160.167 106.5 277.5 106.5c110.667 0 197.834 -32.333 261.501 -97s95.5 -153 95.5 -265zM575.001 1081c0 46 -8.49902 82.5 -25.499 109.5s-41.167 40.5 -72.5 40.5c-34.667 0 -61.334 -14.167 -80.001 -42.5s-28 -66.833 -28 -115.5c0 -46 8.5 -82 25.5 -108
s42.5 -39 76.5 -39c33.333 0 59 13.333 77 40s27 65 27 115z" />
    <glyph glyph-name="ampersand" unicode="&#x26;" horiz-adv-x="1513" 
d="M1081 -2l-84.001 97.999c-44.667 -34.667 -107.167 -63.5 -187.5 -86.5s-157.5 -34.5 -231.5 -34.5c-163.333 0 -290.333 35.5 -381 106.5s-136 170.167 -136 297.5c0 75.333 27.333 147.333 82 216s138 131 250 187c-95.333 105.333 -143 210.666 -143 315.999
c0 106.667 41.833 193.334 125.5 260.001s192.5 100 326.5 100c127.333 0 229.833 -29.833 307.5 -89.5s116.5 -139.167 116.5 -238.5c0 -79.333 -23 -147.666 -69 -204.999s-119 -109 -219 -155l204 -231c30 60 45 141 45 243h326c0 -96.667 -13.667 -183.5 -41 -260.5
s-71.666 -147.167 -132.999 -210.5l287 -313h-445zM796.999 1108c0 28.667 -10.499 53.1689 -31.499 73.502s-45.5 30.5 -73.5 30.5c-33.333 0 -60 -9 -80 -27s-30 -43 -30 -75c0 -20.667 6.16699 -41.834 18.5 -63.501s40.833 -57.834 85.5 -108.501
c41.333 25.333 70.166 51.5 86.499 78.5s24.5 57.5 24.5 91.5zM543 608.001c-28 -13.333 -51.501 -36.5 -70.501 -69.5s-28.5 -69.833 -28.5 -110.5c0 -56.667 18.833 -102.167 56.5 -136.5s83.834 -51.5 138.501 -51.5c34 0 66.833 5.5 98.5 16.5s58.167 25.167 79.5 42.5z
" />
    <glyph glyph-name="quotesingle" unicode="'" horiz-adv-x="705" 
d="M481 1026h-262l-45 442h356z" />
    <glyph glyph-name="parenleft" unicode="(" horiz-adv-x="862" 
d="M512 -326c-114.667 124 -199.334 257.334 -254.001 400.001s-82 301 -82 475c0 324.667 111.333 619.667 334 885h336c-100 -140 -174.167 -282.833 -222.5 -428.5s-72.5 -297.834 -72.5 -456.501c0 -164.667 24.333 -317.5 73 -458.5s123.334 -279.833 224.001 -416.5
h-336z" />
    <glyph glyph-name="parenright" unicode=")" horiz-adv-x="862" 
d="M686 549c0 -175.333 -27.499 -334.332 -82.499 -476.999s-139.5 -275.334 -253.5 -398.001h-336c199.333 267.333 299 559 299 875c0 155.333 -23.833 305.833 -71.5 451.5s-122.834 290.167 -225.501 433.5h336c222.667 -264 334 -559 334 -885z" />
    <glyph glyph-name="asterisk" unicode="*" horiz-adv-x="991" 
d="M649 989l207 -194l-231 -158l-129 250l-129 -248l-232 156l207 194l-281 27l91 256l251 -119l-59 281h303l-59 -281l252 119l90 -256z" />
    <glyph glyph-name="plus" unicode="+" horiz-adv-x="1464" 
d="M856 455v-373h-248v373h-370v247h370v371h248v-371h373v-247h-373z" />
    <glyph glyph-name="comma" unicode="," horiz-adv-x="655" 
d="M387 -238h-344l102 510h385z" />
    <glyph glyph-name="hyphen" unicode="-" horiz-adv-x="834" 
d="M143 393v287h547v-287h-547z" />
    <glyph glyph-name="period" unicode="." horiz-adv-x="655" 
d="M565 178c0 -60.667 -21.333 -109.667 -64 -147s-101.667 -56 -177 -56c-68.667 0 -124.834 19.5 -168.501 58.5s-65.5 87.167 -65.5 144.5c0 58.667 21.5 106.167 64.5 142.5s100.833 54.5 173.5 54.5c70.667 0 127.834 -18.167 171.501 -54.5s65.5 -83.833 65.5 -142.5z
" />
    <glyph glyph-name="slash" unicode="/" horiz-adv-x="987" 
d="M307 -238h-375l709 1672h375z" />
    <glyph glyph-name="zero" unicode="0" horiz-adv-x="1227" 
d="M1163 729c0 -246 -46.833 -433.167 -140.5 -561.5s-230.5 -192.5 -410.5 -192.5c-184 0 -321.5 59 -412.5 177s-136.5 300.667 -136.5 548c0 248 49.167 436.333 147.5 565s240.5 193 426.5 193c350.667 0 526 -243 526 -729zM743 729c0 142.667 -10 248 -30 316
s-52.333 102 -97 102c-87.333 0 -131 -146 -131 -438c0 -143.333 10.167 -249.5 30.5 -318.5s52.5 -103.5 96.5 -103.5c87.333 0 131 147.333 131 442z" />
    <glyph glyph-name="one" unicode="1" horiz-adv-x="990" 
d="M395 0v1032c-46.667 -27.333 -95 -48.166 -145 -62.499s-106.667 -24.833 -170 -31.5v320c90 15.333 173.833 39.5 251.5 72.5s157.167 78.167 238.5 135.5h251v-1466h-426z" />
    <glyph glyph-name="two" unicode="2" horiz-adv-x="1227" 
d="M90 0v114.999c0 81.333 10 152 30 212s51.5 116.333 94.5 169s117.833 120.334 224.5 203.001c76 60 126.5 103.167 151.5 129.5s43.667 51.833 56 76.5s18.5 51.334 18.5 80.001c0 95.333 -57.333 143 -172 143c-116.667 0 -227 -42.333 -331 -127v349
c79.333 40 153.5 68 222.5 84s139.833 24 212.5 24c156 0 276.667 -37.333 362 -112s128 -179.334 128 -314.001c0 -103.333 -22.333 -191 -67 -263s-127.667 -147 -249 -225c-92.667 -60 -154.167 -103.833 -184.5 -131.5s-45.833 -51.167 -46.5 -70.5h560v-342h-1010z" />
    <glyph glyph-name="three" unicode="3" horiz-adv-x="1227" 
d="M1080 410c0 -138 -50 -244.998 -150 -320.998s-243 -114 -429 -114c-69.333 0 -138 5.83301 -206 17.5s-126.333 27.167 -175 46.5v334c44.667 -26.667 95.667 -47.667 153 -63s115.333 -23 174 -23c68 0 120.167 12.167 156.5 36.5s54.5 59.166 54.5 104.499
c0 46 -22.333 82 -67 108s-107 39 -187 39h-138v314h122c80.667 0 140.167 12.5 178.5 37.5s57.5 57.5 57.5 97.5c0 38 -14.5 68 -43.5 90s-73.5 33 -133.5 33c-92.667 0 -185.334 -26.667 -278.001 -80v319c116 48 238 72 366 72c158.667 0 283 -32.333 373 -97
s135 -154.334 135 -269.001c0 -89.333 -24.167 -164.333 -72.5 -225s-116.166 -100.334 -203.499 -119.001v-5c96.667 -13.333 173 -50.166 229 -110.499s84 -134.5 84 -222.5z" />
    <glyph glyph-name="four" unicode="4" horiz-adv-x="1271" 
d="M1028 1434l-0.000976562 -904h203v-284h-204v-246h-375v246h-607v295c106.667 122.667 212.834 265 318.501 427s191.5 317.333 257.5 466h407zM650.999 530l-0.000976562 420c-61.333 -135.333 -145.666 -275.333 -252.999 -420h253z" />
    <glyph glyph-name="five" unicode="5" horiz-adv-x="1227" 
d="M1090 485c0 -98 -23.168 -185.833 -69.501 -263.5s-113.166 -138.167 -200.499 -181.5s-190.333 -65 -309 -65c-66 0 -134.833 5.66699 -206.5 17s-130.5 25.666 -176.5 42.999v332c100 -53.333 205.667 -80 317 -80c73.333 0 128.833 13.333 166.5 40
s56.5 64.334 56.5 113.001c0 105.333 -87.333 158 -262 158c-87.333 0 -168.333 -8.33301 -243 -25l54 861h810v-332h-480l-14 -201c38.667 4 75 6 109 6c140 0 249.667 -37.833 329 -113.5s119 -178.5 119 -308.5z" />
    <glyph glyph-name="six" unicode="6" horiz-adv-x="1227" 
d="M1167 496c0 -96 -22.168 -183.833 -66.501 -263.5s-107 -142.167 -188 -187.5s-170.833 -68 -269.5 -68c-175.333 0 -310.333 58.333 -405 175s-142 281.667 -142 495c0 161.333 28.667 304.5 86 429.5s137.833 219.833 241.5 284.5s226.834 97 369.501 97
c109.333 0 197.333 -12.333 264 -37v-334c-66 40 -144 60 -234 60c-91.333 0 -165.5 -29.833 -222.5 -89.5s-88.5 -138.5 -94.5 -236.5h6c67.333 82 163.666 123 288.999 123c112.667 0 201.834 -41.333 267.501 -124s98.5 -190.667 98.5 -324zM761.999 477
c0 52.667 -10.1689 94.1689 -30.502 124.502s-51.166 45.5 -92.499 45.5c-39.333 0 -69.666 -15.833 -90.999 -47.5s-32 -74.5 -32 -128.5c0 -50.667 11.5 -92.334 34.5 -125.001s52.5 -49 88.5 -49c38 0 68 16.167 90 48.5s33 76.166 33 131.499z" />
    <glyph glyph-name="seven" unicode="7" horiz-adv-x="1227" 
d="M273 0c20 131.333 48.334 253.668 85.001 367.001s80.5 222.666 131.5 327.999s128.5 241 232.5 407h-624v332h1049v-252c-95.333 -170 -167.5 -312 -216.5 -426s-91.333 -232.5 -127 -355.5s-64.834 -256.5 -87.501 -400.5h-443z" />
    <glyph glyph-name="eight" unicode="8" horiz-adv-x="1227" 
d="M67 390c0 88 22.3311 162 66.998 222s110.334 109 197.001 147c-72.667 36.667 -127.334 83.667 -164.001 141s-55 120.333 -55 189c0 68 21.833 130.5 65.5 187.5s104.334 101.5 182.001 133.5s163.5 48 257.5 48c98 0 186 -15.833 264 -47.5
s138.333 -75.834 181 -132.501s64 -120 64 -190c0 -67.333 -19.667 -130.333 -59 -189s-96.666 -106 -171.999 -142c93.333 -40.667 160.666 -91.167 201.999 -151.5s62 -131.166 62 -212.499c0 -80 -23.167 -152 -69.5 -216s-111.333 -113.333 -195 -148
s-177.5 -52 -281.5 -52c-161.333 0 -292.666 38.667 -393.999 116s-152 176.333 -152 297zM453.998 425c0 -51.333 14.667 -91.666 44 -120.999s68 -44 116 -44c48.667 0 87.667 15.667 117 47s44 70.666 44 117.999c0 48 -15.333 87.833 -46 119.5s-69 47.5 -115 47.5
c-45.333 0 -83.333 -15.5 -114 -46.5s-46 -71.167 -46 -120.5zM489.998 1040c0 -39.333 12.5 -74 37.5 -104s55.833 -45 92.5 -45c37.333 0 68.5 15 93.5 45s37.5 64.667 37.5 104c0 42.667 -12.667 78.334 -38 107.001s-56.333 43 -93 43
c-37.333 0 -68.333 -14.333 -93 -43s-37 -64.334 -37 -107.001z" />
    <glyph glyph-name="nine" unicode="9" horiz-adv-x="1227" 
d="M1141 776c0 -250.667 -58.3301 -446.83 -174.997 -588.497s-277.667 -212.5 -483 -212.5c-126 0 -235.667 18.667 -329 56v329c28 -20 69.167 -37.167 123.5 -51.5s103.166 -21.5 146.499 -21.5c100 0 176.5 27.667 229.5 83s80.167 136.666 81.5 243.999h-6
c-62.667 -80 -154 -120 -274 -120c-71.333 0 -136.833 18.5 -196.5 55.5s-106.334 88.667 -140.001 155s-50.5 142.166 -50.5 227.499c0 105.333 22.167 198 66.5 278s107 141.333 188 184s174.167 64 279.5 64c109.333 0 205.666 -28.333 288.999 -85
s145.833 -135.334 187.5 -236.001s62.5 -221 62.5 -361zM719.003 963.004c0 48.667 -10.999 90.167 -32.999 124.5s-51.333 51.5 -88 51.5c-36 0 -65.833 -14.5 -89.5 -43.5s-35.5 -73.833 -35.5 -134.5c0 -56.667 11.667 -99.667 35 -129s52.666 -44 87.999 -44
c40 0 70.5 16.167 91.5 48.5s31.5 74.5 31.5 126.5z" />
    <glyph glyph-name="colon" unicode=":" horiz-adv-x="655" 
d="M565 827c0 -60.667 -21.501 -109.5 -64.501 -146.5s-101.833 -55.5 -176.5 -55.5c-68 0 -124 19.333 -168 58s-66 86.667 -66 144c0 58.667 21.5 106.167 64.5 142.5s100.833 54.5 173.5 54.5c70.667 0 127.834 -18.167 171.501 -54.5s65.5 -83.833 65.5 -142.5z
M564.999 178c0 -60.667 -21.333 -109.667 -64 -147s-101.667 -56 -177 -56c-68.667 0 -124.834 19.5 -168.501 58.5s-65.5 87.167 -65.5 144.5c0 58.667 21.5 106.167 64.5 142.5s100.833 54.5 173.5 54.5c70.667 0 127.834 -18.167 171.501 -54.5s65.5 -83.833 65.5 -142.5
z" />
    <glyph glyph-name="semicolon" unicode=";" horiz-adv-x="655" 
d="M575 827c0 -60.667 -21.501 -109.5 -64.501 -146.5s-101.833 -55.5 -176.5 -55.5c-68 0 -124 19.333 -168 58s-66 86.667 -66 144c0 58.667 21.5 106.167 64.5 142.5s100.833 54.5 173.5 54.5c70.667 0 127.834 -18.167 171.501 -54.5s65.5 -83.833 65.5 -142.5z
M386.999 -238h-344l102 510h385z" />
    <glyph glyph-name="less" unicode="&#x3c;" horiz-adv-x="1464" 
d="M238 436v240l991 407v-292l-703 -236v-4l703 -236v-292z" />
    <glyph glyph-name="equal" unicode="=" horiz-adv-x="1464" 
d="M238 666v247h991v-247h-991zM238 236v247h991v-247h-991z" />
    <glyph glyph-name="greater" unicode="&#x3e;" horiz-adv-x="1464" 
d="M238 43v295l700 233v4l-700 234v295l991 -408v-239z" />
    <glyph glyph-name="question" unicode="?" horiz-adv-x="866" 
d="M907 1100c0 -148 -71.668 -278.334 -215.001 -391.001c-48.667 -38.667 -83 -72.667 -103 -102s-30 -65.666 -30 -108.999v-35h-336v88c0 122 40.333 217.667 121 287c52.667 44.667 86.5 75.334 101.5 92.001s25.667 32.667 32 48s9.5 33.333 9.5 54
c0 25.333 -11.167 46.666 -33.5 63.999s-51.166 26 -86.499 26c-107.333 0 -220 -43 -338 -129v393c43.333 24.667 101.833 46 175.5 64s139.834 27 198.501 27c163.333 0 288.166 -32.167 374.499 -96.5s129.5 -157.833 129.5 -280.5zM640.999 177.999
c0 -59.333 -21.5 -108 -64.5 -146s-100.833 -57 -173.5 -57c-70 0 -127 19.5 -171 58.5s-66 87.167 -66 144.5c0 58.667 21.5 106.167 64.5 142.5s100.5 54.5 172.5 54.5c71.333 0 128.833 -18.167 172.5 -54.5s65.5 -83.833 65.5 -142.5z" />
    <glyph glyph-name="at" unicode="@" horiz-adv-x="1944" 
d="M1843 766c0 -115.333 -22.168 -217.332 -66.501 -305.999s-106.666 -157.5 -186.999 -206.5s-169.833 -73.5 -268.5 -73.5c-58.667 0 -110.667 14.333 -156 43s-73.333 64.334 -84 107.001h-6c-23.333 -44.667 -55 -80.834 -95 -108.501s-84 -41.5 -132 -41.5
c-94 0 -169 34.167 -225 102.5s-84 161.166 -84 278.499c0 96.667 15.667 183 47 259s78 137.167 140 183.5s126 69.5 192 69.5c90.667 0 150.667 -36 180 -108h4l8 86h301c-6.66699 -61.333 -15.834 -163.5 -27.501 -306.5s-17.5 -229.5 -17.5 -259.5v-20
c0 -16.667 4.33301 -30.667 13 -42s21.334 -17 38.001 -17c40 0 72.833 30.167 98.5 90.5s38.5 148.833 38.5 265.5c0 91.333 -19.333 172.5 -58 243.5s-95 126.333 -169 166s-162.667 59.5 -266 59.5c-122 0 -233.5 -29 -334.5 -87s-181.167 -138.833 -240.5 -242.5
s-89 -214.5 -89 -332.5c0 -172.667 51.667 -305.5 155 -398.5s250.333 -139.5 441 -139.5c65.333 0 134.5 8.5 207.5 25.5s137.833 39.167 194.5 66.5v-236c-118 -50 -267 -75 -447 -75c-169.333 0 -319.5 32.5 -450.5 97.5s-230 154.833 -297 269.5
s-100.5 249.667 -100.5 405c0 156 40.333 302.167 121 438.5s191.167 242 331.5 317s298.833 112.5 475.5 112.5c165.333 0 309.333 -27.5 432 -82.5s217.167 -134.5 283.5 -238.5s99.5 -225.667 99.5 -365zM1092 715.001c0 43.333 -9.83301 77.334 -29.5 102.001
s-45.5 37 -77.5 37c-42 0 -77.333 -28.333 -106 -85s-43 -123.334 -43 -200.001c0 -52.667 8.5 -94.167 25.5 -124.5s41.167 -45.5 72.5 -45.5c47.333 0 85.5 29.5 114.5 88.5s43.5 134.833 43.5 227.5z" />
    <glyph glyph-name="A" unicode="A" horiz-adv-x="1536" 
d="M1040 0l-63 264h-428l-68 -264h-467l494 1434h536l465 -1434h-469zM768 1122h-10c-1.33301 -16 -6 -42.333 -14 -79s-48.333 -194 -121 -472h274l-100 390c-14 57.333 -23.667 111 -29 161z" />
    <glyph glyph-name="B" unicode="B" horiz-adv-x="1415" 
d="M1366 440c0 -140.667 -49.333 -249.169 -148 -325.502s-239.667 -114.5 -423 -114.5h-654v1434h609c380.667 0 571 -115.667 571 -347c0 -50 -12 -95.833 -36 -137.5s-60.5 -78.167 -109.5 -109.5s-102.833 -52.666 -161.5 -63.999v-4c68 -8 129 -28.167 183 -60.5
s95.667 -72.666 125 -120.999s44 -98.5 44 -150.5zM862 1012c0 88.667 -69.667 132.999 -209 132.999h-80v-271h125c48 0 87.333 12.833 118 38.5s46 58.834 46 99.501zM907 441.997c0 41.333 -15 75.333 -45 102s-69.667 40 -119 40h-170v-293h144
c58.667 0 105 13.5 139 40.5s51 63.833 51 110.5z" />
    <glyph glyph-name="C" unicode="C" horiz-adv-x="1290" 
d="M1208 39c-118.667 -42.667 -255.665 -64.002 -410.998 -64.002c-152.667 0 -284.334 29.167 -395.001 87.5s-195.167 141.333 -253.5 249s-87.5 231.834 -87.5 372.501c0 151.333 32.667 286 98 404s157.666 209.167 276.999 273.5s256.666 96.5 411.999 96.5
c124 0 244 -15 360 -45v-399c-40 24 -87.667 42.667 -143 56s-111.333 20 -168 20c-117.333 0 -209.833 -33.667 -277.5 -101s-101.5 -158.666 -101.5 -273.999c0 -114.667 33.833 -205.167 101.5 -271.5s158.167 -99.5 271.5 -99.5c104.667 0 210.334 26.667 317.001 80
v-385z" />
    <glyph glyph-name="D" unicode="D" horiz-adv-x="1554" 
d="M1493 735c0 -145.333 -30.5 -273.832 -91.5 -385.499s-148.167 -197.834 -261.5 -258.501s-244 -91 -392 -91h-607v1434h594c505.333 0 758 -233 758 -699zM1034 731.001c0 70 -14.167 133 -42.5 189s-68.833 99.333 -121.5 130s-114.667 46 -186 46h-111v-758h121
c103.333 0 185.833 35.5 247.5 106.5s92.5 166.5 92.5 286.5z" />
    <glyph glyph-name="E" unicode="E" horiz-adv-x="1130" 
d="M141 0v1434h893v-338h-461v-209h433v-338h-433v-211h494v-338h-926z" />
    <glyph glyph-name="F" unicode="F" horiz-adv-x="1108" 
d="M573 1096v-258h426v-338h-426v-500h-432v1434h899v-338h-467z" />
    <glyph glyph-name="G" unicode="G" horiz-adv-x="1489" 
d="M1397 94c-54 -30.667 -134.667 -58.1689 -242 -82.502s-209.666 -36.5 -306.999 -36.5c-251.333 0 -445.333 62.833 -582 188.5s-205 301.834 -205 528.501c0 152 34.5 287 103.5 405s166.167 207.667 291.5 269s273 92 443 92c124.667 0 257.667 -17.667 399 -53v-377
c-66 30 -129.333 50.833 -190 62.5s-127 17.5 -199 17.5c-118.667 0 -213.167 -35.667 -283.5 -107s-105.5 -169.333 -105.5 -294c0 -119.333 29.5 -212.666 88.5 -279.999s141.5 -101 247.5 -101c49.333 0 85.666 2.66699 108.999 8v205h-275v327h707v-772z" />
    <glyph glyph-name="H" unicode="H" horiz-adv-x="1643" 
d="M1069 0v535h-496v-535h-432v1434h432v-531h496v531h432v-1434h-432z" />
    <glyph glyph-name="I" unicode="I" horiz-adv-x="714" 
d="M141 0v1434h432v-1434h-432z" />
    <glyph glyph-name="J" unicode="J" horiz-adv-x="1047" 
d="M922 612c0 -424.667 -206.332 -637.001 -618.999 -637.001c-33.333 0 -73.333 4 -120 12s-94 20 -142 36v399c34 -23.333 71.833 -42.166 113.5 -56.499s76.167 -21.5 103.5 -21.5c77.333 0 135.166 23.833 173.499 71.5s57.5 121.5 57.5 221.5v797h433v-822z" />
    <glyph glyph-name="K" unicode="K" horiz-adv-x="1413" 
d="M934 0l-318 606c-21.333 48 -34 81 -38 99h-5v-705h-432v1434h432v-682h5c12.667 36 27 69.333 43 100l286 582h512l-407 -684l446 -750h-524z" />
    <glyph glyph-name="L" unicode="L" horiz-adv-x="1108" 
d="M141 0v1434h432v-1096h494v-338h-926z" />
    <glyph glyph-name="M" unicode="M" horiz-adv-x="2021" 
d="M1454 0l-0.00195312 786c0 74 2.33301 155.333 7 244l3 66h-12c-21.333 -112.667 -37.666 -190.667 -48.999 -234l-211 -862h-406l-221 852c-6 21.333 -21.667 102.666 -47 243.999h-12c9.33301 -224 14 -364 14 -420v-676h-379v1434h647l197 -779
c4.66699 -16 10.834 -48.5 18.501 -97.5s12.5 -86.833 14.5 -113.5h6c7.33301 60.667 19 132.334 35 215.001l184 775h637v-1434h-426z" />
    <glyph glyph-name="N" unicode="N" horiz-adv-x="1663" 
d="M1143 0l-506 692c-40 54.667 -72.667 104 -98 148h-4c4 -70.667 6 -150 6 -238v-602h-400v1434h408l485 -658l22 -31l26 -37l24.5 -37c7.66699 -12 13.5 -22.667 17.5 -32h4c-4 29.333 -6 80 -6 152v643h400v-1434h-379z" />
    <glyph glyph-name="O" unicode="O" horiz-adv-x="1567" 
d="M1505 721c0 -144 -31 -272.833 -93 -386.5s-148.667 -202 -260 -265s-236 -94.5 -374 -94.5c-134.667 0 -257.167 30.5 -367.5 91.5s-196.166 146.667 -257.499 257s-92 235.166 -92 374.499c0 146 31 277.333 93 394s149 206.834 261 270.501s239.333 95.5 382 95.5
c137.333 0 260.166 -30.5 368.499 -91.5s192 -148 251 -261s88.5 -241.167 88.5 -384.5zM1047 709c0 118 -22.667 210.999 -68 278.999s-107.333 102 -186 102c-86 0 -153 -32.667 -201 -98s-72 -157.666 -72 -276.999c0 -116.667 23.833 -207.667 71.5 -273
s112.5 -98 194.5 -98c50 0 95 14.667 135 44s71 71.333 93 126s33 119.667 33 195z" />
    <glyph glyph-name="P" unicode="P" horiz-adv-x="1343" 
d="M1313 961c0 -98 -24.833 -185 -74.5 -261s-120.5 -134.833 -212.5 -176.5s-199 -62.5 -321 -62.5h-132v-461h-432v1434h588c202 0 349.833 -38.333 443.5 -115s140.5 -196 140.5 -358zM856 946c0 58.667 -17 103 -51 133s-84 45 -150 45h-82v-354h97
c124 0 186 58.667 186 176z" />
    <glyph glyph-name="Q" unicode="Q" horiz-adv-x="1567" 
d="M1505 721c0 -222 -71.667 -404.667 -215 -548l379 -366h-542l-182 185c-53.333 -11.333 -109 -17 -167 -17c-134.667 0 -257.167 30.5 -367.5 91.5s-196.166 146.667 -257.499 257s-92 235.166 -92 374.499c0 146 31 277.333 93 394s149 206.834 261 270.501
s239.333 95.5 382 95.5c137.333 0 260.166 -30.5 368.499 -91.5s192 -148 251 -261s88.5 -241.167 88.5 -384.5zM1047 709c0 118 -22.667 210.999 -68 278.999s-107.333 102 -186 102c-86 0 -153 -32.667 -201 -98s-72 -157.666 -72 -276.999
c0 -116.667 23.833 -207.667 71.5 -273s112.5 -98 194.5 -98c78 0 141 33 189 99s72 154.667 72 266z" />
    <glyph glyph-name="R" unicode="R" horiz-adv-x="1397" 
d="M885 0l-107.001 309c-20.667 60.667 -47.5 108.334 -80.5 143.001s-68.833 52 -107.5 52h-17v-504h-432v1434h574c200.667 0 348.834 -32.833 444.501 -98.5s143.5 -164.167 143.5 -295.5c0 -98.667 -27.833 -181.334 -83.5 -248.001s-138.5 -115 -248.5 -145v-4
c60.667 -18.667 111.167 -49 151.5 -91s76.5 -104.333 108.5 -187l141 -365h-487zM843.999 979c0 48 -14.667 86 -44 114s-75.333 42 -138 42h-89v-328h78c58 0 104.667 16.333 140 49s53 73.667 53 123z" />
    <glyph glyph-name="S" unicode="S" horiz-adv-x="1171" 
d="M1137 434c0 -95.333 -25.501 -178.332 -76.501 -248.999s-122.5 -123.334 -214.5 -158.001s-202.667 -52 -332 -52c-150 0 -287.333 25.333 -412 76v393c60 -44 126.333 -79.5 199 -106.5s140.334 -40.5 203.001 -40.5c47.333 0 84 8.5 110 25.5s39 41.833 39 74.5
c0 23.333 -6.5 43.833 -19.5 61.5s-32.667 34.167 -59 49.5s-75.166 36.333 -146.499 63c-230.667 88.667 -346 232 -346 430c0 138.667 52.667 249.5 158 332.5s246.666 124.5 423.999 124.5c50 0 96 -2 138 -6s80.167 -9 114.5 -15s82.5 -17.333 144.5 -34v-365
c-120.667 66 -239.334 99 -356.001 99c-48 0 -86.667 -9 -116 -27s-44 -42.667 -44 -74c0 -30 11.833 -54.833 35.5 -74.5s73.167 -45.167 148.5 -76.5c148.667 -60 253.834 -125.667 315.501 -197s92.5 -156 92.5 -254z" />
    <glyph glyph-name="T" unicode="T" horiz-adv-x="1303" 
d="M866 1096v-1096h-434v1096h-401v338h1241v-338h-406z" />
    <glyph glyph-name="U" unicode="U" horiz-adv-x="1516" 
d="M1391 655c0 -230 -52.501 -400.834 -157.501 -512.501s-266.833 -167.5 -485.5 -167.5c-204 0 -358.833 55.833 -464.5 167.5s-158.5 279.834 -158.5 504.501v787h434v-803c0 -92 17.167 -162.833 51.5 -212.5s83.5 -74.5 147.5 -74.5
c64.667 0 113.834 23.333 147.501 70s50.5 115.667 50.5 207v813h435v-779z" />
    <glyph glyph-name="V" unicode="V" horiz-adv-x="1438" 
d="M958 0l-485 -0.000976562l-463 1434h465l219 -883c17.333 -71.333 27 -124.666 29 -159.999h10c4 44.667 14.333 100 31 166l213 877h450z" />
    <glyph glyph-name="W" unicode="W" horiz-adv-x="2157" 
d="M1774 0l-459 -0.000976562l-199 817c-6 23.333 -12.667 81.333 -20 174h-4c-10 -82 -19.667 -140 -29 -174l-215 -817h-486l-342 1434h474l120 -844c2 -10.667 5 -41.667 9 -93l6 -83h6c1.33301 17.333 5.33301 46.833 12 88.5s13 72.834 19 93.501l221 838h471l184 -850
l13 -85l10 -83h4l3 35l13 139l125 844h426z" />
    <glyph glyph-name="X" unicode="X" horiz-adv-x="1438" 
d="M930 0l-178.001 393c-11.333 24.667 -18.833 48.834 -22.5 72.501s-6.5 43.167 -8.5 58.5h-4c-4 -16 -8.66699 -37 -14 -63s-13 -51.333 -23 -76l-166 -385h-514l430 715l-391 719h522l139 -379c12.667 -35.333 24.334 -82 35.001 -140h4
c10.667 65.333 23 112.666 37 141.999l162 377h481l-403 -711l422 -723h-508z" />
    <glyph glyph-name="Y" unicode="Y" horiz-adv-x="1331" 
d="M874 498v-497.999h-432v492l-442 942h496l155 -451c10.667 -30.667 18.167 -57.334 22.5 -80.001s9.16602 -45.667 14.499 -69h4c8.66699 60.667 18.334 107.667 29.001 141l153 459h457z" />
    <glyph glyph-name="Z" unicode="Z" horiz-adv-x="1313" 
d="M616 338h648v-338h-1203v303l662 793h-621v338h1141v-301z" />
    <glyph glyph-name="bracketleft" unicode="[" horiz-adv-x="862" 
d="M233 -326v1760h543v-258h-201v-1244h201v-258h-543z" />
    <glyph glyph-name="backslash" unicode="\" horiz-adv-x="987" 
d="M719 -238l-699 1672h373l697 -1672h-371z" />
    <glyph glyph-name="bracketright" unicode="]" horiz-adv-x="862" 
d="M86 -326v258h201v1244h-201v258h543v-1760h-543z" />
    <glyph glyph-name="asciicircum" unicode="^" horiz-adv-x="1464" 
d="M971 629l-236 553h-6l-235 -553h-306l424 829h240l424 -829h-305z" />
    <glyph glyph-name="underscore" unicode="_" horiz-adv-x="850" 
d="M0 -297v119h850v-119h-850z" />
    <glyph glyph-name="grave" unicode="`" horiz-adv-x="711" 
d="M385 1186l-356 321h358l299 -321h-301z" />
    <glyph glyph-name="a" unicode="a" horiz-adv-x="1149" 
d="M670 0l0.00292969 156.001h-4c-68 -120.667 -172 -181 -312 -181c-96.667 0 -172.334 28.667 -227.001 86s-82 134 -82 230c0 201.333 123.667 318 371 350l254 33c0 33.333 -15 60.666 -45 81.999s-70.333 32 -121 32c-114.667 0 -235.667 -32.667 -363 -98v277
c55.333 24 124.666 43.667 207.999 59s154.666 23 213.999 23c174 0 300.167 -37.167 378.5 -111.5s117.5 -198.5 117.5 -372.5v-565h-389zM418.003 348.001c0 -28 8.83105 -51 26.498 -69s42.834 -27 75.501 -27c44.667 0 80.834 16.667 108.501 50s41.5 76 41.5 128v39
l-144 -20c-72 -12 -108 -45.667 -108 -101z" />
    <glyph glyph-name="b" unicode="b" horiz-adv-x="1315" 
d="M1257 543c0 -112 -18.5 -211.167 -55.5 -297.5s-89.5 -153 -157.5 -200s-145 -70.5 -231 -70.5c-66 0 -122.5 12.167 -169.5 36.5s-84.167 55.833 -111.5 94.5h-4v-106h-426v1516h426v-631h4c33.333 50.667 78.5 90.667 135.5 120s119.833 44 188.5 44
c129.333 0 228.5 -43 297.5 -129s103.5 -211.667 103.5 -377zM825 530c0 68.667 -13.168 120.335 -39.501 155.002s-64.166 52 -113.499 52c-43.333 0 -79.5 -18.167 -108.5 -54.5s-43.5 -83.5 -43.5 -141.5v-62c0 -58.667 13 -105.334 39 -140.001s61 -52 105 -52
c51.333 0 91 21.167 119 63.5s42 102.166 42 179.499z" />
    <glyph glyph-name="c" unicode="c" horiz-adv-x="1014" 
d="M946 29c-27.333 -16 -70.332 -29.002 -128.999 -39.002s-126.334 -15 -203.001 -15c-108 0 -204.5 21.833 -289.5 65.5s-150.833 104.834 -197.5 183.501s-70 167 -70 265c0 117.333 24.833 217.833 74.5 301.5s120.5 147.667 212.5 192s198.667 66.5 320 66.5
c66.667 0 126.5 -4.33301 179.5 -13s87.167 -18.667 102.5 -30v-332c-21.333 16.667 -52 31.334 -92 44.001s-77 19 -111 19c-83.333 0 -146.5 -19.833 -189.5 -59.5s-64.5 -95.5 -64.5 -167.5c0 -70.667 21.167 -125.5 63.5 -164.5s100.5 -58.5 174.5 -58.5
c79.333 0 152.333 19 219 57v-315z" />
    <glyph glyph-name="d" unicode="d" horiz-adv-x="1315" 
d="M786 0l0.00195312 119.002h-4c-34 -44.667 -78.333 -79.834 -133 -105.501s-108.667 -38.5 -162 -38.5c-87.333 0 -164.333 21.5 -231 64.5s-116.5 103.167 -149.5 180.5s-49.5 168.666 -49.5 273.999c0 108.667 19.667 205 59 289s94.666 149.333 165.999 196
s151.333 70 240 70c42 0 80.833 -6 116.5 -18s66.667 -28.167 93 -48.5s43.166 -40.5 50.499 -60.5h4v594h426v-1516h-426zM795.002 543.002c0 61.333 -13.499 109 -40.499 143s-63.5 51 -109.5 51s-83.5 -21.167 -112.5 -63.5s-43.5 -98.833 -43.5 -169.5
c0 -144.667 50 -217 150 -217c47.333 0 85.166 19.5 113.499 58.5s42.5 95.833 42.5 170.5v27z" />
    <glyph glyph-name="e" unicode="e" horiz-adv-x="1147" 
d="M469 391c7.33301 -44 32.666 -78.5 75.999 -103.5s100.666 -37.5 171.999 -37.5c99.333 0 193.333 19 282 57v-270c-103.333 -41.333 -228.666 -62 -375.999 -62c-178.667 0 -317.667 45.667 -417 137s-149 217 -149 377c0 110 21.833 207 65.5 291
s108.334 149.833 194.001 197.5s180.167 71.5 283.5 71.5c106 0 196.667 -20.667 272 -62s132.5 -99.333 171.5 -174s58.5 -162 58.5 -262v-160h-633zM725 614c0 118 -42.333 176.999 -127 176.999c-35.333 0 -65 -16.167 -89 -48.5s-38 -75.166 -42 -128.499h258z" />
    <glyph glyph-name="f" unicode="f" horiz-adv-x="883" 
d="M891 1206c-44 15.333 -85.001 22.999 -123.001 22.999c-47.333 0 -82.333 -12.167 -105 -36.5s-34 -57.166 -34 -98.499v-70h237v-295h-237v-729h-426v729h-172v295h172v94c0 83.333 19.333 156.833 58 220.5s94.834 113.167 168.501 148.5s163.167 53 268.5 53
c76 0 140.333 -7.33301 193 -22v-312z" />
    <glyph glyph-name="g" unicode="g" horiz-adv-x="1315" 
d="M1212 143c0 -196.667 -61.8311 -349.835 -185.498 -459.502s-304.167 -164.5 -541.5 -164.5c-64 0 -126 5 -186 15s-103 21.333 -129 34v334c42.667 -26.667 92.667 -48 150 -64s108.333 -24 153 -24c95.333 0 171.666 23 228.999 69s86 107 86 183v63h-4
c-30.667 -46.667 -72.834 -84 -126.501 -112s-111.167 -42 -172.5 -42c-132 0 -236.333 45.833 -313 137.5s-115 218.167 -115 379.5c0 110.667 20 208.334 60 293.001s95.667 149.834 167 195.501s150 68.5 236 68.5c118 0 206 -43.667 264 -131h4v106h424v-881z
M795.002 540.999c0 60 -13.501 107.666 -40.501 142.999s-62.833 53 -107.5 53c-48 0 -86.333 -21.333 -115 -64s-43 -99.667 -43 -171c0 -66 12 -118.333 36 -157s62 -58 114 -58c48.667 0 86.834 19.833 114.501 59.5s41.5 92.834 41.5 159.501v35z" />
    <glyph glyph-name="h" unicode="h" horiz-adv-x="1264" 
d="M762 0v584c0 102 -39 153 -117 153c-38 0 -67 -14.5 -87 -43.5s-30 -66.167 -30 -111.5v-582h-426v1516h426v-631h4c36.667 52.667 81.167 93.167 133.5 121.5s108.5 42.5 168.5 42.5c110.667 0 195 -35.5 253 -106.5s87 -175.5 87 -313.5v-629h-412z" />
    <glyph glyph-name="i" unicode="i" horiz-adv-x="631" 
d="M553 1300c0 -60 -21.834 -108.667 -65.501 -146s-101.167 -56 -172.5 -56c-69.333 0 -126.166 19.333 -170.499 58s-66.5 86.667 -66.5 144c0 58.667 21.5 106.167 64.5 142.5s100.5 54.5 172.5 54.5c71.333 0 128.833 -18.167 172.5 -54.5s65.5 -83.833 65.5 -142.5z
M101.999 0v1024h426v-1024h-426z" />
    <glyph glyph-name="j" unicode="j" horiz-adv-x="631" 
d="M553 1300c0 -60 -21.834 -108.667 -65.501 -146s-101.167 -56 -172.5 -56c-69.333 0 -126.166 19.333 -170.499 58s-66.5 86.667 -66.5 144c0 58.667 21.5 106.167 64.5 142.5s100.5 54.5 172.5 54.5c71.333 0 128.833 -18.167 172.5 -54.5s65.5 -83.833 65.5 -142.5z
M527.999 -10c0 -90 -17.665 -172.167 -52.998 -246.5s-87.333 -130.333 -156 -168s-150.334 -56.5 -245.001 -56.5c-52 0 -108.667 10 -170 30v312c37.333 -20.667 71.333 -31 102 -31c35.333 0 60.166 11.833 74.499 35.5s21.5 59.5 21.5 107.5v1051h426v-1034z" />
    <glyph glyph-name="k" unicode="k" horiz-adv-x="1214" 
d="M760 0l-228 526h-4v-526h-426v1516h426v-973h4l207 481h480l-277 -469l293 -555h-475z" />
    <glyph glyph-name="l" unicode="l" horiz-adv-x="631" 
d="M102 0v1516h426v-1516h-426z" />
    <glyph glyph-name="m" unicode="m" horiz-adv-x="1946" 
d="M1430 0v590.001c0 49.333 -8.83301 86.166 -26.5 110.499s-46.5 36.5 -86.5 36.5c-39.333 0 -70 -14.833 -92 -44.5s-33 -70.834 -33 -123.501v-569h-426v580c0 104.667 -35.667 157 -107 157c-43.333 0 -76 -15.167 -98 -45.5s-33 -73.833 -33 -130.5v-561h-426v1024
h426v-162h4c16 28.667 41.5 57.834 76.5 87.501s74.5 53.667 118.5 72s91.667 27.5 143 27.5c72.667 0 133.834 -14.333 183.501 -43s91.167 -74 124.5 -136c36 57.333 84 101.5 144 132.5s126.667 46.5 200 46.5c107.333 0 189.666 -35 246.999 -105s86 -171 86 -303v-641
h-425z" />
    <glyph glyph-name="n" unicode="n" horiz-adv-x="1282" 
d="M766 0l0.00195312 559.001c0 63.333 -9.5 108.833 -28.5 136.5s-49.833 41.5 -92.5 41.5c-36.667 0 -65.334 -14.333 -86.001 -43s-31 -65.334 -31 -110.001v-584h-426v1024h426v-160h4c34 58.667 79.667 104.167 137 136.5s119.666 48.5 186.999 48.5
c224 0 336 -141.333 336 -424v-625h-426z" />
    <glyph glyph-name="o" unicode="o" horiz-adv-x="1298" 
d="M1241 530c0 -172.667 -52.168 -308.332 -156.501 -406.999s-250.166 -148 -437.499 -148c-186 0 -330.833 48.167 -434.5 144.5s-155.5 229.166 -155.5 398.499c0 108.667 24.333 203 73 283s118 141.333 208 184s193.667 64 311 64c121.333 0 226.5 -22.333 315.5 -67
s157.333 -106.667 205 -186s71.5 -168 71.5 -266zM808.999 528.002c0 139.333 -53.333 209 -160 209s-160 -73 -160 -219c0 -154 54 -231 162 -231c105.333 0 158 80.333 158 241z" />
    <glyph glyph-name="p" unicode="p" horiz-adv-x="1315" 
d="M1257 543c0 -112 -19 -211 -57 -297s-91.667 -152.667 -161 -200s-147.333 -71 -234 -71c-120 0 -211 43.667 -273 131h-4v-577h-426v1495h426v-139h4c34 51.333 78 91.5 132 120.5s115.333 43.5 184 43.5c132 0 233.167 -44 303.5 -132s105.5 -212.667 105.5 -374z
M825 530c0 64.667 -12.5 115.335 -37.5 152.002s-63.5 55 -115.5 55c-45.333 0 -82 -19.333 -110 -58s-42 -91.667 -42 -159v-20c0 -64.667 12 -116.334 36 -155.001s60 -58 108 -58c51.333 0 91 21.167 119 63.5s42 102.166 42 179.499z" />
    <glyph glyph-name="q" unicode="q" horiz-adv-x="1315" 
d="M786 -471l-0.000976562 587.998h-4c-32 -42.667 -75.167 -77 -129.5 -103s-110.166 -39 -167.499 -39c-84.667 0 -159.167 20 -223.5 60s-114.5 98.167 -150.5 174.5s-54 170.5 -54 282.5c0 110.667 20 208.334 60 293.001s95.667 149.834 167 195.501s150 68.5 236 68.5
c116.667 0 204 -43.667 262 -131h4v106h426v-1495h-426zM794.999 538.998c0 62 -13.5 110.499 -40.5 145.499s-62.833 52.5 -107.5 52.5c-46.667 0 -84.667 -21.333 -114 -64s-44 -99.667 -44 -171c0 -66 12.333 -118.333 37 -157s61.667 -58 111 -58s88 19.333 116 58
s42 92.334 42 161.001v33z" />
    <glyph glyph-name="r" unicode="r" horiz-adv-x="893" 
d="M872 659c-16 7.33301 -37.666 13.999 -64.999 19.999s-50 9 -68 9c-140.667 0 -211 -81.333 -211 -244v-444h-426v1024h426v-180h4c26 64.667 63 113.834 111 147.501s104 50.5 168 50.5c23.333 0 43.666 -4 60.999 -12v-371z" />
    <glyph glyph-name="s" unicode="s" horiz-adv-x="989" 
d="M934 340c0 -116 -44.166 -205.832 -132.499 -269.499s-211.5 -95.5 -369.5 -95.5c-46 0 -102.833 4.66699 -170.5 14s-122.834 20.666 -165.501 33.999v299c126 -56 231.333 -84 316 -84c83.333 0 125 21.667 125 65c0 18 -9.66699 32.833 -29 44.5s-70 31.167 -152 58.5
c-90.667 28.667 -156.667 66.667 -198 114s-62 109 -62 185c0 106 42.167 189.833 126.5 251.5s202.833 92.5 355.5 92.5c89.333 0 184 -13 284 -39v-287c-42 18 -88 33 -138 45s-92 18 -126 18c-28 0 -50.333 -4.66699 -67 -14s-25 -22.333 -25 -39c0 -19.333 9 -35 27 -47
s54 -26.333 108 -43c104.667 -30.667 179.667 -70 225 -118s68 -109.667 68 -185z" />
    <glyph glyph-name="t" unicode="t" horiz-adv-x="854" 
d="M823 14c-19.333 -9.33301 -50.999 -18.167 -94.999 -26.5s-97 -12.5 -159 -12.5c-118.667 0 -211.5 32.667 -278.5 98s-100.5 158.333 -100.5 279v377h-161v295h161v201l420 116v-317h213v-295h-213v-307c0 -90 35.667 -135 107 -135c33.333 0 68.666 7.33301 105.999 22
v-295z" />
    <glyph glyph-name="u" unicode="u" horiz-adv-x="1282" 
d="M754 0l-0.000976562 158.001h-4c-35.333 -48.667 -67.166 -84.334 -95.499 -107.001s-60.333 -41 -96 -55s-77.167 -21 -124.5 -21c-112 0 -197.333 36.333 -256 109s-88 180 -88 322v618h426v-586c0 -100.667 37.667 -151 113 -151c41.333 0 72.5 13.667 93.5 41
s31.5 66 31.5 116v580h426v-1024h-426z" />
    <glyph glyph-name="v" unicode="v" horiz-adv-x="1204" 
d="M848 0h-505.999l-342 1024h444l125 -559c20 -90 31 -157.667 33 -203h6c1.33301 13.333 3.16602 27 5.49902 41s51.833 254.333 148.5 721h442z" />
    <glyph glyph-name="w" unicode="w" horiz-adv-x="1731" 
d="M1430 0h-443.001l-102 498c-12.667 60 -19 113 -19 159h-6c-7.33301 -70.667 -14.666 -121.667 -21.999 -153l-111 -504h-442l-271 1024h428l88 -596l15 -133h6c8.66699 78 14.667 123.667 18 137l131 592h406l113 -592l9 -71l5 -64h6l3 29l91 698h383z" />
    <glyph glyph-name="x" unicode="x" horiz-adv-x="1272" 
d="M944 545l329.999 -545.002h-490l-110 233c-12.667 26 -27 61.667 -43 107h-4c-14 -45.333 -23 -73.166 -27 -83.499s-43 -95.833 -117 -256.5h-487l340 516l-320 508h492l110 -238c14.667 -27.333 29.334 -64.666 44.001 -111.999h4c19.333 58 33 96 41 114l104 236h465z
" />
    <glyph glyph-name="y" unicode="y" horiz-adv-x="1176" 
d="M301 -481c-40 0 -82.999 3.50098 -128.999 10.501s-87 17.167 -123 30.5v321c16.667 -12.667 41.5 -24.334 74.5 -35.001s64.167 -16 93.5 -16c79.333 0 132 31.333 158 94l33 80l-428 1020h471l124 -494c24 -92 37 -154 39 -186h4c2 14.667 4.83301 31 8.5 49
s55.5 228.333 155.5 631h414l-377 -1053c-56.667 -161.333 -126.834 -277 -210.501 -347s-186.167 -105 -307.5 -105z" />
    <glyph glyph-name="z" unicode="z" horiz-adv-x="1042" 
d="M584 295h422v-295h-981v197l460 532h-417v295h929v-242z" />
    <glyph glyph-name="braceleft" unicode="{" horiz-adv-x="862" 
d="M762 -326c-123.333 0 -220.667 12.833 -292 38.5s-122.833 65.667 -154.5 120s-47.5 137.5 -47.5 249.5v180c0 120 -49.667 180 -149 180v224c99.333 0 149 60.667 149 182v168c0 117.333 15.5 203.5 46.5 258.5s82 95.333 153 121s169.167 38.5 294.5 38.5v-224
c-54.667 0 -95 -12.333 -121 -37s-39 -66.667 -39 -126v-142c0 -90.667 -12.333 -164.667 -37 -222s-65 -99.333 -121 -126v-4c55.333 -26.667 95.5 -69.667 120.5 -129s37.5 -137.333 37.5 -234v-127c0 -60 12.333 -102.5 37 -127.5s65.667 -37.5 123 -37.5v-224z" />
    <glyph glyph-name="bar" unicode="|" horiz-adv-x="815" 
d="M244 -481v2048h327v-2048h-327z" />
    <glyph glyph-name="braceright" unicode="}" horiz-adv-x="862" 
d="M743 442c-99.333 0 -149 -60.666 -149 -181.999v-168c0 -117.333 -15.5 -203.5 -46.5 -258.5s-82 -95.333 -153 -121s-169.167 -38.5 -294.5 -38.5v224c55.333 0 95.833 12.333 121.5 37s38.5 66.667 38.5 126v142c0 90 12.167 163.667 36.5 221
s64.833 99.666 121.5 126.999v4c-55.333 27.333 -95.5 71 -120.5 131s-37.5 137.333 -37.5 232v126c0 59.333 -12 101.833 -36 127.5s-65.333 38.5 -124 38.5v224c124 0 221.5 -12.833 292.5 -38.5s122.333 -65.667 154 -120s47.5 -137.5 47.5 -249.5v-180
c0 -120 49.667 -180 149 -180v-224z" />
    <glyph glyph-name="asciitilde" unicode="~" horiz-adv-x="1464" 
d="M1270 776c-4 -116.667 -35 -210.333 -93 -281s-135 -106 -231 -106c-53.333 0 -99.666 6.83301 -138.999 20.5s-84 35.167 -134 64.5c-50.667 29.333 -89.334 44 -116.001 44c-32 0 -58.167 -12 -78.5 -36s-32.5 -59 -36.5 -105h-247
c3.33301 120.667 34.333 215.667 93 285s138 104 238 104c46 0 86.5 -5.66699 121.5 -17s69.167 -26 102.5 -44l86 -47c26 -14 51.667 -21 77 -21c32 0 57.667 13.167 77 39.5s30 59.5 32 99.5h248z" />
    <glyph glyph-name="uni00A0" unicode="&#xa0;" horiz-adv-x="561" 
 />
    <glyph glyph-name="exclamdown" unicode="&#xa1;" horiz-adv-x="750" 
d="M612 846c0 -58.667 -21.5 -106.167 -64.5 -142.5s-100.5 -54.5 -172.5 -54.5s-129.667 18.5 -173 55.5s-65 84.167 -65 141.5c0 59.333 21.5 108 64.5 146s100.833 57 173.5 57c70 0 127 -19.5 171 -58.5s66 -87.167 66 -144.5zM154 -410l53 951h342l53 -951h-448z" />
    <glyph glyph-name="cent" unicode="&#xa2;" horiz-adv-x="1227" 
d="M1032 205c-32 -18 -81 -31.667 -147 -41v-195h-238v185c-92.667 5.33301 -178.667 31.833 -258 79.5s-138.666 108.5 -177.999 182.5s-59 158 -59 252c0 100.667 19 189.834 57 267.501s95.5 141.667 172.5 192s165.5 80.833 265.5 91.5v206h238v-206
c68.667 -6.66699 117.667 -19 147 -37v-334c-16.667 15.333 -49.5 30 -98.5 44s-91.167 21 -126.5 21c-87.333 0 -154.5 -19.333 -201.5 -58s-70.5 -94.334 -70.5 -167.001c0 -70 22.333 -125 67 -165s106.667 -60 186 -60c38.667 0 80.667 5 126 15
s84.666 24.667 117.999 44v-317z" />
    <glyph glyph-name="sterling" unicode="&#xa3;" horiz-adv-x="1227" 
d="M166 0v291c63.333 16 109.833 43.833 139.5 83.5s44.5 94.5 44.5 164.5v65h-164v262h164v144c0 139.333 43.5 248.833 130.5 328.5s208.167 119.5 363.5 119.5c78 0 158.333 -18.333 241 -55v-324c-20.667 17.333 -51.5 33 -92.5 47s-76.167 21 -105.5 21
c-54.667 0 -94.667 -16 -120 -48s-38 -74 -38 -126v-107h246v-262h-246v-33c0 -51.333 -11 -99.5 -33 -144.5s-52 -83.5 -90 -115.5h584v-311h-1024z" />
    <glyph glyph-name="currency" unicode="&#xa4;" horiz-adv-x="1139" 
d="M946 188l-145 142c-73.333 -40 -150.666 -60 -231.999 -60c-80.667 0 -157.667 20 -231 60l-145 -142l-173 174l146 138c-41.333 75.333 -62 150.333 -62 225c0 77.333 20.667 152.333 62 225l-146 140l173 174l145 -142c73.333 40 150.333 60 231 60
c81.333 0 158.666 -20 231.999 -60l145 142l172 -174l-145 -140c40.667 -72 61 -147 61 -225c0 -76 -20.333 -151 -61 -225l145 -138zM788 727c0 58 -22.001 108 -66.001 150s-95 63 -153 63c-61.333 0 -113.166 -21 -155.499 -63s-63.5 -92 -63.5 -150
c0 -58.667 21.333 -109.167 64 -151.5s94.334 -63.5 155.001 -63.5c59.333 0 110.666 20.667 153.999 62s65 92.333 65 153z" />
    <glyph glyph-name="yen" unicode="&#xa5;" horiz-adv-x="1227" 
d="M877 793h243v-209h-293v-123h293v-213h-293v-248h-409v248h-301v213h301v123h-301v209h245l-344 641h406l192 -478l25 -59h4l25 59l182 478h385z" />
    <glyph glyph-name="brokenbar" unicode="&#xa6;" horiz-adv-x="815" 
d="M244 657v910h327v-910h-327zM244 -481v934h327v-934h-327z" />
    <glyph glyph-name="section" unicode="&#xa7;" horiz-adv-x="1063" 
d="M971 713c0 -48 -13.998 -96.6719 -41.998 -146.005s-64 -89.666 -108 -120.999c22.667 -22.667 41 -49 55 -79s21 -59.333 21 -88c0 -106.667 -37.5 -190.834 -112.5 -252.501s-176.167 -92.5 -303.5 -92.5c-53.333 0 -110.333 7.33301 -171 22s-112 33.334 -154 56.001
v303c141.333 -84.667 258.666 -127 351.999 -127c31.333 0 55.833 6.66699 73.5 20s26.5 32.666 26.5 57.999c0 18.667 -6.5 34.334 -19.5 47.001s-35.167 25.667 -66.5 39l-96 41c-76.667 34.667 -132.834 66.834 -168.501 96.501s-63.667 64.167 -84 103.5
s-30.5 85.333 -30.5 138c0 51.333 11 95.333 33 132s48.667 69.334 80 98.001c-22.667 25.333 -41.334 55.5 -56.001 90.5s-22 72.167 -22 111.5c0 100.667 35.5 180.5 106.5 239.5s168.833 88.5 293.5 88.5c46.667 0 96.334 -6 149.001 -18s97.667 -26.333 135 -43v-312
c-62 44 -114.5 75.833 -157.5 95.5s-85.167 29.5 -126.5 29.5c-66 0 -99 -24 -99 -72c0 -21.333 11 -40.666 33 -57.999s57 -34.666 105 -51.999l81 -31c100 -38.667 170.5 -83.167 211.5 -133.5s61.5 -111.5 61.5 -183.5zM694.002 681.995c0 25.333 -6 44.668 -18 58.001
s-33 27.666 -63 42.999s-78.667 36.333 -146 63c-34 -22.667 -51 -51.334 -51 -86.001c0 -36.667 17.167 -68.167 51.5 -94.5s89.5 -54.166 165.5 -83.499c15.333 7.33301 29.333 19.5 42 36.5s19 38.167 19 63.5z" />
    <glyph glyph-name="dieresis" unicode="&#xa8;" horiz-adv-x="1024" 
d="M954 1339c0 -48.667 -17.332 -88.165 -51.999 -118.498s-81.334 -45.5 -140.001 -45.5c-56 0 -102.167 15.5 -138.5 46.5s-54.5 70.167 -54.5 117.5s17.667 85.666 53 114.999s82 44 140 44s104.5 -14.833 139.5 -44.5s52.5 -67.834 52.5 -114.501zM453.001 1339
c0 -47.333 -17.165 -86.499 -51.498 -117.499s-81.5 -46.5 -141.5 -46.5c-56.667 0 -102.834 15.833 -138.501 47.5s-53.5 70.5 -53.5 116.5c0 47.333 17.667 85.666 53 114.999s81.666 44 138.999 44c58 0 104.667 -14.5 140 -43.5s53 -67.5 53 -115.5z" />
    <glyph glyph-name="copyright" unicode="&#xa9;" horiz-adv-x="1755" 
d="M1653 719c0 -137.333 -34 -262.831 -102 -376.498s-162 -203.334 -282 -269.001s-251.667 -98.5 -395 -98.5c-146 0 -278.167 31.5 -396.5 94.5s-210.5 151.167 -276.5 264.5s-99 239.666 -99 378.999c0 138 34 264 102 378s161.667 203.667 281 269s252 98 398 98
c144.667 0 276 -31.5 394 -94.5s210.167 -151.333 276.5 -265s99.5 -240.167 99.5 -379.5zM1485 715.002c0 113.333 -25.665 215.832 -76.998 307.499s-123.333 163.334 -216 215.001s-197 77.5 -313 77.5c-114.667 0 -218.834 -26.333 -312.501 -79
s-166.5 -125 -218.5 -217s-78 -193.333 -78 -304c0 -112.667 26.333 -214.834 79 -306.501s126 -162.834 220 -213.501s197.333 -76 310 -76c109.333 0 210.666 25.833 303.999 77.5s167 123.334 221 215.001s81 192.834 81 303.501zM1186 324.001
c-85.333 -44 -176.335 -65.999 -273.002 -65.999c-90 0 -171.5 19 -244.5 57s-130 90.833 -171 158.5s-61.5 142.5 -61.5 224.5c0 144 47 260 141 348s217 132 369 132c80 0 160 -19.333 240 -58v-284c-28 20.667 -62.5 38 -103.5 52s-84.5 21 -130.5 21
c-59.333 0 -108.666 -18.667 -147.999 -56s-59 -85.333 -59 -144c0 -54.667 20.833 -99.834 62.5 -135.501s91.834 -53.5 150.501 -53.5c88.667 0 164.667 24 228 72v-268z" />
    <glyph glyph-name="ordfeminine" unicode="&#xaa;" horiz-adv-x="852" 
d="M498 717l-0.00195312 87.998h-4c-38.667 -44 -73.5 -73.167 -104.5 -87.5s-68.833 -21.5 -113.5 -21.5c-61.333 0 -112.833 20.833 -154.5 62.5s-62.5 93.834 -62.5 156.501c0 76.667 23 134.834 69 174.501s116 65.5 210 77.5l160 21c0 30 -11.333 51.167 -34 63.5
s-56.667 18.5 -102 18.5c-26 0 -62.167 -7.33301 -108.5 -22s-89.166 -31.334 -128.499 -50.001v203c42.667 16 90.834 28.833 144.501 38.5s106.5 14.5 158.5 14.5c88 0 155.833 -10.667 203.5 -32s83 -55.666 106 -102.999s34.5 -111 34.5 -191v-411h-274z
M335.998 960.998c0 -21.333 7.5 -38.333 22.5 -51s32.833 -19 53.5 -19c23.333 0 43.5 9.5 60.5 28.5s25.5 40.167 25.5 63.5v59l-76 -8c-22.667 -2 -42.667 -9 -60 -21s-26 -29.333 -26 -52z" />
    <glyph glyph-name="guillemotleft" unicode="&#xab;" horiz-adv-x="1294" 
d="M926 201l-346 336l346 344h334l-351 -344l353 -336h-336zM379 201l-346 336l346 344h334l-351 -344l353 -336h-336z" />
    <glyph glyph-name="logicalnot" unicode="&#xac;" horiz-adv-x="1464" 
d="M981 236v342h-743v247h991v-589h-248z" />
    <glyph glyph-name="uni00AD" unicode="&#xad;" horiz-adv-x="834" 
d="M143 393v287h547v-287h-547z" />
    <glyph glyph-name="registered" unicode="&#xae;" horiz-adv-x="1755" 
d="M1653 717c0 -137.333 -34.499 -262.998 -103.499 -376.998s-163.333 -203.333 -283 -268s-250.5 -97 -392.5 -97c-146 0 -278.167 31.5 -396.5 94.5s-210.5 151.167 -276.5 264.5s-99 239.666 -99 378.999c0 138 34 264 102 378s161.667 203.667 281 269s252 98 398 98
c143.333 0 274.166 -31.5 392.499 -94.5s210.833 -151.333 277.5 -265s100 -240.834 100 -381.501zM1485 713.002c0 114 -25.998 217.171 -77.998 309.504s-124.333 164.166 -217 215.499s-196.334 77 -311.001 77s-218.834 -26.333 -312.501 -79s-166.5 -125 -218.5 -217
s-78 -193.333 -78 -304c0 -112.667 26.333 -214.834 79 -306.501s126 -162.834 220 -213.501s197.333 -76 310 -76c110 0 211.667 25.667 305 77s166.833 122.666 220.5 213.999s80.5 192.333 80.5 303zM979.003 276.006l-53 242c-5.33301 25.333 -14.5 45.666 -27.5 60.999
s-27.833 23 -44.5 23h-70v-326h-266v898h365c124 0 218.833 -21.833 284.5 -65.5s98.5 -110.167 98.5 -199.5c0 -113.333 -65.667 -189.666 -197 -228.999v-4c26 -4.66699 51.333 -18.667 76 -42s41 -48.333 49 -75l96 -283h-311zM977.003 879.006
c0 22.667 -8.5 42 -25.5 58s-45.5 24 -85.5 24h-82v-170h101c28 0 50.333 7.83301 67 23.5s25 37.167 25 64.5z" />
    <glyph glyph-name="macron" unicode="&#xaf;" horiz-adv-x="741" 
d="M43 1145v223h655v-223h-655z" />
    <glyph glyph-name="degree" unicode="&#xb0;" horiz-adv-x="791" 
d="M700 1184c0 -49.333 -12.501 -95.333 -37.501 -138s-59.667 -76.5 -104 -101.5s-91.166 -37.5 -140.499 -37.5c-78.667 0 -145.5 26.833 -200.5 80.5s-82.5 119.167 -82.5 196.5c0 75.333 27.167 139.833 81.5 193.5s121.5 80.5 201.5 80.5c78 0 144.5 -26.667 199.5 -80
s82.5 -118 82.5 -194zM521.999 1184c0 30.667 -10 56.334 -30 77.001s-44.667 31 -74 31c-31.333 0 -57.333 -10.333 -78 -31s-31 -46.334 -31 -77.001s10.667 -56.834 32 -78.501s47 -32.5 77 -32.5c28.667 0 53.167 10.833 73.5 32.5s30.5 47.834 30.5 78.501z" />
    <glyph glyph-name="plusminus" unicode="&#xb1;" horiz-adv-x="1464" 
d="M856 725v-373h-248v373h-364v248h364v383h248v-383h375v-248h-375zM238 0v248h985v-248h-985z" />
    <glyph glyph-name="uni00B2" unicode="&#xb2;" horiz-adv-x="758" 
d="M49 584l-0.000976562 89.999c0 46 8.66699 85.333 26 118s39 61.5 65 86.5s54.333 47.5 85 67.5s59 40.333 85 61s47.667 42.667 65 66s26 51.333 26 84c0 18.667 -8 35.334 -24 50.001s-40 22 -72 22c-26.667 0 -58.667 -7 -96 -21s-73.666 -34.333 -108.999 -61v246
c40 21.333 81 36.833 123 46.5s87 14.5 135 14.5c50.667 0 95.667 -6.16699 135 -18.5s72.5 -29.5 99.5 -51.5s47.333 -48.167 61 -78.5s20.5 -63.5 20.5 -99.5c0 -46.667 -7.5 -87.667 -22.5 -123s-33.833 -66.333 -56.5 -93s-47.167 -49.5 -73.5 -68.5
s-50.833 -35.667 -73.5 -50s-41.5 -26.833 -56.5 -37.5s-22.5 -21 -22.5 -31v-4h319v-215h-639z" />
    <glyph glyph-name="uni00B3" unicode="&#xb3;" horiz-adv-x="758" 
d="M690 836c0 -83.333 -35.5 -149.666 -106.5 -198.999s-163.167 -74 -276.5 -74c-53.333 0 -98.666 5.5 -135.999 16.5s-70.333 22.5 -99 34.5v197c70.667 -35.333 143 -53 217 -53c90 0 135 26.667 135 80c0 24.667 -11.5 44.167 -34.5 58.5s-56.5 21.5 -100.5 21.5h-139
v194h131c37.333 0 66.333 6.66699 87 20s31 32 31 56c0 21.333 -9 38.666 -27 51.999s-43 20 -75 20c-75.333 0 -143 -18.667 -203 -56v193c82.667 38 168 57 256 57c98 0 174.833 -19.667 230.5 -59s83.5 -94 83.5 -164c0 -49.333 -12.667 -90.5 -38 -123.5
s-60 -55.5 -104 -67.5v-4c51.333 -10.667 92.166 -34 122.499 -70s45.5 -79.333 45.5 -130z" />
    <glyph glyph-name="acute" unicode="&#xb4;" horiz-adv-x="633" 
d="M285 1186h-301l299 321h358z" />
    <glyph glyph-name="uni00B5" unicode="&#xb5;" horiz-adv-x="1294" 
d="M772 0l2 136.999h-4c-12 -39.333 -34.667 -73.666 -68 -102.999s-67.333 -44 -102 -44c-32 0 -57.333 4.66699 -76 14h-4l4 -305h-422v1325h426v-539c0 -124 35.667 -186 107 -186c30 0 56.5 7.66699 79.5 23s40.167 37 51.5 65v637h426v-1024h-420z" />
    <glyph glyph-name="paragraph" unicode="&#xb6;" horiz-adv-x="1147" 
d="M948 1225v-1225h-227v1225h-98v-1225h-228v774c-83.333 9.33301 -151.5 45.333 -204.5 108s-79.5 138 -79.5 226c0 94 31.167 171.833 93.5 233.5s141.5 92.5 237.5 92.5h615v-209h-109z" />
    <glyph glyph-name="periodcentered" unicode="&#xb7;" horiz-adv-x="655" 
d="M565 713c0 -60.667 -21.333 -109.667 -64 -147s-101.667 -56 -177 -56c-68 0 -124 19.333 -168 58s-66 87 -66 145c0 59.333 21.833 106.833 65.5 142.5s101.167 53.5 172.5 53.5c70 0 127 -17.833 171 -53.5s66 -83.167 66 -142.5z" />
    <glyph glyph-name="cedilla" unicode="&#xb8;" horiz-adv-x="457" 
d="M514 -244c0 -74 -30.1689 -130.669 -90.502 -170.002s-146.166 -59 -257.499 -59c-35.333 0 -73.666 2 -114.999 6v172c24.667 -5.33301 52 -8 82 -8c38 0 66.667 5.5 86 16.5s29 25.167 29 42.5c0 20.667 -7.83301 35.834 -23.5 45.501s-42.167 14.5 -79.5 14.5h-18
l-21 -2v186h213v-66c130 -9.33301 195 -68.666 195 -177.999z" />
    <glyph glyph-name="uni00B9" unicode="&#xb9;" horiz-adv-x="758" 
d="M285 584l0.000976562 610c-36 -22.667 -71.167 -40.5 -105.5 -53.5s-68.833 -22.833 -103.5 -29.5v209c22.667 2.66699 47.667 8.5 75 17.5s54.5 20 81.5 33s52.667 26.833 77 41.5s45.166 28.667 62.499 42h173v-870h-260z" />
    <glyph glyph-name="ordmasculine" unicode="&#xba;" horiz-adv-x="950" 
d="M893 1087c0 -122 -36.832 -217.667 -110.499 -287s-176.834 -104 -309.501 -104c-130.667 0 -232.667 34 -306 102s-110 161.667 -110 281c0 116 37.333 207.5 112 274.5s176.667 100.5 306 100.5c87.333 0 162.333 -16 225 -48s110.5 -75.833 143.5 -131.5
s49.5 -118.167 49.5 -187.5zM586.001 1083c0 48.667 -10 86.5 -30 113.5s-47 40.5 -81 40.5c-75.333 0 -113 -52.667 -113 -158c0 -109.333 37.667 -164 113 -164c36 0 63.5 14.5 82.5 43.5s28.5 70.5 28.5 124.5z" />
    <glyph glyph-name="guillemotright" unicode="&#xbb;" horiz-adv-x="1294" 
d="M915 201h-335l352 336l-350 344h333l347 -344zM369 201h-336l352 336l-350 344h334l346 -344z" />
    <glyph glyph-name="onequarter" unicode="&#xbc;" horiz-adv-x="1950" 
d="M285 584l0.000976562 610c-36 -22.667 -71.167 -40.5 -105.5 -53.5s-68.833 -22.833 -103.5 -29.5v209c22.667 2.66699 47.667 8.5 75 17.5s54.5 20 81.5 33s52.667 26.833 77 41.5s45.166 28.667 62.499 42h173v-870h-260zM648.001 0h-316l922 1434h315zM1862 157
h-99.998v-156h-241v156h-385v178c67.333 78.667 126.166 161.167 176.499 247.5s99.166 175.833 146.499 268.5h303v-499h100v-195zM1521 352l-0.000976562 272.001c-1.33301 -4 -5 -12 -11 -24l-22 -42.5l-29.5 -53.5c-11 -19.333 -22.5 -38.333 -34.5 -57
s-24.167 -36.334 -36.5 -53.001s-24.166 -30.667 -35.499 -42h169z" />
    <glyph glyph-name="onehalf" unicode="&#xbd;" horiz-adv-x="1976" 
d="M285 584l0.000976562 610c-36 -22.667 -71.167 -40.5 -105.5 -53.5s-68.833 -22.833 -103.5 -29.5v209c22.667 2.66699 47.667 8.5 75 17.5s54.5 20 81.5 33s52.667 26.833 77 41.5s45.166 28.667 62.499 42h173v-870h-260zM648.001 0h-316l922 1434h315zM1229 1
l-0.000976562 89.999c0 46 8.66699 85.333 26 118s39 61.5 65 86.5s54.333 47.5 85 67.5s59 40.333 85 61s47.667 42.667 65 66s26 51.333 26 84c0 18.667 -8 35.334 -24 50.001s-40 22 -72 22c-26.667 0 -58.667 -7 -96 -21s-73.666 -34.333 -108.999 -61v246
c40 21.333 81 36.833 123 46.5s87 14.5 135 14.5c50.667 0 95.667 -6.16699 135 -18.5s72.5 -29.5 99.5 -51.5s47.333 -48.167 61 -78.5s20.5 -63.5 20.5 -99.5c0 -46.667 -7.5 -87.667 -22.5 -123s-33.833 -66.333 -56.5 -93s-47.167 -49.5 -73.5 -68.5
s-50.833 -35.667 -73.5 -50s-41.5 -26.833 -56.5 -37.5s-22.5 -21 -22.5 -31v-4h319v-215h-639z" />
    <glyph glyph-name="threequarters" unicode="&#xbe;" horiz-adv-x="2005" 
d="M701 0h-316l922 1434h315zM1862 157h-99.998v-156h-241v156h-385v178c67.333 78.667 126.166 161.167 176.499 247.5s99.166 175.833 146.499 268.5h303v-499h100v-195zM1521 352l-0.000976562 272.001c-1.33301 -4 -5 -12 -11 -24l-22 -42.5l-29.5 -53.5
c-11 -19.333 -22.5 -38.333 -34.5 -57s-24.167 -36.334 -36.5 -53.001s-24.166 -30.667 -35.499 -42h169zM690.001 836.001c0 -83.333 -35.5 -149.666 -106.5 -198.999s-163.167 -74 -276.5 -74c-53.333 0 -98.666 5.5 -135.999 16.5s-70.333 22.5 -99 34.5v197
c70.667 -35.333 143 -53 217 -53c90 0 135 26.667 135 80c0 24.667 -11.5 44.167 -34.5 58.5s-56.5 21.5 -100.5 21.5h-139v194h131c37.333 0 66.333 6.66699 87 20s31 32 31 56c0 21.333 -9 38.666 -27 51.999s-43 20 -75 20c-75.333 0 -143 -18.667 -203 -56v193
c82.667 38 168 57 256 57c98 0 174.833 -19.667 230.5 -59s83.5 -94 83.5 -164c0 -49.333 -12.667 -90.5 -38 -123.5s-60 -55.5 -104 -67.5v-4c51.333 -10.667 92.166 -34 122.499 -70s45.5 -79.333 45.5 -130z" />
    <glyph glyph-name="questiondown" unicode="&#xbf;" horiz-adv-x="866" 
d="M721 846c0 -58.667 -21.499 -106.167 -64.499 -142.5s-100.833 -54.5 -173.5 -54.5c-70.667 0 -127.834 18.167 -171.501 54.5s-65.5 83.833 -65.5 142.5c0 59.333 21.5 108 64.5 146s100.5 57 172.5 57c70.667 0 128 -19.5 172 -58.5s66 -87.167 66 -144.5z
M858.001 -362c-43.333 -24.667 -102.168 -46.002 -176.501 -64.002s-140.5 -27 -198.5 -27c-163.333 0 -288 32.167 -374 96.5s-129 157.833 -129 280.5c0 148 71.667 278.333 215 391c48.667 38.667 83 72.667 103 102s30 65.666 30 108.999v35h336v-88
c0 -60 -9.33301 -113.5 -28 -160.5s-49.667 -89.167 -93 -126.5c-60.667 -51.333 -97.167 -84.166 -109.5 -98.499s-21.166 -28.666 -26.499 -42.999s-8 -31.166 -8 -50.499c0 -26.667 11.167 -48.667 33.5 -66s51.5 -26 87.5 -26c104 0 216.667 43 338 129v-393z" />
    <glyph glyph-name="Agrave" unicode="&#xc0;" horiz-adv-x="1536" 
d="M1040 0l-63 264h-428l-68 -264h-467l494 1434h536l465 -1434h-469zM768 1122h-10c-1.33301 -16 -6 -42.333 -14 -79s-48.333 -194 -121 -472h274l-100 390c-14 57.333 -23.667 111 -29 161zM716 1567l-356 321h358l299 -321h-301z" />
    <glyph glyph-name="Aacute" unicode="&#xc1;" horiz-adv-x="1536" 
d="M1040 0l-63 264h-428l-68 -264h-467l494 1434h536l465 -1434h-469zM768 1122h-10c-1.33301 -16 -6 -42.333 -14 -79s-48.333 -194 -121 -472h274l-100 390c-14 57.333 -23.667 111 -29 161zM821 1567h-301l299 321h358z" />
    <glyph glyph-name="Acircumflex" unicode="&#xc2;" horiz-adv-x="1536" 
d="M1040 0l-63 264h-428l-68 -264h-467l494 1434h536l465 -1434h-469zM768 1122h-10c-1.33301 -16 -6 -42.333 -14 -79s-48.333 -194 -121 -472h274l-100 390c-14 57.333 -23.667 111 -29 161zM914 1567l-148 153l-147 -153h-262l256 321h317l256 -321h-272z" />
    <glyph glyph-name="Atilde" unicode="&#xc3;" horiz-adv-x="1536" 
d="M1040 0l-63 264h-428l-68 -264h-467l494 1434h536l465 -1434h-469zM768 1122h-10c-1.33301 -16 -6 -42.333 -14 -79s-48.333 -194 -121 -472h274l-100 390c-14 57.333 -23.667 111 -29 161zM1159 1921c0 -110 -19.998 -194.167 -59.998 -252.5s-97.667 -87.5 -173 -87.5
c-58.667 0 -115.334 16.333 -170.001 49l-62.5 38c-19 12 -39.167 18 -60.5 18c-25.333 0 -45.333 -10.333 -60 -31s-22 -50 -22 -88h-174c0 113.333 20.5 198.333 61.5 255s96.833 85 167.5 85c68 0 131 -19.333 189 -58c19.333 -12 37.666 -22.833 54.999 -32.5
s36.333 -14.5 57 -14.5c22.667 0 41 9.83301 55 29.5s21 49.5 21 89.5h176z" />
    <glyph glyph-name="Adieresis" unicode="&#xc4;" horiz-adv-x="1536" 
d="M1040 0l-63 264h-428l-68 -264h-467l494 1434h536l465 -1434h-469zM768 1122h-10c-1.33301 -16 -6 -42.333 -14 -79s-48.333 -194 -121 -472h274l-100 390c-14 57.333 -23.667 111 -29 161zM1210 1720c0 -48.667 -17.332 -88.165 -51.999 -118.498
s-81.334 -45.5 -140.001 -45.5c-56 0 -102.167 15.5 -138.5 46.5s-54.5 70.167 -54.5 117.5s17.667 85.666 53 114.999s82 44 140 44s104.5 -14.833 139.5 -44.5s52.5 -67.834 52.5 -114.501zM709.001 1720c0 -47.333 -17.165 -86.499 -51.498 -117.499
s-81.5 -46.5 -141.5 -46.5c-56.667 0 -102.834 15.833 -138.501 47.5s-53.5 70.5 -53.5 116.5c0 47.333 17.667 85.666 53 114.999s81.666 44 138.999 44c58 0 104.667 -14.5 140 -43.5s53 -67.5 53 -115.5z" />
    <glyph glyph-name="Aring" unicode="&#xc5;" horiz-adv-x="1536" 
d="M1040 0l-63 264h-428l-68 -264h-467l494 1434c-18 36 -27 74 -27 114c0 77.333 27.167 139.333 81.5 186s124.166 70 209.499 70c90.667 0 162.834 -23.667 216.501 -71s80.5 -109 80.5 -185c0 -44.667 -8.33301 -82.667 -25 -114l465 -1434h-469zM879 1548
c0 23.333 -8.83301 43.833 -26.5 61.5s-44.5 26.5 -80.5 26.5c-32.667 0 -57.167 -8.5 -73.5 -25.5s-24.5 -37.833 -24.5 -62.5s9 -45.5 27 -62.5s41.667 -25.5 71 -25.5c32 0 57.833 8.33301 77.5 25s29.5 37.667 29.5 63zM768 1106l-10.001 -0.000976562
c-6 -38 -10.333 -62.667 -13 -74s-40.667 -154.666 -114 -429.999h258l-94 359c-9.33301 36.667 -15.666 66.667 -18.999 90z" />
    <glyph glyph-name="AE" unicode="&#xc6;" horiz-adv-x="2030" 
d="M1040 0v264h-432l-119 -264h-501l747 1434h1198v-338h-460v-209h432v-338h-432v-211h493v-338h-926zM1040 1096h-55l-240 -525h295v525z" />
    <glyph glyph-name="Ccedilla" unicode="&#xc7;" horiz-adv-x="1290" 
d="M1208 39c-88 -33.333 -203.334 -54.0029 -346.001 -62.0029v-43c130 -9.33301 195 -68.666 195 -177.999c0 -74 -30.167 -130.667 -90.5 -170s-146.166 -59 -257.499 -59c-35.333 0 -73.666 2 -114.999 6v172c24.667 -5.33301 52 -8 82 -8c38 0 66.667 5.5 86 16.5
s29 25.167 29 42.5c0 20.667 -7.83301 35.834 -23.5 45.501s-42.167 14.5 -79.5 14.5h-18l-21 -2v172c-122.667 16.667 -228 56 -316 118s-155.333 142.5 -202 241.5s-70 211.833 -70 338.5c0 151.333 32.667 286 98 404s157.666 209.167 276.999 273.5
s256.666 96.5 411.999 96.5c124 0 244 -15 360 -45v-399c-40 24 -87.667 42.667 -143 56s-111.333 20 -168 20c-117.333 0 -209.833 -33.667 -277.5 -101s-101.5 -158.666 -101.5 -273.999c0 -114.667 33.833 -205.167 101.5 -271.5s158.167 -99.5 271.5 -99.5
c104.667 0 210.334 26.667 317.001 80v-385z" />
    <glyph glyph-name="Egrave" unicode="&#xc8;" horiz-adv-x="1130" 
d="M141 0v1434h893v-338h-461v-209h433v-338h-433v-211h494v-338h-926zM537 1567l-356 321h358l299 -321h-301z" />
    <glyph glyph-name="Eacute" unicode="&#xc9;" horiz-adv-x="1130" 
d="M141 0v1434h893v-338h-461v-209h433v-338h-433v-211h494v-338h-926zM665 1567h-301l299 321h358z" />
    <glyph glyph-name="Ecircumflex" unicode="&#xca;" horiz-adv-x="1130" 
d="M141 0v1434h893v-338h-461v-209h433v-338h-433v-211h494v-338h-926zM726 1567l-148 153l-147 -153h-262l256 321h317l256 -321h-272z" />
    <glyph glyph-name="Edieresis" unicode="&#xcb;" horiz-adv-x="1130" 
d="M141 0v1434h893v-338h-461v-209h433v-338h-433v-211h494v-338h-926zM1028 1720c0 -48.667 -17.332 -88.165 -51.999 -118.498s-81.334 -45.5 -140.001 -45.5c-56 0 -102.167 15.5 -138.5 46.5s-54.5 70.167 -54.5 117.5s17.667 85.666 53 114.999s82 44 140 44
s104.5 -14.833 139.5 -44.5s52.5 -67.834 52.5 -114.501zM527.001 1720c0 -47.333 -17.165 -86.499 -51.498 -117.499s-81.5 -46.5 -141.5 -46.5c-56.667 0 -102.834 15.833 -138.501 47.5s-53.5 70.5 -53.5 116.5c0 47.333 17.667 85.666 53 114.999s81.666 44 138.999 44
c58 0 104.667 -14.5 140 -43.5s53 -67.5 53 -115.5z" />
    <glyph glyph-name="Igrave" unicode="&#xcc;" horiz-adv-x="714" 
d="M141 0v1434h432v-1434h-432zM337 1567l-356 321h358l299 -321h-301z" />
    <glyph glyph-name="Iacute" unicode="&#xcd;" horiz-adv-x="714" 
d="M141 0v1434h432v-1434h-432zM441 1567h-301l299 321h358z" />
    <glyph glyph-name="Icircumflex" unicode="&#xce;" horiz-adv-x="772" 
d="M141 0v1434h432v-1434h-432zM532 1567l-148 153l-147 -153h-262l256 321h317l256 -321h-272z" />
    <glyph glyph-name="Idieresis" unicode="&#xcf;" horiz-adv-x="772" 
d="M141 0v1434h432v-1434h-432zM832 1720c0 -48.667 -17.332 -88.165 -51.999 -118.498s-81.334 -45.5 -140.001 -45.5c-56 0 -102.167 15.5 -138.5 46.5s-54.5 70.167 -54.5 117.5s17.667 85.666 53 114.999s82 44 140 44s104.5 -14.833 139.5 -44.5
s52.5 -67.834 52.5 -114.501zM331.001 1720c0 -47.333 -17.165 -86.499 -51.498 -117.499s-81.5 -46.5 -141.5 -46.5c-56.667 0 -102.834 15.833 -138.501 47.5s-53.5 70.5 -53.5 116.5c0 47.333 17.667 85.666 53 114.999s81.666 44 138.999 44
c58 0 104.667 -14.5 140 -43.5s53 -67.5 53 -115.5z" />
    <glyph glyph-name="Eth" unicode="&#xd0;" horiz-adv-x="1554" 
d="M1493 735c0 -145.333 -30.5 -273.832 -91.5 -385.499s-148.167 -197.834 -261.5 -258.501s-244 -91 -392 -91h-607v549h-166v338h166v547h594c505.333 0 758 -233 758 -699zM1034 731.001c0 70 -14.167 133 -42.5 189s-68.833 99.333 -121.5 130s-114.667 46 -186 46
h-111v-209h240v-338h-240v-211h121c103.333 0 185.833 35.5 247.5 106.5s92.5 166.5 92.5 286.5z" />
    <glyph glyph-name="Ntilde" unicode="&#xd1;" horiz-adv-x="1663" 
d="M1143 0l-506 692c-40 54.667 -72.667 104 -98 148h-4c4 -70.667 6 -150 6 -238v-602h-400v1434h408l485 -658l22 -31l26 -37l24.5 -37c7.66699 -12 13.5 -22.667 17.5 -32h4c-4 29.333 -6 80 -6 152v643h400v-1434h-379zM1223 1921
c0 -110 -19.998 -194.167 -59.998 -252.5s-97.667 -87.5 -173 -87.5c-58.667 0 -115.334 16.333 -170.001 49l-62.5 38c-19 12 -39.167 18 -60.5 18c-25.333 0 -45.333 -10.333 -60 -31s-22 -50 -22 -88h-174c0 113.333 20.5 198.333 61.5 255s96.833 85 167.5 85
c68 0 131 -19.333 189 -58c19.333 -12 37.666 -22.833 54.999 -32.5s36.333 -14.5 57 -14.5c22.667 0 41 9.83301 55 29.5s21 49.5 21 89.5h176z" />
    <glyph glyph-name="Ograve" unicode="&#xd2;" horiz-adv-x="1567" 
d="M1505 721c0 -144 -31 -272.833 -93 -386.5s-148.667 -202 -260 -265s-236 -94.5 -374 -94.5c-134.667 0 -257.167 30.5 -367.5 91.5s-196.166 146.667 -257.499 257s-92 235.166 -92 374.499c0 146 31 277.333 93 394s149 206.834 261 270.501s239.333 95.5 382 95.5
c137.333 0 260.166 -30.5 368.499 -91.5s192 -148 251 -261s88.5 -241.167 88.5 -384.5zM1047 709c0 118 -22.667 210.999 -68 278.999s-107.333 102 -186 102c-86 0 -153 -32.667 -201 -98s-72 -157.666 -72 -276.999c0 -116.667 23.833 -207.667 71.5 -273
s112.5 -98 194.5 -98c50 0 95 14.667 135 44s71 71.333 93 126s33 119.667 33 195zM727 1567l-356 321h358l299 -321h-301z" />
    <glyph glyph-name="Oacute" unicode="&#xd3;" horiz-adv-x="1567" 
d="M1505 721c0 -144 -31 -272.833 -93 -386.5s-148.667 -202 -260 -265s-236 -94.5 -374 -94.5c-134.667 0 -257.167 30.5 -367.5 91.5s-196.166 146.667 -257.499 257s-92 235.166 -92 374.499c0 146 31 277.333 93 394s149 206.834 261 270.501s239.333 95.5 382 95.5
c137.333 0 260.166 -30.5 368.499 -91.5s192 -148 251 -261s88.5 -241.167 88.5 -384.5zM1047 709c0 118 -22.667 210.999 -68 278.999s-107.333 102 -186 102c-86 0 -153 -32.667 -201 -98s-72 -157.666 -72 -276.999c0 -116.667 23.833 -207.667 71.5 -273
s112.5 -98 194.5 -98c50 0 95 14.667 135 44s71 71.333 93 126s33 119.667 33 195zM830 1567h-301l299 321h358z" />
    <glyph glyph-name="Ocircumflex" unicode="&#xd4;" horiz-adv-x="1567" 
d="M1505 721c0 -144 -31 -272.833 -93 -386.5s-148.667 -202 -260 -265s-236 -94.5 -374 -94.5c-134.667 0 -257.167 30.5 -367.5 91.5s-196.166 146.667 -257.499 257s-92 235.166 -92 374.499c0 146 31 277.333 93 394s149 206.834 261 270.501s239.333 95.5 382 95.5
c137.333 0 260.166 -30.5 368.499 -91.5s192 -148 251 -261s88.5 -241.167 88.5 -384.5zM1047 709c0 118 -22.667 210.999 -68 278.999s-107.333 102 -186 102c-86 0 -153 -32.667 -201 -98s-72 -157.666 -72 -276.999c0 -116.667 23.833 -207.667 71.5 -273
s112.5 -98 194.5 -98c50 0 95 14.667 135 44s71 71.333 93 126s33 119.667 33 195zM930 1567l-148 153l-147 -153h-262l256 321h317l256 -321h-272z" />
    <glyph glyph-name="Otilde" unicode="&#xd5;" horiz-adv-x="1567" 
d="M1505 721c0 -144 -31 -272.833 -93 -386.5s-148.667 -202 -260 -265s-236 -94.5 -374 -94.5c-134.667 0 -257.167 30.5 -367.5 91.5s-196.166 146.667 -257.499 257s-92 235.166 -92 374.499c0 146 31 277.333 93 394s149 206.834 261 270.501s239.333 95.5 382 95.5
c137.333 0 260.166 -30.5 368.499 -91.5s192 -148 251 -261s88.5 -241.167 88.5 -384.5zM1047 709c0 118 -22.667 210.999 -68 278.999s-107.333 102 -186 102c-86 0 -153 -32.667 -201 -98s-72 -157.666 -72 -276.999c0 -116.667 23.833 -207.667 71.5 -273
s112.5 -98 194.5 -98c50 0 95 14.667 135 44s71 71.333 93 126s33 119.667 33 195zM1179 1921c0 -110 -19.998 -194.167 -59.998 -252.5s-97.667 -87.5 -173 -87.5c-58.667 0 -115.334 16.333 -170.001 49l-62.5 38c-19 12 -39.167 18 -60.5 18
c-25.333 0 -45.333 -10.333 -60 -31s-22 -50 -22 -88h-174c0 113.333 20.5 198.333 61.5 255s96.833 85 167.5 85c68 0 131 -19.333 189 -58c19.333 -12 37.666 -22.833 54.999 -32.5s36.333 -14.5 57 -14.5c22.667 0 41 9.83301 55 29.5s21 49.5 21 89.5h176z" />
    <glyph glyph-name="Odieresis" unicode="&#xd6;" horiz-adv-x="1567" 
d="M1505 721c0 -144 -31 -272.833 -93 -386.5s-148.667 -202 -260 -265s-236 -94.5 -374 -94.5c-134.667 0 -257.167 30.5 -367.5 91.5s-196.166 146.667 -257.499 257s-92 235.166 -92 374.499c0 146 31 277.333 93 394s149 206.834 261 270.501s239.333 95.5 382 95.5
c137.333 0 260.166 -30.5 368.499 -91.5s192 -148 251 -261s88.5 -241.167 88.5 -384.5zM1047 709c0 118 -22.667 210.999 -68 278.999s-107.333 102 -186 102c-86 0 -153 -32.667 -201 -98s-72 -157.666 -72 -276.999c0 -116.667 23.833 -207.667 71.5 -273
s112.5 -98 194.5 -98c50 0 95 14.667 135 44s71 71.333 93 126s33 119.667 33 195zM1225 1720c0 -48.667 -17.332 -88.165 -51.999 -118.498s-81.334 -45.5 -140.001 -45.5c-56 0 -102.167 15.5 -138.5 46.5s-54.5 70.167 -54.5 117.5s17.667 85.666 53 114.999
s82 44 140 44s104.5 -14.833 139.5 -44.5s52.5 -67.834 52.5 -114.501zM724.001 1720c0 -47.333 -17.165 -86.499 -51.498 -117.499s-81.5 -46.5 -141.5 -46.5c-56.667 0 -102.834 15.833 -138.501 47.5s-53.5 70.5 -53.5 116.5c0 47.333 17.667 85.666 53 114.999
s81.666 44 138.999 44c58 0 104.667 -14.5 140 -43.5s53 -67.5 53 -115.5z" />
    <glyph glyph-name="multiply" unicode="&#xd7;" horiz-adv-x="1464" 
d="M1071 66l-336 340l-336 -340l-178 176l336 333l-338 340l170 179l346 -340l344 340l164 -189l-334 -330l338 -335z" />
    <glyph glyph-name="Oslash" unicode="&#xd8;" horiz-adv-x="1567" 
d="M1505 721c0 -144 -31 -272.834 -93 -386.501s-148.667 -202 -260 -265s-236 -94.5 -374 -94.5c-152 0 -288.333 39 -409 117l-146 -164l-160 133l150 172c-101.333 128.667 -152 283.667 -152 465c0 146 31 277.333 93 394s149 206.834 261 270.501
s239.333 95.5 382 95.5c153.333 0 287 -37.333 401 -112l127 143l162 -133l-133 -152c100.667 -130 151 -291 151 -483zM1094 706.999c0 57.333 -3.66699 122 -11 194l-481 -547c54.667 -40.667 116.667 -61 186 -61c56 0 107.667 17.167 155 51.5s84.333 82.333 111 144
s40 134.5 40 218.5zM969 1083c-52.667 38.667 -110.667 58 -174 58c-100 0 -178.667 -39.833 -236 -119.5s-86 -186.167 -86 -319.5c0 -64.667 3.33301 -119.667 10 -165z" />
    <glyph glyph-name="Ugrave" unicode="&#xd9;" horiz-adv-x="1516" 
d="M1391 655c0 -230 -52.501 -400.834 -157.501 -512.501s-266.833 -167.5 -485.5 -167.5c-204 0 -358.833 55.833 -464.5 167.5s-158.5 279.834 -158.5 504.501v787h434v-803c0 -92 17.167 -162.833 51.5 -212.5s83.5 -74.5 147.5 -74.5
c64.667 0 113.834 23.333 147.501 70s50.5 115.667 50.5 207v813h435v-779zM705.999 1567l-356 321h358l299 -321h-301z" />
    <glyph glyph-name="Uacute" unicode="&#xda;" horiz-adv-x="1516" 
d="M1391 655c0 -230 -52.501 -400.834 -157.501 -512.501s-266.833 -167.5 -485.5 -167.5c-204 0 -358.833 55.833 -464.5 167.5s-158.5 279.834 -158.5 504.501v787h434v-803c0 -92 17.167 -162.833 51.5 -212.5s83.5 -74.5 147.5 -74.5
c64.667 0 113.834 23.333 147.501 70s50.5 115.667 50.5 207v813h435v-779zM810.999 1567h-301l299 321h358z" />
    <glyph glyph-name="Ucircumflex" unicode="&#xdb;" horiz-adv-x="1516" 
d="M1391 655c0 -230 -52.501 -400.834 -157.501 -512.501s-266.833 -167.5 -485.5 -167.5c-204 0 -358.833 55.833 -464.5 167.5s-158.5 279.834 -158.5 504.501v787h434v-803c0 -92 17.167 -162.833 51.5 -212.5s83.5 -74.5 147.5 -74.5
c64.667 0 113.834 23.333 147.501 70s50.5 115.667 50.5 207v813h435v-779zM900.999 1567l-148 153l-147 -153h-262l256 321h317l256 -321h-272z" />
    <glyph glyph-name="Udieresis" unicode="&#xdc;" horiz-adv-x="1516" 
d="M1391 655c0 -230 -52.501 -400.834 -157.501 -512.501s-266.833 -167.5 -485.5 -167.5c-204 0 -358.833 55.833 -464.5 167.5s-158.5 279.834 -158.5 504.501v787h434v-803c0 -92 17.167 -162.833 51.5 -212.5s83.5 -74.5 147.5 -74.5
c64.667 0 113.834 23.333 147.501 70s50.5 115.667 50.5 207v813h435v-779zM1200 1720c0 -48.667 -17.332 -88.165 -51.999 -118.498s-81.334 -45.5 -140.001 -45.5c-56 0 -102.167 15.5 -138.5 46.5s-54.5 70.167 -54.5 117.5s17.667 85.666 53 114.999s82 44 140 44
s104.5 -14.833 139.5 -44.5s52.5 -67.834 52.5 -114.501zM699 1720c0 -47.333 -17.165 -86.499 -51.498 -117.499s-81.5 -46.5 -141.5 -46.5c-56.667 0 -102.834 15.833 -138.501 47.5s-53.5 70.5 -53.5 116.5c0 47.333 17.667 85.666 53 114.999s81.666 44 138.999 44
c58 0 104.667 -14.5 140 -43.5s53 -67.5 53 -115.5z" />
    <glyph glyph-name="Yacute" unicode="&#xdd;" horiz-adv-x="1331" 
d="M874 498v-497.999h-432v492l-442 942h496l155 -451c10.667 -30.667 18.167 -57.334 22.5 -80.001s9.16602 -45.667 14.499 -69h4c8.66699 60.667 18.334 107.667 29.001 141l153 459h457zM738 1534h-301l299 321h358z" />
    <glyph glyph-name="Thorn" unicode="&#xde;" horiz-adv-x="1343" 
d="M1313 758c0 -98 -24.833 -185 -74.5 -261s-120.5 -134.833 -212.5 -176.5s-199 -62.5 -321 -62.5h-132v-258h-432v1434h432v-203h156c202 0 349.833 -38.333 443.5 -115s140.5 -196 140.5 -358zM856 743c0 58.667 -16.832 103.167 -50.499 133.5
s-83.834 45.5 -150.501 45.5h-82v-355h97c124 0 186 58.667 186 176z" />
    <glyph glyph-name="germandbls" unicode="&#xdf;" horiz-adv-x="1417" 
d="M1360 416c0 -84 -22.998 -160.835 -68.998 -230.502s-107.667 -122.167 -185 -157.5s-166 -53 -266 -53c-33.333 0 -66.333 1.83301 -99 5.5s-77 12.834 -133 27.501v330c58.667 -34 116 -51 172 -51c50 0 87.167 13.333 111.5 40s36.5 63 36.5 109
c0 58 -28 102.833 -84 134.5s-134.667 47.5 -236 47.5v283c65.333 0 117.5 13.833 156.5 41.5s58.5 71.834 58.5 132.501c0 43.333 -12.833 79.833 -38.5 109.5s-59.834 44.5 -102.501 44.5c-49.333 0 -87.333 -18.5 -114 -55.5s-40 -86.833 -40 -149.5v-1024h-426v989
c0 111.333 23.5 208.333 70.5 291s115.667 146.667 206 192s199.833 68 328.5 68c112 0 209.167 -18.5 291.5 -55.5s145.666 -88.167 189.999 -153.5s66.5 -137.666 66.5 -216.999c0 -76 -21 -142.167 -63 -198.5s-99.333 -95.833 -172 -118.5v-4
c106 -22.667 189.167 -66.334 249.5 -131.001s90.5 -146.667 90.5 -246z" />
    <glyph glyph-name="agrave" unicode="&#xe0;" horiz-adv-x="1149" 
d="M670 0l0.00292969 156.001h-4c-68 -120.667 -172 -181 -312 -181c-96.667 0 -172.334 28.667 -227.001 86s-82 134 -82 230c0 201.333 123.667 318 371 350l254 33c0 33.333 -15 60.666 -45 81.999s-70.333 32 -121 32c-114.667 0 -235.667 -32.667 -363 -98v277
c55.333 24 124.666 43.667 207.999 59s154.666 23 213.999 23c174 0 300.167 -37.167 378.5 -111.5s117.5 -198.5 117.5 -372.5v-565h-389zM418.003 348.001c0 -28 8.83105 -51 26.498 -69s42.834 -27 75.501 -27c44.667 0 80.834 16.667 108.501 50s41.5 76 41.5 128v39
l-144 -20c-72 -12 -108 -45.667 -108 -101zM500.001 1186l-356 321h358l299 -321h-301z" />
    <glyph glyph-name="aacute" unicode="&#xe1;" horiz-adv-x="1149" 
d="M670 0l0.00292969 156.001h-4c-68 -120.667 -172 -181 -312 -181c-96.667 0 -172.334 28.667 -227.001 86s-82 134 -82 230c0 201.333 123.667 318 371 350l254 33c0 33.333 -15 60.666 -45 81.999s-70.333 32 -121 32c-114.667 0 -235.667 -32.667 -363 -98v277
c55.333 24 124.666 43.667 207.999 59s154.666 23 213.999 23c174 0 300.167 -37.167 378.5 -111.5s117.5 -198.5 117.5 -372.5v-565h-389zM418.003 348.001c0 -28 8.83105 -51 26.498 -69s42.834 -27 75.501 -27c44.667 0 80.834 16.667 108.501 50s41.5 76 41.5 128v39
l-144 -20c-72 -12 -108 -45.667 -108 -101zM607.001 1186h-301l299 321h358z" />
    <glyph glyph-name="acircumflex" unicode="&#xe2;" horiz-adv-x="1149" 
d="M670 0l0.00292969 156.001h-4c-68 -120.667 -172 -181 -312 -181c-96.667 0 -172.334 28.667 -227.001 86s-82 134 -82 230c0 201.333 123.667 318 371 350l254 33c0 33.333 -15 60.666 -45 81.999s-70.333 32 -121 32c-114.667 0 -235.667 -32.667 -363 -98v277
c55.333 24 124.666 43.667 207.999 59s154.666 23 213.999 23c174 0 300.167 -37.167 378.5 -111.5s117.5 -198.5 117.5 -372.5v-565h-389zM418.003 348.001c0 -28 8.83105 -51 26.498 -69s42.834 -27 75.501 -27c44.667 0 80.834 16.667 108.501 50s41.5 76 41.5 128v39
l-144 -20c-72 -12 -108 -45.667 -108 -101zM725.001 1186l-148 153l-147 -153h-262l256 321h317l256 -321h-272z" />
    <glyph glyph-name="atilde" unicode="&#xe3;" horiz-adv-x="1149" 
d="M670 0l0.00292969 156.001h-4c-68 -120.667 -172 -181 -312 -181c-96.667 0 -172.334 28.667 -227.001 86s-82 134 -82 230c0 201.333 123.667 318 371 350l254 33c0 33.333 -15 60.666 -45 81.999s-70.333 32 -121 32c-114.667 0 -235.667 -32.667 -363 -98v277
c55.333 24 124.666 43.667 207.999 59s154.666 23 213.999 23c174 0 300.167 -37.167 378.5 -111.5s117.5 -198.5 117.5 -372.5v-565h-389zM418.003 348.001c0 -28 8.83105 -51 26.498 -69s42.834 -27 75.501 -27c44.667 0 80.834 16.667 108.501 50s41.5 76 41.5 128v39
l-144 -20c-72 -12 -108 -45.667 -108 -101zM970.001 1540c0 -110 -19.998 -194.167 -59.998 -252.5s-97.667 -87.5 -173 -87.5c-58.667 0 -115.334 16.333 -170.001 49l-62.5 38c-19 12 -39.167 18 -60.5 18c-25.333 0 -45.333 -10.333 -60 -31s-22 -50 -22 -88h-174
c0 113.333 20.5 198.333 61.5 255s96.833 85 167.5 85c68 0 131 -19.333 189 -58c19.333 -12 37.666 -22.833 54.999 -32.5s36.333 -14.5 57 -14.5c22.667 0 41 9.83301 55 29.5s21 49.5 21 89.5h176z" />
    <glyph glyph-name="adieresis" unicode="&#xe4;" horiz-adv-x="1149" 
d="M670 0l0.00292969 156.001h-4c-68 -120.667 -172 -181 -312 -181c-96.667 0 -172.334 28.667 -227.001 86s-82 134 -82 230c0 201.333 123.667 318 371 350l254 33c0 33.333 -15 60.666 -45 81.999s-70.333 32 -121 32c-114.667 0 -235.667 -32.667 -363 -98v277
c55.333 24 124.666 43.667 207.999 59s154.666 23 213.999 23c174 0 300.167 -37.167 378.5 -111.5s117.5 -198.5 117.5 -372.5v-565h-389zM418.003 348.001c0 -28 8.83105 -51 26.498 -69s42.834 -27 75.501 -27c44.667 0 80.834 16.667 108.501 50s41.5 76 41.5 128v39
l-144 -20c-72 -12 -108 -45.667 -108 -101zM1017 1339c0 -48.667 -17.332 -88.165 -51.999 -118.498s-81.334 -45.5 -140.001 -45.5c-56 0 -102.167 15.5 -138.5 46.5s-54.5 70.167 -54.5 117.5s17.667 85.666 53 114.999s82 44 140 44s104.5 -14.833 139.5 -44.5
s52.5 -67.834 52.5 -114.501zM516.002 1339c0 -47.333 -17.165 -86.499 -51.498 -117.499s-81.5 -46.5 -141.5 -46.5c-56.667 0 -102.834 15.833 -138.501 47.5s-53.5 70.5 -53.5 116.5c0 47.333 17.667 85.666 53 114.999s81.666 44 138.999 44
c58 0 104.667 -14.5 140 -43.5s53 -67.5 53 -115.5z" />
    <glyph glyph-name="aring" unicode="&#xe5;" horiz-adv-x="1149" 
d="M670 0l0.00292969 156.001h-4c-68 -120.667 -172 -181 -312 -181c-96.667 0 -172.334 28.667 -227.001 86s-82 134 -82 230c0 201.333 123.667 318 371 350l254 33c0 33.333 -15 60.666 -45 81.999s-70.333 32 -121 32c-114.667 0 -235.667 -32.667 -363 -98v277
c55.333 24 124.666 43.667 207.999 59s154.666 23 213.999 23c174 0 300.167 -37.167 378.5 -111.5s117.5 -198.5 117.5 -372.5v-565h-389zM418.003 348.001c0 -28 8.83105 -51 26.498 -69s42.834 -27 75.501 -27c44.667 0 80.834 16.667 108.501 50s41.5 76 41.5 128v39
l-144 -20c-72 -12 -108 -45.667 -108 -101zM846.001 1421c0 -70.667 -25.167 -127.5 -75.5 -170.5s-115.5 -64.5 -195.5 -64.5c-76.667 0 -139.834 21.833 -189.501 65.5s-74.5 100.167 -74.5 169.5c0 48 11.5 89.5 34.5 124.5s54.833 62 95.5 81s85.334 28.5 134.001 28.5
c82.667 0 148.5 -21.5 197.5 -64.5s73.5 -99.5 73.5 -169.5zM672.001 1421c0 21.333 -7.83301 40 -23.5 56s-40.167 24 -73.5 24c-30 0 -52.5 -7.66699 -67.5 -23s-22.5 -34.333 -22.5 -57s8.5 -41.667 25.5 -57s38.5 -23 64.5 -23c28 0 51.167 7.5 69.5 22.5
s27.5 34.167 27.5 57.5z" />
    <glyph glyph-name="ae" unicode="&#xe6;" horiz-adv-x="1716" 
d="M1038 391c20.667 -94 104.001 -141 250.001 -141c99.333 0 194.333 19.667 285 59v-270c-108.667 -42.667 -240.334 -64 -395.001 -64c-88.667 0 -169.5 13.667 -242.5 41s-130.167 64.333 -171.5 111h-4c-95.333 -101.333 -210 -152 -344 -152
c-120.667 0 -212.667 28.167 -276 84.5s-95 135.5 -95 237.5c0 97.333 32 175.833 96 235.5s154.333 95.167 271 106.5l258 25c0 39.333 -15 69.833 -45 91.5s-71 32.5 -123 32.5c-54 0 -113 -8.5 -177 -25.5s-125.333 -41.167 -184 -72.5v277
c63.333 24 132.333 43.667 207 59s137 23 187 23c137.333 0 251.333 -31 342 -93h4c99.333 62 201.666 93 306.999 93c146.667 0 263.834 -45.5 351.501 -136.5s131.5 -213.5 131.5 -367.5v-154h-633zM1294 614c0 118 -42.334 177.001 -127.001 177.001
c-35.333 0 -65.666 -17.333 -90.999 -52s-38 -76.334 -38 -125.001h256zM668 459.001l-137.999 -10c-36.667 -3.33301 -64.834 -14.5 -84.501 -33.5s-29.5 -42.167 -29.5 -69.5c0 -26.667 10 -49 30 -67s45.333 -27 76 -27c43.333 0 78.5 16.333 105.5 49
s40.5 73.667 40.5 123v35z" />
    <glyph glyph-name="ccedilla" unicode="&#xe7;" horiz-adv-x="1014" 
d="M946 29c-56 -33.333 -161.333 -51.3369 -316 -54.0039v-41c130 -9.33301 195 -68.666 195 -177.999c0 -74 -30.167 -130.667 -90.5 -170s-146.166 -59 -257.499 -59c-36 0 -74.333 2 -115 6v172c24.667 -5.33301 52 -8 82 -8c38 0 66.667 5.5 86 16.5s29 25.167 29 42.5
c0 20.667 -7.66699 35.834 -23 45.501s-42 14.5 -80 14.5h-18l-21 -2v189c-112.667 34.667 -200.834 95.334 -264.501 182.001s-95.5 188 -95.5 304c0 117.333 24.833 217.833 74.5 301.5s120.5 147.667 212.5 192s198.667 66.5 320 66.5c66.667 0 126.5 -4.33301 179.5 -13
s87.167 -18.667 102.5 -30v-332c-21.333 16.667 -52 31.334 -92 44.001s-77 19 -111 19c-84 0 -147.333 -19.667 -190 -59s-64 -95.333 -64 -168c0 -70.667 21 -125.5 63 -164.5s100.333 -58.5 175 -58.5c79.333 0 152.333 19 219 57v-315z" />
    <glyph glyph-name="egrave" unicode="&#xe8;" horiz-adv-x="1147" 
d="M469 391c7.33301 -44 32.666 -78.5 75.999 -103.5s100.666 -37.5 171.999 -37.5c99.333 0 193.333 19 282 57v-270c-103.333 -41.333 -228.666 -62 -375.999 -62c-178.667 0 -317.667 45.667 -417 137s-149 217 -149 377c0 110 21.833 207 65.5 291
s108.334 149.833 194.001 197.5s180.167 71.5 283.5 71.5c106 0 196.667 -20.667 272 -62s132.5 -99.333 171.5 -174s58.5 -162 58.5 -262v-160h-633zM725 614c0 118 -42.333 176.999 -127 176.999c-35.333 0 -65 -16.167 -89 -48.5s-38 -75.166 -42 -128.499h258zM511 1186
l-356 321h358l299 -321h-301z" />
    <glyph glyph-name="eacute" unicode="&#xe9;" horiz-adv-x="1147" 
d="M469 391c7.33301 -44 32.666 -78.5 75.999 -103.5s100.666 -37.5 171.999 -37.5c99.333 0 193.333 19 282 57v-270c-103.333 -41.333 -228.666 -62 -375.999 -62c-178.667 0 -317.667 45.667 -417 137s-149 217 -149 377c0 110 21.833 207 65.5 291
s108.334 149.833 194.001 197.5s180.167 71.5 283.5 71.5c106 0 196.667 -20.667 272 -62s132.5 -99.333 171.5 -174s58.5 -162 58.5 -262v-160h-633zM725 614c0 118 -42.333 176.999 -127 176.999c-35.333 0 -65 -16.167 -89 -48.5s-38 -75.166 -42 -128.499h258zM646 1186
h-301l299 321h358z" />
    <glyph glyph-name="ecircumflex" unicode="&#xea;" horiz-adv-x="1147" 
d="M469 391c7.33301 -44 32.666 -78.5 75.999 -103.5s100.666 -37.5 171.999 -37.5c99.333 0 193.333 19 282 57v-270c-103.333 -41.333 -228.666 -62 -375.999 -62c-178.667 0 -317.667 45.667 -417 137s-149 217 -149 377c0 110 21.833 207 65.5 291
s108.334 149.833 194.001 197.5s180.167 71.5 283.5 71.5c106 0 196.667 -20.667 272 -62s132.5 -99.333 171.5 -174s58.5 -162 58.5 -262v-160h-633zM725 614c0 118 -42.333 176.999 -127 176.999c-35.333 0 -65 -16.167 -89 -48.5s-38 -75.166 -42 -128.499h258zM733 1186
l-148 153l-147 -153h-262l256 321h317l256 -321h-272z" />
    <glyph glyph-name="edieresis" unicode="&#xeb;" horiz-adv-x="1147" 
d="M469 391c7.33301 -44 32.666 -78.5 75.999 -103.5s100.666 -37.5 171.999 -37.5c99.333 0 193.333 19 282 57v-270c-103.333 -41.333 -228.666 -62 -375.999 -62c-178.667 0 -317.667 45.667 -417 137s-149 217 -149 377c0 110 21.833 207 65.5 291
s108.334 149.833 194.001 197.5s180.167 71.5 283.5 71.5c106 0 196.667 -20.667 272 -62s132.5 -99.333 171.5 -174s58.5 -162 58.5 -262v-160h-633zM725 614c0 118 -42.333 176.999 -127 176.999c-35.333 0 -65 -16.167 -89 -48.5s-38 -75.166 -42 -128.499h258z
M1035 1339c0 -48.667 -17.332 -88.165 -51.999 -118.498s-81.334 -45.5 -140.001 -45.5c-56 0 -102.167 15.5 -138.5 46.5s-54.5 70.167 -54.5 117.5s17.667 85.666 53 114.999s82 44 140 44s104.5 -14.833 139.5 -44.5s52.5 -67.834 52.5 -114.501zM534.001 1339
c0 -47.333 -17.165 -86.499 -51.498 -117.499s-81.5 -46.5 -141.5 -46.5c-56.667 0 -102.834 15.833 -138.501 47.5s-53.5 70.5 -53.5 116.5c0 47.333 17.667 85.666 53 114.999s81.666 44 138.999 44c58 0 104.667 -14.5 140 -43.5s53 -67.5 53 -115.5z" />
    <glyph glyph-name="igrave" unicode="&#xec;" horiz-adv-x="631" 
d="M102 0v1024h426v-1024h-426zM264 1186l-356 321h358l299 -321h-301z" />
    <glyph glyph-name="iacute" unicode="&#xed;" horiz-adv-x="631" 
d="M102 0v1024h426v-1024h-426zM368 1186h-301l299 321h358z" />
    <glyph glyph-name="icircumflex" unicode="&#xee;" horiz-adv-x="631" 
d="M102 0v1024h426v-1024h-426zM463 1186l-148 153l-147 -153h-262l256 321h317l256 -321h-272z" />
    <glyph glyph-name="idieresis" unicode="&#xef;" horiz-adv-x="631" 
d="M102 0v1024h426v-1024h-426zM758 1339c0 -48.667 -17.332 -88.165 -51.999 -118.498s-81.334 -45.5 -140.001 -45.5c-56 0 -102.167 15.5 -138.5 46.5s-54.5 70.167 -54.5 117.5s17.667 85.666 53 114.999s82 44 140 44s104.5 -14.833 139.5 -44.5
s52.5 -67.834 52.5 -114.501zM257.001 1339c0 -47.333 -17.165 -86.499 -51.498 -117.499s-81.5 -46.5 -141.5 -46.5c-56.667 0 -102.834 15.833 -138.501 47.5s-53.5 70.5 -53.5 116.5c0 47.333 17.667 85.666 53 114.999s81.666 44 138.999 44
c58 0 104.667 -14.5 140 -43.5s53 -67.5 53 -115.5z" />
    <glyph glyph-name="eth" unicode="&#xf0;" horiz-adv-x="1278" 
d="M1221 590c0 -120 -24.8311 -227.001 -74.498 -321.001s-119.334 -166.5 -209.001 -217.5s-191.834 -76.5 -306.501 -76.5c-180 0 -320.667 48.833 -422 146.5s-152 233.167 -152 406.5c0 97.333 20.333 184.5 61 261.5s97.834 137 171.501 180s155.5 64.5 245.5 64.5
c35.333 0 71.666 -6.66699 108.999 -20s71 -32.666 101 -57.999l5 2c-54 90 -121 165.333 -201 226l-285 -137l-102 167l221 103l-272 199h438l102 -70l262 127l91 -168l-177 -86c126.667 -91.333 224 -199.833 292 -325.5s102 -260.167 102 -403.5zM788.002 527.999
c0 142 -49 213 -147 213c-47.333 0 -84.5 -19.667 -111.5 -59s-40.5 -92.666 -40.5 -159.999c0 -78.667 13.667 -136.834 41 -174.501s63 -56.5 107 -56.5c48 0 85.167 20 111.5 60s39.5 99 39.5 177z" />
    <glyph glyph-name="ntilde" unicode="&#xf1;" horiz-adv-x="1282" 
d="M766 0l0.00195312 559.001c0 63.333 -9.5 108.833 -28.5 136.5s-49.833 41.5 -92.5 41.5c-36.667 0 -65.334 -14.333 -86.001 -43s-31 -65.334 -31 -110.001v-584h-426v1024h426v-160h4c34 58.667 79.667 104.167 137 136.5s119.666 48.5 186.999 48.5
c224 0 336 -141.333 336 -424v-625h-426zM1032 1540c0 -110 -19.998 -194.167 -59.998 -252.5s-97.667 -87.5 -173 -87.5c-58.667 0 -115.334 16.333 -170.001 49l-62.5 38c-19 12 -39.167 18 -60.5 18c-25.333 0 -45.333 -10.333 -60 -31s-22 -50 -22 -88h-174
c0 113.333 20.5 198.333 61.5 255s96.833 85 167.5 85c68 0 131 -19.333 189 -58c19.333 -12 37.666 -22.833 54.999 -32.5s36.333 -14.5 57 -14.5c22.667 0 41 9.83301 55 29.5s21 49.5 21 89.5h176z" />
    <glyph glyph-name="ograve" unicode="&#xf2;" horiz-adv-x="1298" 
d="M1241 530c0 -172.667 -52.168 -308.332 -156.501 -406.999s-250.166 -148 -437.499 -148c-186 0 -330.833 48.167 -434.5 144.5s-155.5 229.166 -155.5 398.499c0 108.667 24.333 203 73 283s118 141.333 208 184s193.667 64 311 64c121.333 0 226.5 -22.333 315.5 -67
s157.333 -106.667 205 -186s71.5 -168 71.5 -266zM808.999 528.002c0 139.333 -53.333 209 -160 209s-160 -73 -160 -219c0 -154 54 -231 162 -231c105.333 0 158 80.333 158 241zM596.999 1186l-356 321h358l299 -321h-301z" />
    <glyph glyph-name="oacute" unicode="&#xf3;" horiz-adv-x="1298" 
d="M1241 530c0 -172.667 -52.168 -308.332 -156.501 -406.999s-250.166 -148 -437.499 -148c-186 0 -330.833 48.167 -434.5 144.5s-155.5 229.166 -155.5 398.499c0 108.667 24.333 203 73 283s118 141.333 208 184s193.667 64 311 64c121.333 0 226.5 -22.333 315.5 -67
s157.333 -106.667 205 -186s71.5 -168 71.5 -266zM808.999 528.002c0 139.333 -53.333 209 -160 209s-160 -73 -160 -219c0 -154 54 -231 162 -231c105.333 0 158 80.333 158 241zM701.999 1186h-301l299 321h358z" />
    <glyph glyph-name="ocircumflex" unicode="&#xf4;" horiz-adv-x="1298" 
d="M1241 530c0 -172.667 -52.168 -308.332 -156.501 -406.999s-250.166 -148 -437.499 -148c-186 0 -330.833 48.167 -434.5 144.5s-155.5 229.166 -155.5 398.499c0 108.667 24.333 203 73 283s118 141.333 208 184s193.667 64 311 64c121.333 0 226.5 -22.333 315.5 -67
s157.333 -106.667 205 -186s71.5 -168 71.5 -266zM808.999 528.002c0 139.333 -53.333 209 -160 209s-160 -73 -160 -219c0 -154 54 -231 162 -231c105.333 0 158 80.333 158 241zM794.999 1186l-148 153l-147 -153h-262l256 321h317l256 -321h-272z" />
    <glyph glyph-name="otilde" unicode="&#xf5;" horiz-adv-x="1298" 
d="M1241 530c0 -172.667 -52.168 -308.332 -156.501 -406.999s-250.166 -148 -437.499 -148c-186 0 -330.833 48.167 -434.5 144.5s-155.5 229.166 -155.5 398.499c0 108.667 24.333 203 73 283s118 141.333 208 184s193.667 64 311 64c121.333 0 226.5 -22.333 315.5 -67
s157.333 -106.667 205 -186s71.5 -168 71.5 -266zM808.999 528.002c0 139.333 -53.333 209 -160 209s-160 -73 -160 -219c0 -154 54 -231 162 -231c105.333 0 158 80.333 158 241zM1040 1540c0 -110 -19.998 -194.167 -59.998 -252.5s-97.667 -87.5 -173 -87.5
c-58.667 0 -115.334 16.333 -170.001 49l-62.5 38c-19 12 -39.167 18 -60.5 18c-25.333 0 -45.333 -10.333 -60 -31s-22 -50 -22 -88h-174c0 113.333 20.5 198.333 61.5 255s96.833 85 167.5 85c68 0 131 -19.333 189 -58c19.333 -12 37.666 -22.833 54.999 -32.5
s36.333 -14.5 57 -14.5c22.667 0 41 9.83301 55 29.5s21 49.5 21 89.5h176z" />
    <glyph glyph-name="odieresis" unicode="&#xf6;" horiz-adv-x="1298" 
d="M1241 530c0 -172.667 -52.168 -308.332 -156.501 -406.999s-250.166 -148 -437.499 -148c-186 0 -330.833 48.167 -434.5 144.5s-155.5 229.166 -155.5 398.499c0 108.667 24.333 203 73 283s118 141.333 208 184s193.667 64 311 64c121.333 0 226.5 -22.333 315.5 -67
s157.333 -106.667 205 -186s71.5 -168 71.5 -266zM808.999 528.002c0 139.333 -53.333 209 -160 209s-160 -73 -160 -219c0 -154 54 -231 162 -231c105.333 0 158 80.333 158 241zM1091 1339c0 -48.667 -17.332 -88.165 -51.999 -118.498s-81.334 -45.5 -140.001 -45.5
c-56 0 -102.167 15.5 -138.5 46.5s-54.5 70.167 -54.5 117.5s17.667 85.666 53 114.999s82 44 140 44s104.5 -14.833 139.5 -44.5s52.5 -67.834 52.5 -114.501zM590 1339c0 -47.333 -17.165 -86.499 -51.498 -117.499s-81.5 -46.5 -141.5 -46.5
c-56.667 0 -102.834 15.833 -138.501 47.5s-53.5 70.5 -53.5 116.5c0 47.333 17.667 85.666 53 114.999s81.666 44 138.999 44c58 0 104.667 -14.5 140 -43.5s53 -67.5 53 -115.5z" />
    <glyph glyph-name="divide" unicode="&#xf7;" horiz-adv-x="1464" 
d="M893 983c0 -46 -15 -84.167 -45 -114.5s-67.667 -45.5 -113 -45.5c-44.667 0 -83.167 15.833 -115.5 47.5s-48.5 68.5 -48.5 110.5c0 45.333 15.5 84.333 46.5 117s70.167 49 117.5 49c46.667 0 84.667 -15.5 114 -46.5s44 -70.167 44 -117.5zM238 455v247h991v-247h-991
zM893 170c0 -46 -15 -84.166 -45 -114.499s-67.667 -45.5 -113 -45.5c-44.667 0 -83.167 15.833 -115.5 47.5s-48.5 68.5 -48.5 110.5c0 46 15.333 84.833 46 116.5s70 47.5 118 47.5c45.333 0 83 -14.833 113 -44.5s45 -68.834 45 -117.501z" />
    <glyph glyph-name="oslash" unicode="&#xf8;" horiz-adv-x="1298" 
d="M1116 862c83.333 -98.667 124.999 -211.333 124.999 -338c0 -170.667 -51.167 -304.5 -153.5 -401.5s-249.166 -145.5 -440.499 -145.5c-132 0 -244.667 26 -338 78l-133 -135l-143 125l133 135c-72.667 96 -109 209.333 -109 340c0 108.667 24.333 203 73 283
s118 141.333 208 184s193.667 64 311 64c121.333 0 227.333 -23.333 318 -70l125 125l143 -125zM749.999 762.001c-32 13.333 -65 20 -99 20c-70 0 -120.833 -22.167 -152.5 -66.5s-47.5 -108.833 -47.5 -193.5v-29l2 -26zM849.999 528.001v32.999l-2 33l-318 -320
c32.667 -18.667 73 -28 121 -28c64.667 0 114 23.833 148 71.5s51 117.834 51 210.501z" />
    <glyph glyph-name="ugrave" unicode="&#xf9;" horiz-adv-x="1282" 
d="M754 0l-0.000976562 158.001h-4c-35.333 -48.667 -67.166 -84.334 -95.499 -107.001s-60.333 -41 -96 -55s-77.167 -21 -124.5 -21c-112 0 -197.333 36.333 -256 109s-88 180 -88 322v618h426v-586c0 -100.667 37.667 -151 113 -151c41.333 0 72.5 13.667 93.5 41
s31.5 66 31.5 116v580h426v-1024h-426zM582.999 1186l-356 321h358l299 -321h-301z" />
    <glyph glyph-name="uacute" unicode="&#xfa;" horiz-adv-x="1282" 
d="M754 0l-0.000976562 158.001h-4c-35.333 -48.667 -67.166 -84.334 -95.499 -107.001s-60.333 -41 -96 -55s-77.167 -21 -124.5 -21c-112 0 -197.333 36.333 -256 109s-88 180 -88 322v618h426v-586c0 -100.667 37.667 -151 113 -151c41.333 0 72.5 13.667 93.5 41
s31.5 66 31.5 116v580h426v-1024h-426zM685.999 1186h-301l299 321h358z" />
    <glyph glyph-name="ucircumflex" unicode="&#xfb;" horiz-adv-x="1282" 
d="M754 0l-0.000976562 158.001h-4c-35.333 -48.667 -67.166 -84.334 -95.499 -107.001s-60.333 -41 -96 -55s-77.167 -21 -124.5 -21c-112 0 -197.333 36.333 -256 109s-88 180 -88 322v618h426v-586c0 -100.667 37.667 -151 113 -151c41.333 0 72.5 13.667 93.5 41
s31.5 66 31.5 116v580h426v-1024h-426zM786.999 1186l-148 153l-147 -153h-262l256 321h317l256 -321h-272z" />
    <glyph glyph-name="udieresis" unicode="&#xfc;" horiz-adv-x="1282" 
d="M754 0l-0.000976562 158.001h-4c-35.333 -48.667 -67.166 -84.334 -95.499 -107.001s-60.333 -41 -96 -55s-77.167 -21 -124.5 -21c-112 0 -197.333 36.333 -256 109s-88 180 -88 322v618h426v-586c0 -100.667 37.667 -151 113 -151c41.333 0 72.5 13.667 93.5 41
s31.5 66 31.5 116v580h426v-1024h-426zM1083 1339c0 -48.667 -17.332 -88.165 -51.999 -118.498s-81.334 -45.5 -140.001 -45.5c-56 0 -102.167 15.5 -138.5 46.5s-54.5 70.167 -54.5 117.5s17.667 85.666 53 114.999s82 44 140 44s104.5 -14.833 139.5 -44.5
s52.5 -67.834 52.5 -114.501zM582 1339c0 -47.333 -17.165 -86.499 -51.498 -117.499s-81.5 -46.5 -141.5 -46.5c-56.667 0 -102.834 15.833 -138.501 47.5s-53.5 70.5 -53.5 116.5c0 47.333 17.667 85.666 53 114.999s81.666 44 138.999 44c58 0 104.667 -14.5 140 -43.5
s53 -67.5 53 -115.5z" />
    <glyph glyph-name="yacute" unicode="&#xfd;" horiz-adv-x="1176" 
d="M301 -481c-40 0 -82.999 3.50098 -128.999 10.501s-87 17.167 -123 30.5v321c16.667 -12.667 41.5 -24.334 74.5 -35.001s64.167 -16 93.5 -16c79.333 0 132 31.333 158 94l33 80l-428 1020h471l124 -494c24 -92 37 -154 39 -186h4c2 14.667 4.83301 31 8.5 49
s55.5 228.333 155.5 631h414l-377 -1053c-56.667 -161.333 -126.834 -277 -210.501 -347s-186.167 -105 -307.5 -105zM661.001 1186h-301l299 321h358z" />
    <glyph glyph-name="thorn" unicode="&#xfe;" horiz-adv-x="1315" 
d="M1257 543c0 -112 -19 -211 -57 -297s-91.667 -152.667 -161 -200s-147.333 -71 -234 -71c-120 0 -211 43.667 -273 131h-4v-577h-426v1987h426v-631h4c34 51.333 78 91.5 132 120.5s115.333 43.5 184 43.5c132 0 233.167 -44 303.5 -132s105.5 -212.667 105.5 -374z
M825 530c0 64.667 -12.5 115.335 -37.5 152.002s-63.5 55 -115.5 55c-45.333 0 -82 -19.333 -110 -58s-42 -91.667 -42 -159v-20c0 -64.667 12 -116.334 36 -155.001s60 -58 108 -58c51.333 0 91 21.167 119 63.5s42 102.166 42 179.499z" />
    <glyph glyph-name="ydieresis" unicode="&#xff;" horiz-adv-x="1176" 
d="M301 -481c-40 0 -82.999 3.50098 -128.999 10.501s-87 17.167 -123 30.5v321c16.667 -12.667 41.5 -24.334 74.5 -35.001s64.167 -16 93.5 -16c79.333 0 132 31.333 158 94l33 80l-428 1020h471l124 -494c24 -92 37 -154 39 -186h4c2 14.667 4.83301 31 8.5 49
s55.5 228.333 155.5 631h414l-377 -1053c-56.667 -161.333 -126.834 -277 -210.501 -347s-186.167 -105 -307.5 -105zM1040 1339c0 -48.667 -17.332 -88.165 -51.999 -118.498s-81.334 -45.5 -140.001 -45.5c-56 0 -102.167 15.5 -138.5 46.5s-54.5 70.167 -54.5 117.5
s17.667 85.666 53 114.999s82 44 140 44s104.5 -14.833 139.5 -44.5s52.5 -67.834 52.5 -114.501zM539.002 1339c0 -47.333 -17.165 -86.499 -51.498 -117.499s-81.5 -46.5 -141.5 -46.5c-56.667 0 -102.834 15.833 -138.501 47.5s-53.5 70.5 -53.5 116.5
c0 47.333 17.667 85.666 53 114.999s81.666 44 138.999 44c58 0 104.667 -14.5 140 -43.5s53 -67.5 53 -115.5z" />
    <glyph glyph-name="Amacron" unicode="&#x100;" horiz-adv-x="1536" 
d="M1040 0l-63 264h-428l-68 -264h-467l494 1434h536l465 -1434h-469zM768 1122h-10c-1.33301 -16 -6 -42.333 -14 -79s-48.333 -194 -121 -472h274l-100 390c-14 57.333 -23.667 111 -29 161zM439 1568v223h655v-223h-655z" />
    <glyph glyph-name="amacron" unicode="&#x101;" horiz-adv-x="1149" 
d="M670 0l0.00292969 156.001h-4c-68 -120.667 -172 -181 -312 -181c-96.667 0 -172.334 28.667 -227.001 86s-82 134 -82 230c0 201.333 123.667 318 371 350l254 33c0 33.333 -15 60.666 -45 81.999s-70.333 32 -121 32c-114.667 0 -235.667 -32.667 -363 -98v277
c55.333 24 124.666 43.667 207.999 59s154.666 23 213.999 23c174 0 300.167 -37.167 378.5 -111.5s117.5 -198.5 117.5 -372.5v-565h-389zM418.003 348.001c0 -28 8.83105 -51 26.498 -69s42.834 -27 75.501 -27c44.667 0 80.834 16.667 108.501 50s41.5 76 41.5 128v39
l-144 -20c-72 -12 -108 -45.667 -108 -101zM263.001 1187v223h655v-223h-655z" />
    <glyph glyph-name="Abreve" unicode="&#x102;" horiz-adv-x="1536" 
d="M1040 0l-63 264h-428l-68 -264h-467l494 1434h536l465 -1434h-469zM768 1122h-10c-1.33301 -16 -6 -42.333 -14 -79s-48.333 -194 -121 -472h274l-100 390c-14 57.333 -23.667 111 -29 161zM1156 1913c-10.667 -111.333 -49.665 -196.831 -116.998 -256.498
s-159.333 -89.5 -276 -89.5c-74.667 0 -141 14.667 -199 44s-103.333 70.666 -136 123.999s-49.334 112.666 -50.001 177.999h240c6.66699 -36.667 23 -65.667 49 -87s60 -32 102 -32c41.333 0 74.666 10.667 99.999 32s41.333 50.333 48 87h239z" />
    <glyph glyph-name="abreve" unicode="&#x103;" horiz-adv-x="1149" 
d="M670 0l0.00292969 156.001h-4c-68 -120.667 -172 -181 -312 -181c-96.667 0 -172.334 28.667 -227.001 86s-82 134 -82 230c0 201.333 123.667 318 371 350l254 33c0 33.333 -15 60.666 -45 81.999s-70.333 32 -121 32c-114.667 0 -235.667 -32.667 -363 -98v277
c55.333 24 124.666 43.667 207.999 59s154.666 23 213.999 23c174 0 300.167 -37.167 378.5 -111.5s117.5 -198.5 117.5 -372.5v-565h-389zM418.003 348.001c0 -28 8.83105 -51 26.498 -69s42.834 -27 75.501 -27c44.667 0 80.834 16.667 108.501 50s41.5 76 41.5 128v39
l-144 -20c-72 -12 -108 -45.667 -108 -101zM979.001 1532c-10.667 -111.333 -49.665 -196.831 -116.998 -256.498s-159.333 -89.5 -276 -89.5c-74.667 0 -141 14.667 -199 44s-103.333 70.666 -136 123.999s-49.334 112.666 -50.001 177.999h240
c6.66699 -36.667 23 -65.667 49 -87s60 -32 102 -32c41.333 0 74.666 10.667 99.999 32s41.333 50.333 48 87h239z" />
    <glyph glyph-name="Aogonek" unicode="&#x104;" horiz-adv-x="1536" 
d="M1333 0c-16 -25.333 -29.999 -53.832 -41.999 -85.499s-18 -60.167 -18 -85.5c0 -24.667 6.66699 -43.334 20 -56.001s31 -19 53 -19c37.333 0 76.666 9.33301 117.999 28v-154c-22.667 -12.667 -51.5 -23.167 -86.5 -31.5s-66.167 -12.5 -93.5 -12.5
c-77.333 0 -135.333 18.167 -174 54.5s-58 85.833 -58 148.5c0 38.667 9.16699 76.5 27.5 113.5s43.833 70.167 76.5 99.5h-116l-63 264h-428l-68 -264h-467l494 1434h536l465 -1434h-176zM768.001 1122h-10c-1.33301 -16 -6 -42.333 -14 -79s-48.333 -194 -121 -472h274
l-100 390c-14 57.333 -23.667 111 -29 161z" />
    <glyph glyph-name="aogonek" unicode="&#x105;" horiz-adv-x="1149" 
d="M932 0c-16 -25.333 -29.9961 -53.8311 -41.9961 -85.498s-18 -60.167 -18 -85.5c0 -24.667 6.66699 -43.334 20 -56.001s31 -19 53 -19c37.333 0 76.666 9.33301 117.999 28v-154c-22.667 -12.667 -51.5 -23.167 -86.5 -31.5s-66.167 -12.5 -93.5 -12.5
c-77.333 0 -135.333 18.167 -174 54.5s-58 85.833 -58 148.5c0 38.667 9.16699 76.5 27.5 113.5s43.833 70.167 76.5 99.5h-85v156h-4c-68 -120.667 -172 -181 -312 -181c-96.667 0 -172.334 28.667 -227.001 86s-82 134 -82 230c0 201.333 123.667 318 371 350l254 33
c0 33.333 -15 60.666 -45 81.999s-70.333 32 -121 32c-114.667 0 -235.667 -32.667 -363 -98v277c55.333 24 124.666 43.667 207.999 59s154.666 23 213.999 23c174 0 300.167 -37.167 378.5 -111.5s117.5 -198.5 117.5 -372.5v-565h-127zM418.004 348.002
c0 -28 8.83105 -51 26.498 -69s42.834 -27 75.501 -27c44.667 0 80.834 16.667 108.501 50s41.5 76 41.5 128v39l-144 -20c-72 -12 -108 -45.667 -108 -101z" />
    <glyph glyph-name="Cacute" unicode="&#x106;" horiz-adv-x="1290" 
d="M1208 39c-118.667 -42.667 -255.665 -64.002 -410.998 -64.002c-152.667 0 -284.334 29.167 -395.001 87.5s-195.167 141.333 -253.5 249s-87.5 231.834 -87.5 372.501c0 151.333 32.667 286 98 404s157.666 209.167 276.999 273.5s256.666 96.5 411.999 96.5
c124 0 244 -15 360 -45v-399c-40 24 -87.667 42.667 -143 56s-111.333 20 -168 20c-117.333 0 -209.833 -33.667 -277.5 -101s-101.5 -158.666 -101.5 -273.999c0 -114.667 33.833 -205.167 101.5 -271.5s158.167 -99.5 271.5 -99.5c104.667 0 210.334 26.667 317.001 80
v-385zM848.002 1567h-301l299 321h358z" />
    <glyph glyph-name="cacute" unicode="&#x107;" horiz-adv-x="1014" 
d="M946 29c-27.333 -16 -70.332 -29.002 -128.999 -39.002s-126.334 -15 -203.001 -15c-108 0 -204.5 21.833 -289.5 65.5s-150.833 104.834 -197.5 183.501s-70 167 -70 265c0 117.333 24.833 217.833 74.5 301.5s120.5 147.667 212.5 192s198.667 66.5 320 66.5
c66.667 0 126.5 -4.33301 179.5 -13s87.167 -18.667 102.5 -30v-332c-21.333 16.667 -52 31.334 -92 44.001s-77 19 -111 19c-83.333 0 -146.5 -19.833 -189.5 -59.5s-64.5 -95.5 -64.5 -167.5c0 -70.667 21.167 -125.5 63.5 -164.5s100.5 -58.5 174.5 -58.5
c79.333 0 152.333 19 219 57v-315zM665.001 1186h-301l299 321h358z" />
    <glyph glyph-name="Ccircumflex" unicode="&#x108;" horiz-adv-x="1290" 
d="M1208 39c-118.667 -42.667 -255.665 -64.002 -410.998 -64.002c-152.667 0 -284.334 29.167 -395.001 87.5s-195.167 141.333 -253.5 249s-87.5 231.834 -87.5 372.501c0 151.333 32.667 286 98 404s157.666 209.167 276.999 273.5s256.666 96.5 411.999 96.5
c124 0 244 -15 360 -45v-399c-40 24 -87.667 42.667 -143 56s-111.333 20 -168 20c-117.333 0 -209.833 -33.667 -277.5 -101s-101.5 -158.666 -101.5 -273.999c0 -114.667 33.833 -205.167 101.5 -271.5s158.167 -99.5 271.5 -99.5c104.667 0 210.334 26.667 317.001 80
v-385zM877.002 1567l-148 153l-147 -153h-262l256 321h317l256 -321h-272z" />
    <glyph glyph-name="ccircumflex" unicode="&#x109;" horiz-adv-x="1014" 
d="M946 29c-27.333 -16 -70.332 -29.002 -128.999 -39.002s-126.334 -15 -203.001 -15c-108 0 -204.5 21.833 -289.5 65.5s-150.833 104.834 -197.5 183.501s-70 167 -70 265c0 117.333 24.833 217.833 74.5 301.5s120.5 147.667 212.5 192s198.667 66.5 320 66.5
c66.667 0 126.5 -4.33301 179.5 -13s87.167 -18.667 102.5 -30v-332c-21.333 16.667 -52 31.334 -92 44.001s-77 19 -111 19c-83.333 0 -146.5 -19.833 -189.5 -59.5s-64.5 -95.5 -64.5 -167.5c0 -70.667 21.167 -125.5 63.5 -164.5s100.5 -58.5 174.5 -58.5
c79.333 0 152.333 19 219 57v-315zM692.001 1186l-148 153l-147 -153h-262l256 321h317l256 -321h-272z" />
    <glyph glyph-name="Cdotaccent" unicode="&#x10a;" horiz-adv-x="1290" 
d="M1208 39c-118.667 -42.667 -255.665 -64.002 -410.998 -64.002c-152.667 0 -284.334 29.167 -395.001 87.5s-195.167 141.333 -253.5 249s-87.5 231.834 -87.5 372.501c0 151.333 32.667 286 98 404s157.666 209.167 276.999 273.5s256.666 96.5 411.999 96.5
c124 0 244 -15 360 -45v-399c-40 24 -87.667 42.667 -143 56s-111.333 20 -168 20c-117.333 0 -209.833 -33.667 -277.5 -101s-101.5 -158.666 -101.5 -273.999c0 -114.667 33.833 -205.167 101.5 -271.5s158.167 -99.5 271.5 -99.5c104.667 0 210.334 26.667 317.001 80
v-385zM898.002 1731c0 -48.667 -17.668 -88.167 -53.001 -118.5s-81.666 -45.5 -138.999 -45.5c-56 0 -102.167 15.667 -138.5 47s-54.5 70.333 -54.5 117c0 48 17.833 86.5 53.5 115.5s82.167 43.5 139.5 43.5c58 0 104.5 -14.5 139.5 -43.5s52.5 -67.5 52.5 -115.5z" />
    <glyph glyph-name="cdotaccent" unicode="&#x10b;" horiz-adv-x="1014" 
d="M946 29c-27.333 -16 -70.332 -29.002 -128.999 -39.002s-126.334 -15 -203.001 -15c-108 0 -204.5 21.833 -289.5 65.5s-150.833 104.834 -197.5 183.501s-70 167 -70 265c0 117.333 24.833 217.833 74.5 301.5s120.5 147.667 212.5 192s198.667 66.5 320 66.5
c66.667 0 126.5 -4.33301 179.5 -13s87.167 -18.667 102.5 -30v-332c-21.333 16.667 -52 31.334 -92 44.001s-77 19 -111 19c-83.333 0 -146.5 -19.833 -189.5 -59.5s-64.5 -95.5 -64.5 -167.5c0 -70.667 21.167 -125.5 63.5 -164.5s100.5 -58.5 174.5 -58.5
c79.333 0 152.333 19 219 57v-315zM733.001 1350c0 -48.667 -17.668 -88.167 -53.001 -118.5s-81.666 -45.5 -138.999 -45.5c-56 0 -102.167 15.667 -138.5 47s-54.5 70.333 -54.5 117c0 48 17.833 86.5 53.5 115.5s82.167 43.5 139.5 43.5c58 0 104.5 -14.5 139.5 -43.5
s52.5 -67.5 52.5 -115.5z" />
    <glyph glyph-name="Ccaron" unicode="&#x10c;" horiz-adv-x="1290" 
d="M1208 39c-118.667 -42.667 -255.665 -64.002 -410.998 -64.002c-152.667 0 -284.334 29.167 -395.001 87.5s-195.167 141.333 -253.5 249s-87.5 231.834 -87.5 372.501c0 151.333 32.667 286 98 404s157.666 209.167 276.999 273.5s256.666 96.5 411.999 96.5
c124 0 244 -15 360 -45v-399c-40 24 -87.667 42.667 -143 56s-111.333 20 -168 20c-117.333 0 -209.833 -33.667 -277.5 -101s-101.5 -158.666 -101.5 -273.999c0 -114.667 33.833 -205.167 101.5 -271.5s158.167 -99.5 271.5 -99.5c104.667 0 210.334 26.667 317.001 80
v-385zM1140 1888l-256 -321h-317l-256 321h262l147 -153l148 153h272z" />
    <glyph glyph-name="ccaron" unicode="&#x10d;" horiz-adv-x="1014" 
d="M946 29c-27.333 -16 -70.332 -29.002 -128.999 -39.002s-126.334 -15 -203.001 -15c-108 0 -204.5 21.833 -289.5 65.5s-150.833 104.834 -197.5 183.501s-70 167 -70 265c0 117.333 24.833 217.833 74.5 301.5s120.5 147.667 212.5 192s198.667 66.5 320 66.5
c66.667 0 126.5 -4.33301 179.5 -13s87.167 -18.667 102.5 -30v-332c-21.333 16.667 -52 31.334 -92 44.001s-77 19 -111 19c-83.333 0 -146.5 -19.833 -189.5 -59.5s-64.5 -95.5 -64.5 -167.5c0 -70.667 21.167 -125.5 63.5 -164.5s100.5 -58.5 174.5 -58.5
c79.333 0 152.333 19 219 57v-315zM964.001 1507l-256 -321h-317l-256 321h262l147 -153l148 153h272z" />
    <glyph glyph-name="Dcaron" unicode="&#x10e;" horiz-adv-x="1554" 
d="M1493 735c0 -145.333 -30.5 -273.832 -91.5 -385.499s-148.167 -197.834 -261.5 -258.501s-244 -91 -392 -91h-607v1434h594c505.333 0 758 -233 758 -699zM1034 731.001c0 70 -14.167 133 -42.5 189s-68.833 99.333 -121.5 130s-114.667 46 -186 46h-111v-758h121
c103.333 0 185.833 35.5 247.5 106.5s92.5 166.5 92.5 286.5zM1152 1888l-256 -321h-317l-256 321h262l147 -153l148 153h272z" />
    <glyph glyph-name="dcaron" unicode="&#x10f;" horiz-adv-x="1662" 
d="M786 0l0.00195312 119.002h-4c-34 -44.667 -78.333 -79.834 -133 -105.501s-108.667 -38.5 -162 -38.5c-87.333 0 -164.333 21.5 -231 64.5s-116.5 103.167 -149.5 180.5s-49.5 168.666 -49.5 273.999c0 108.667 19.667 205 59 289s94.666 149.333 165.999 196
s151.333 70 240 70c42 0 80.833 -6 116.5 -18s66.667 -28.167 93 -48.5s43.166 -40.5 50.499 -60.5h4v594h426v-1516h-426zM795.002 543.002c0 61.333 -13.499 109 -40.499 143s-63.5 51 -109.5 51s-83.5 -21.167 -112.5 -63.5s-43.5 -98.833 -43.5 -169.5
c0 -144.667 50 -217 150 -217c47.333 0 85.166 19.5 113.499 58.5s42.5 95.833 42.5 170.5v27zM1702 1516l-201 -364h-220l63 364h358z" />
    <glyph glyph-name="Dcroat" unicode="&#x110;" horiz-adv-x="1554" 
d="M1493 735c0 -145.333 -30.5 -273.832 -91.5 -385.499s-148.167 -197.834 -261.5 -258.501s-244 -91 -392 -91h-607v549h-166v338h166v547h594c505.333 0 758 -233 758 -699zM1034 731.001c0 70 -14.167 133 -42.5 189s-68.833 99.333 -121.5 130s-114.667 46 -186 46
h-111v-209h240v-338h-240v-211h121c103.333 0 185.833 35.5 247.5 106.5s92.5 166.5 92.5 286.5z" />
    <glyph glyph-name="dcroat" unicode="&#x111;" horiz-adv-x="1315" 
d="M786 0l0.00195312 119.002h-4c-34 -44.667 -78.333 -79.834 -133 -105.501s-108.667 -38.5 -162 -38.5c-87.333 0 -164.333 21.5 -231 64.5s-116.5 103.167 -149.5 180.5s-49.5 168.666 -49.5 273.999c0 108.667 19.667 205 59 289s94.666 149.333 165.999 196
s151.333 70 240 70c42 0 80.833 -6 116.5 -18s66.667 -28.167 93 -48.5s43.166 -40.5 50.499 -60.5h4v233h-275v195h275v166h426v-166h103v-195h-103v-1155h-426zM795.002 543.002c0 61.333 -13.499 109 -40.499 143s-63.5 51 -109.5 51s-83.5 -21.167 -112.5 -63.5
s-43.5 -98.833 -43.5 -169.5c0 -144.667 50 -217 150 -217c47.333 0 85.166 19.5 113.499 58.5s42.5 95.833 42.5 170.5v27z" />
    <glyph glyph-name="Emacron" unicode="&#x112;" horiz-adv-x="1130" 
d="M141 0v1434h893v-338h-461v-209h433v-338h-433v-211h494v-338h-926zM261 1568v223h655v-223h-655z" />
    <glyph glyph-name="emacron" unicode="&#x113;" horiz-adv-x="1147" 
d="M469 391c7.33301 -44 32.666 -78.5 75.999 -103.5s100.666 -37.5 171.999 -37.5c99.333 0 193.333 19 282 57v-270c-103.333 -41.333 -228.666 -62 -375.999 -62c-178.667 0 -317.667 45.667 -417 137s-149 217 -149 377c0 110 21.833 207 65.5 291
s108.334 149.833 194.001 197.5s180.167 71.5 283.5 71.5c106 0 196.667 -20.667 272 -62s132.5 -99.333 171.5 -174s58.5 -162 58.5 -262v-160h-633zM725 614c0 118 -42.333 176.999 -127 176.999c-35.333 0 -65 -16.167 -89 -48.5s-38 -75.166 -42 -128.499h258zM263 1187
v223h655v-223h-655z" />
    <glyph glyph-name="Ebreve" unicode="&#x114;" horiz-adv-x="1130" 
d="M141 0v1434h893v-338h-461v-209h433v-338h-433v-211h494v-338h-926zM973 1913c-10.667 -111.333 -49.665 -196.831 -116.998 -256.498s-159.333 -89.5 -276 -89.5c-74.667 0 -141 14.667 -199 44s-103.333 70.666 -136 123.999s-49.334 112.666 -50.001 177.999h240
c6.66699 -36.667 23 -65.667 49 -87s60 -32 102 -32c41.333 0 74.666 10.667 99.999 32s41.333 50.333 48 87h239z" />
    <glyph glyph-name="ebreve" unicode="&#x115;" horiz-adv-x="1147" 
d="M469 391c7.33301 -44 32.666 -78.5 75.999 -103.5s100.666 -37.5 171.999 -37.5c99.333 0 193.333 19 282 57v-270c-103.333 -41.333 -228.666 -62 -375.999 -62c-178.667 0 -317.667 45.667 -417 137s-149 217 -149 377c0 110 21.833 207 65.5 291
s108.334 149.833 194.001 197.5s180.167 71.5 283.5 71.5c106 0 196.667 -20.667 272 -62s132.5 -99.333 171.5 -174s58.5 -162 58.5 -262v-160h-633zM725 614c0 118 -42.333 176.999 -127 176.999c-35.333 0 -65 -16.167 -89 -48.5s-38 -75.166 -42 -128.499h258zM981 1532
c-10.667 -111.333 -49.665 -196.831 -116.998 -256.498s-159.333 -89.5 -276 -89.5c-74.667 0 -141 14.667 -199 44s-103.333 70.666 -136 123.999s-49.334 112.666 -50.001 177.999h240c6.66699 -36.667 23 -65.667 49 -87s60 -32 102 -32
c41.333 0 74.666 10.667 99.999 32s41.333 50.333 48 87h239z" />
    <glyph glyph-name="Edotaccent" unicode="&#x116;" horiz-adv-x="1130" 
d="M141 0v1434h893v-338h-461v-209h433v-338h-433v-211h494v-338h-926zM778 1731c0 -48.667 -17.668 -88.167 -53.001 -118.5s-81.666 -45.5 -138.999 -45.5c-56 0 -102.167 15.667 -138.5 47s-54.5 70.333 -54.5 117c0 48 17.833 86.5 53.5 115.5s82.167 43.5 139.5 43.5
c58 0 104.5 -14.5 139.5 -43.5s52.5 -67.5 52.5 -115.5z" />
    <glyph glyph-name="edotaccent" unicode="&#x117;" horiz-adv-x="1147" 
d="M469 391c7.33301 -44 32.666 -78.5 75.999 -103.5s100.666 -37.5 171.999 -37.5c99.333 0 193.333 19 282 57v-270c-103.333 -41.333 -228.666 -62 -375.999 -62c-178.667 0 -317.667 45.667 -417 137s-149 217 -149 377c0 110 21.833 207 65.5 291
s108.334 149.833 194.001 197.5s180.167 71.5 283.5 71.5c106 0 196.667 -20.667 272 -62s132.5 -99.333 171.5 -174s58.5 -162 58.5 -262v-160h-633zM725 614c0 118 -42.333 176.999 -127 176.999c-35.333 0 -65 -16.167 -89 -48.5s-38 -75.166 -42 -128.499h258zM784 1350
c0 -48.667 -17.668 -88.167 -53.001 -118.5s-81.666 -45.5 -138.999 -45.5c-56 0 -102.167 15.667 -138.5 47s-54.5 70.333 -54.5 117c0 48 17.833 86.5 53.5 115.5s82.167 43.5 139.5 43.5c58 0 104.5 -14.5 139.5 -43.5s52.5 -67.5 52.5 -115.5z" />
    <glyph glyph-name="Eogonek" unicode="&#x118;" horiz-adv-x="1130" 
d="M909 0c-16 -25.333 -29.999 -53.832 -41.999 -85.499s-18 -60.167 -18 -85.5c0 -24.667 6.66699 -43.334 20 -56.001s31 -19 53 -19c37.333 0 76.666 9.33301 117.999 28v-154c-22.667 -12.667 -51.5 -23.167 -86.5 -31.5s-66.167 -12.5 -93.5 -12.5
c-77.333 0 -135.333 18.167 -174 54.5s-58 85.833 -58 148.5c0 38.667 9.16699 76.5 27.5 113.5s43.833 70.167 76.5 99.5h-591v1434h893v-338h-461v-209h433v-338h-433v-211h494v-338h-158z" />
    <glyph glyph-name="eogonek" unicode="&#x119;" horiz-adv-x="1147" 
d="M469 391c7.33301 -44 32.668 -78.499 76.001 -103.499s100.666 -37.5 171.999 -37.5c99.333 0 193.333 19 282 57v-270c-84.667 -34.667 -186.667 -54.667 -306 -60c-30.667 -53.333 -46 -102.666 -46 -147.999c0 -24.667 6.66699 -43.334 20 -56.001s31 -19 53 -19
c37.333 0 76.666 9.33301 117.999 28v-154c-22.667 -12.667 -51.5 -23.167 -86.5 -31.5s-66.167 -12.5 -93.5 -12.5c-77.333 0 -135.333 18.167 -174 54.5s-58 85.833 -58 148.5c0 70 28.333 135 85 195c-146.667 19.333 -259 73.666 -337 162.999s-117 204 -117 344
c0 110 21.833 207 65.5 291s108.334 149.833 194.001 197.5s180.167 71.5 283.5 71.5c106 0 196.667 -20.667 272 -62s132.5 -99.333 171.5 -174s58.5 -162 58.5 -262v-160h-633zM725.002 614.001c0 118 -42.333 176.999 -127 176.999c-35.333 0 -65 -16.167 -89 -48.5
s-38 -75.166 -42 -128.499h258z" />
    <glyph glyph-name="Ecaron" unicode="&#x11a;" horiz-adv-x="1130" 
d="M141 0v1434h893v-338h-461v-209h433v-338h-433v-211h494v-338h-926zM994 1888l-256 -321h-317l-256 321h262l147 -153l148 153h272z" />
    <glyph glyph-name="ecaron" unicode="&#x11b;" horiz-adv-x="1147" 
d="M469 391c7.33301 -44 32.666 -78.5 75.999 -103.5s100.666 -37.5 171.999 -37.5c99.333 0 193.333 19 282 57v-270c-103.333 -41.333 -228.666 -62 -375.999 -62c-178.667 0 -317.667 45.667 -417 137s-149 217 -149 377c0 110 21.833 207 65.5 291
s108.334 149.833 194.001 197.5s180.167 71.5 283.5 71.5c106 0 196.667 -20.667 272 -62s132.5 -99.333 171.5 -174s58.5 -162 58.5 -262v-160h-633zM725 614c0 118 -42.333 176.999 -127 176.999c-35.333 0 -65 -16.167 -89 -48.5s-38 -75.166 -42 -128.499h258z
M1000 1507l-256 -321h-317l-256 321h262l147 -153l148 153h272z" />
    <glyph glyph-name="Gcircumflex" unicode="&#x11c;" horiz-adv-x="1489" 
d="M1397 94c-54 -30.667 -134.667 -58.1689 -242 -82.502s-209.666 -36.5 -306.999 -36.5c-251.333 0 -445.333 62.833 -582 188.5s-205 301.834 -205 528.501c0 152 34.5 287 103.5 405s166.167 207.667 291.5 269s273 92 443 92c124.667 0 257.667 -17.667 399 -53v-377
c-66 30 -129.333 50.833 -190 62.5s-127 17.5 -199 17.5c-118.667 0 -213.167 -35.667 -283.5 -107s-105.5 -169.333 -105.5 -294c0 -119.333 29.5 -212.666 88.5 -279.999s141.5 -101 247.5 -101c49.333 0 85.666 2.66699 108.999 8v205h-275v327h707v-772zM940 1567
l-148 153l-147 -153h-262l256 321h317l256 -321h-272z" />
    <glyph glyph-name="gcircumflex" unicode="&#x11d;" horiz-adv-x="1315" 
d="M1212 143c0 -196.667 -61.8311 -349.835 -185.498 -459.502s-304.167 -164.5 -541.5 -164.5c-64 0 -126 5 -186 15s-103 21.333 -129 34v334c42.667 -26.667 92.667 -48 150 -64s108.333 -24 153 -24c95.333 0 171.666 23 228.999 69s86 107 86 183v63h-4
c-30.667 -46.667 -72.834 -84 -126.501 -112s-111.167 -42 -172.5 -42c-132 0 -236.333 45.833 -313 137.5s-115 218.167 -115 379.5c0 110.667 20 208.334 60 293.001s95.667 149.834 167 195.501s150 68.5 236 68.5c118 0 206 -43.667 264 -131h4v106h424v-881z
M795.002 540.999c0 60 -13.501 107.666 -40.501 142.999s-62.833 53 -107.5 53c-48 0 -86.333 -21.333 -115 -64s-43 -99.667 -43 -171c0 -66 12 -118.333 36 -157s62 -58 114 -58c48.667 0 86.834 19.833 114.501 59.5s41.5 92.834 41.5 159.501v35zM798.001 1186l-148 153
l-147 -153h-262l256 321h317l256 -321h-272z" />
    <glyph glyph-name="Gbreve" unicode="&#x11e;" horiz-adv-x="1489" 
d="M1397 94c-54 -30.667 -134.667 -58.1689 -242 -82.502s-209.666 -36.5 -306.999 -36.5c-251.333 0 -445.333 62.833 -582 188.5s-205 301.834 -205 528.501c0 152 34.5 287 103.5 405s166.167 207.667 291.5 269s273 92 443 92c124.667 0 257.667 -17.667 399 -53v-377
c-66 30 -129.333 50.833 -190 62.5s-127 17.5 -199 17.5c-118.667 0 -213.167 -35.667 -283.5 -107s-105.5 -169.333 -105.5 -294c0 -119.333 29.5 -212.666 88.5 -279.999s141.5 -101 247.5 -101c49.333 0 85.666 2.66699 108.999 8v205h-275v327h707v-772zM1169 1913
c-10.667 -111.333 -49.665 -196.831 -116.998 -256.498s-159.333 -89.5 -276 -89.5c-74.667 0 -141 14.667 -199 44s-103.333 70.666 -136 123.999s-49.334 112.666 -50.001 177.999h240c6.66699 -36.667 23 -65.667 49 -87s60 -32 102 -32
c41.333 0 74.666 10.667 99.999 32s41.333 50.333 48 87h239z" />
    <glyph glyph-name="gbreve" unicode="&#x11f;" horiz-adv-x="1315" 
d="M1212 143c0 -196.667 -61.8311 -349.835 -185.498 -459.502s-304.167 -164.5 -541.5 -164.5c-64 0 -126 5 -186 15s-103 21.333 -129 34v334c42.667 -26.667 92.667 -48 150 -64s108.333 -24 153 -24c95.333 0 171.666 23 228.999 69s86 107 86 183v63h-4
c-30.667 -46.667 -72.834 -84 -126.501 -112s-111.167 -42 -172.5 -42c-132 0 -236.333 45.833 -313 137.5s-115 218.167 -115 379.5c0 110.667 20 208.334 60 293.001s95.667 149.834 167 195.501s150 68.5 236 68.5c118 0 206 -43.667 264 -131h4v106h424v-881z
M795.002 540.999c0 60 -13.501 107.666 -40.501 142.999s-62.833 53 -107.5 53c-48 0 -86.333 -21.333 -115 -64s-43 -99.667 -43 -171c0 -66 12 -118.333 36 -157s62 -58 114 -58c48.667 0 86.834 19.833 114.501 59.5s41.5 92.834 41.5 159.501v35zM1043 1532
c-10.667 -111.333 -49.665 -196.831 -116.998 -256.498s-159.333 -89.5 -276 -89.5c-74.667 0 -141 14.667 -199 44s-103.333 70.666 -136 123.999s-49.334 112.666 -50.001 177.999h240c6.66699 -36.667 23 -65.667 49 -87s60 -32 102 -32
c41.333 0 74.666 10.667 99.999 32s41.333 50.333 48 87h239z" />
    <glyph glyph-name="Gdotaccent" unicode="&#x120;" horiz-adv-x="1489" 
d="M1397 94c-54 -30.667 -134.667 -58.1689 -242 -82.502s-209.666 -36.5 -306.999 -36.5c-251.333 0 -445.333 62.833 -582 188.5s-205 301.834 -205 528.501c0 152 34.5 287 103.5 405s166.167 207.667 291.5 269s273 92 443 92c124.667 0 257.667 -17.667 399 -53v-377
c-66 30 -129.333 50.833 -190 62.5s-127 17.5 -199 17.5c-118.667 0 -213.167 -35.667 -283.5 -107s-105.5 -169.333 -105.5 -294c0 -119.333 29.5 -212.666 88.5 -279.999s141.5 -101 247.5 -101c49.333 0 85.666 2.66699 108.999 8v205h-275v327h707v-772zM1005 1731
c0 -48.667 -17.668 -88.167 -53.001 -118.5s-81.666 -45.5 -138.999 -45.5c-56 0 -102.167 15.667 -138.5 47s-54.5 70.333 -54.5 117c0 48 17.833 86.5 53.5 115.5s82.167 43.5 139.5 43.5c58 0 104.5 -14.5 139.5 -43.5s52.5 -67.5 52.5 -115.5z" />
    <glyph glyph-name="gdotaccent" unicode="&#x121;" horiz-adv-x="1315" 
d="M1212 143c0 -196.667 -61.8311 -349.835 -185.498 -459.502s-304.167 -164.5 -541.5 -164.5c-64 0 -126 5 -186 15s-103 21.333 -129 34v334c42.667 -26.667 92.667 -48 150 -64s108.333 -24 153 -24c95.333 0 171.666 23 228.999 69s86 107 86 183v63h-4
c-30.667 -46.667 -72.834 -84 -126.501 -112s-111.167 -42 -172.5 -42c-132 0 -236.333 45.833 -313 137.5s-115 218.167 -115 379.5c0 110.667 20 208.334 60 293.001s95.667 149.834 167 195.501s150 68.5 236 68.5c118 0 206 -43.667 264 -131h4v106h424v-881z
M795.002 540.999c0 60 -13.501 107.666 -40.501 142.999s-62.833 53 -107.5 53c-48 0 -86.333 -21.333 -115 -64s-43 -99.667 -43 -171c0 -66 12 -118.333 36 -157s62 -58 114 -58c48.667 0 86.834 19.833 114.501 59.5s41.5 92.834 41.5 159.501v35zM861.001 1350
c0 -48.667 -17.668 -88.167 -53.001 -118.5s-81.666 -45.5 -138.999 -45.5c-56 0 -102.167 15.667 -138.5 47s-54.5 70.333 -54.5 117c0 48 17.833 86.5 53.5 115.5s82.167 43.5 139.5 43.5c58 0 104.5 -14.5 139.5 -43.5s52.5 -67.5 52.5 -115.5z" />
    <glyph glyph-name="Gcommaaccent" unicode="&#x122;" horiz-adv-x="1489" 
d="M1397 94c-54 -30.667 -134.667 -58.1689 -242 -82.502s-209.666 -36.5 -306.999 -36.5c-251.333 0 -445.333 62.833 -582 188.5s-205 301.834 -205 528.501c0 152 34.5 287 103.5 405s166.167 207.667 291.5 269s273 92 443 92c124.667 0 257.667 -17.667 399 -53v-377
c-66 30 -129.333 50.833 -190 62.5s-127 17.5 -199 17.5c-118.667 0 -213.167 -35.667 -283.5 -107s-105.5 -169.333 -105.5 -294c0 -119.333 29.5 -212.666 88.5 -279.999s141.5 -101 247.5 -101c49.333 0 85.666 2.66699 108.999 8v205h-275v327h707v-772zM1031 -107.002
l-201 -364h-220l63 364h358z" />
    <glyph glyph-name="gcommaaccent" unicode="&#x123;" horiz-adv-x="1315" 
d="M651 1541h219l-84 -322h-358zM1212 143c0 -196.667 -61.8311 -349.835 -185.498 -459.502s-304.167 -164.5 -541.5 -164.5c-64 0 -126 5 -186 15s-103 21.333 -129 34v334c42.667 -26.667 92.667 -48 150 -64s108.333 -24 153 -24c95.333 0 171.666 23 228.999 69
s86 107 86 183v63h-4c-30.667 -46.667 -72.834 -84 -126.501 -112s-111.167 -42 -172.5 -42c-132 0 -236.333 45.833 -313 137.5s-115 218.167 -115 379.5c0 110.667 20 208.334 60 293.001s95.667 149.834 167 195.501s150 68.5 236 68.5c118 0 206 -43.667 264 -131h4v106
h424v-881zM795.002 540.999c0 60 -13.501 107.666 -40.501 142.999s-62.833 53 -107.5 53c-48 0 -86.333 -21.333 -115 -64s-43 -99.667 -43 -171c0 -66 12 -118.333 36 -157s62 -58 114 -58c48.667 0 86.834 19.833 114.501 59.5s41.5 92.834 41.5 159.501v35z" />
    <glyph glyph-name="Hcircumflex" unicode="&#x124;" horiz-adv-x="1645" 
d="M1069 0v535h-496v-535h-432v1434h432v-531h496v531h432v-1434h-432zM969 1567l-148 153l-147 -153h-262l256 321h317l256 -321h-272z" />
    <glyph glyph-name="hcircumflex" unicode="&#x125;" horiz-adv-x="1264" 
d="M762 0v584c0 102 -39 153 -117 153c-38 0 -67 -14.5 -87 -43.5s-30 -66.167 -30 -111.5v-582h-426v1516h426v-631h4c36.667 52.667 81.167 93.167 133.5 121.5s108.5 42.5 168.5 42.5c110.667 0 195 -35.5 253 -106.5s87 -175.5 87 -313.5v-629h-412zM783 1567l-148 153
l-147 -153h-262l256 321h317l256 -321h-272z" />
    <glyph glyph-name="Hbar" unicode="&#x126;" horiz-adv-x="1645" 
d="M1069 0v535h-496v-535h-432v1058h-110v195h110v181h432v-181h496v181h432v-181h113v-195h-113v-1058h-432zM1069 903v155h-496v-155h496z" />
    <glyph glyph-name="hbar" unicode="&#x127;" horiz-adv-x="1264" 
d="M528 1155v-300h4c36.667 52.667 81.167 93.167 133.5 121.5s108.5 42.5 168.5 42.5c110.667 0 195 -35.5 253 -106.5s87 -175.5 87 -313.5v-599h-412v554c0 102 -39 153 -117 153c-38 0 -67 -14.5 -87 -43.5s-30 -66.167 -30 -111.5v-552h-426v1155h-102v195h102v166h426
v-166h276v-195h-276z" />
    <glyph glyph-name="Itilde" unicode="&#x128;" horiz-adv-x="772" 
d="M141 0v1434h432v-1434h-432zM781 1903c0 -110 -19.998 -194.167 -59.998 -252.5s-97.667 -87.5 -173 -87.5c-58.667 0 -115.334 16.333 -170.001 49l-62.5 38c-19 12 -39.167 18 -60.5 18c-25.333 0 -45.333 -10.333 -60 -31s-22 -50 -22 -88h-174
c0 113.333 20.5 198.333 61.5 255s96.833 85 167.5 85c68 0 131 -19.333 189 -58c19.333 -12 37.666 -22.833 54.999 -32.5s36.333 -14.5 57 -14.5c22.667 0 41 9.83301 55 29.5s21 49.5 21 89.5h176z" />
    <glyph glyph-name="itilde" unicode="&#x129;" horiz-adv-x="631" 
d="M102 0v1024h426v-1024h-426zM708 1540c0 -110 -19.998 -194.167 -59.998 -252.5s-97.667 -87.5 -173 -87.5c-58.667 0 -115.334 16.333 -170.001 49l-62.5 38c-19 12 -39.167 18 -60.5 18c-25.333 0 -45.333 -10.333 -60 -31s-22 -50 -22 -88h-174
c0 113.333 20.5 198.333 61.5 255s96.833 85 167.5 85c68 0 131 -19.333 189 -58c19.333 -12 37.666 -22.833 54.999 -32.5s36.333 -14.5 57 -14.5c22.667 0 41 9.83301 55 29.5s21 49.5 21 89.5h176z" />
    <glyph glyph-name="Imacron" unicode="&#x12a;" horiz-adv-x="714" 
d="M141 0v1434h432v-1434h-432zM31 1568v223h655v-223h-655z" />
    <glyph glyph-name="imacron" unicode="&#x12b;" horiz-adv-x="631" 
d="M102 0v1024h426v-1024h-426zM-13 1187v223h655v-223h-655z" />
    <glyph glyph-name="Ibreve" unicode="&#x12c;" horiz-adv-x="772" 
d="M141 0v1434h432v-1434h-432zM777 1913c-10.667 -111.333 -49.665 -196.831 -116.998 -256.498s-159.333 -89.5 -276 -89.5c-74.667 0 -141 14.667 -199 44s-103.333 70.666 -136 123.999s-49.334 112.666 -50.001 177.999h240c6.66699 -36.667 23 -65.667 49 -87
s60 -32 102 -32c41.333 0 74.666 10.667 99.999 32s41.333 50.333 48 87h239z" />
    <glyph glyph-name="ibreve" unicode="&#x12d;" horiz-adv-x="631" 
d="M102 0v1024h426v-1024h-426zM705 1532c-10.667 -111.333 -49.665 -196.831 -116.998 -256.498s-159.333 -89.5 -276 -89.5c-74.667 0 -141 14.667 -199 44s-103.333 70.666 -136 123.999s-49.334 112.666 -50.001 177.999h240c6.66699 -36.667 23 -65.667 49 -87
s60 -32 102 -32c41.333 0 74.666 10.667 99.999 32s41.333 50.333 48 87h239z" />
    <glyph glyph-name="Iogonek" unicode="&#x12e;" horiz-adv-x="714" 
d="M141 0v1434h432v-1434h-432zM425 0c-16 -25.333 -29.999 -53.832 -41.999 -85.499s-18 -60.167 -18 -85.5c0 -24.667 6.66699 -43.334 20 -56.001s31 -19 53 -19c37.333 0 76.666 9.33301 117.999 28v-154c-22.667 -12.667 -51.5 -23.167 -86.5 -31.5
s-66.167 -12.5 -93.5 -12.5c-77.333 0 -135.333 18.167 -174 54.5s-58 85.833 -58 148.5c0 38.667 9.16699 76.5 27.5 113.5s43.833 70.167 76.5 99.5h177z" />
    <glyph glyph-name="iogonek" unicode="&#x12f;" horiz-adv-x="631" 
d="M390 0c-16 -25.333 -29.999 -53.832 -41.999 -85.499s-18 -60.167 -18 -85.5c0 -24.667 6.66699 -43.334 20 -56.001s31 -19 53 -19c37.333 0 76.666 9.33301 117.999 28v-154c-22.667 -12.667 -51.5 -23.167 -86.5 -31.5s-66.167 -12.5 -93.5 -12.5
c-77.333 0 -135.333 18.167 -174 54.5s-58 85.833 -58 148.5c0 38.667 9.16699 76.5 27.5 113.5s43.833 70.167 76.5 99.5h-111v1024h426v-1024h-138zM553.001 1300c0 -60 -21.834 -108.667 -65.501 -146s-101.167 -56 -172.5 -56c-69.333 0 -126.166 19.333 -170.499 58
s-66.5 86.667 -66.5 144c0 58.667 21.5 106.167 64.5 142.5s100.5 54.5 172.5 54.5c71.333 0 128.833 -18.167 172.5 -54.5s65.5 -83.833 65.5 -142.5z" />
    <glyph glyph-name="Idotaccent" unicode="&#x130;" horiz-adv-x="714" 
d="M141 0v1434h432v-1434h-432zM559 1731c0 -48.667 -17.668 -88.167 -53.001 -118.5s-81.666 -45.5 -138.999 -45.5c-56 0 -102.167 15.667 -138.5 47s-54.5 70.333 -54.5 117c0 48 17.833 86.5 53.5 115.5s82.167 43.5 139.5 43.5c58 0 104.5 -14.5 139.5 -43.5
s52.5 -67.5 52.5 -115.5z" />
    <glyph glyph-name="dotlessi" unicode="&#x131;" horiz-adv-x="631" 
d="M102 0v1024h426v-1024h-426z" />
    <glyph glyph-name="IJ" unicode="&#x132;" horiz-adv-x="1823" 
d="M141 0v1434h432v-1434h-432zM1698 612c0 -424.667 -206.332 -637.001 -618.999 -637.001c-33.333 0 -73.333 4 -120 12s-94 20 -142 36v399c34 -23.333 71.833 -42.166 113.5 -56.499s76.167 -21.5 103.5 -21.5c77.333 0 135.166 23.833 173.499 71.5
s57.5 121.5 57.5 221.5v797h433v-822z" />
    <glyph glyph-name="ij" unicode="&#x133;" horiz-adv-x="1262" 
d="M553 1300c0 -60 -21.834 -108.667 -65.501 -146s-101.167 -56 -172.5 -56c-69.333 0 -126.166 19.333 -170.499 58s-66.5 86.667 -66.5 144c0 58.667 21.5 106.167 64.5 142.5s100.5 54.5 172.5 54.5c71.333 0 128.833 -18.167 172.5 -54.5s65.5 -83.833 65.5 -142.5z
M101.999 0v1024h426v-1024h-426zM1184 1300c0 -60 -21.834 -108.667 -65.501 -146s-101.167 -56 -172.5 -56c-69.333 0 -126.166 19.333 -170.499 58s-66.5 86.667 -66.5 144c0 58.667 21.5 106.167 64.5 142.5s100.5 54.5 172.5 54.5c71.333 0 128.833 -18.167 172.5 -54.5
s65.5 -83.833 65.5 -142.5zM1159 -10c0 -90 -17.665 -172.167 -52.998 -246.5s-87.333 -130.333 -156 -168s-150.334 -56.5 -245.001 -56.5c-52 0 -108.667 10 -170 30v312c37.333 -20.667 71.333 -31 102 -31c35.333 0 60.166 11.833 74.499 35.5s21.5 59.5 21.5 107.5
v1051h426v-1034z" />
    <glyph glyph-name="Jcircumflex" unicode="&#x134;" horiz-adv-x="1047" 
d="M922 612c0 -424.667 -206.332 -637.001 -618.999 -637.001c-33.333 0 -73.333 4 -120 12s-94 20 -142 36v399c34 -23.333 71.833 -42.166 113.5 -56.499s76.167 -21.5 103.5 -21.5c77.333 0 135.166 23.833 173.499 71.5s57.5 121.5 57.5 221.5v797h433v-822z
M845.001 1567l-148 153l-147 -153h-262l256 321h317l256 -321h-272z" />
    <glyph glyph-name="jcircumflex" unicode="&#x135;" horiz-adv-x="631" 
d="M528 -10c0 -90 -17.665 -172.167 -52.998 -246.5s-87.333 -130.333 -156 -168s-150.334 -56.5 -245.001 -56.5c-52 0 -108.667 10 -170 30v312c37.333 -20.667 71.333 -31 102 -31c35.333 0 60.166 11.833 74.499 35.5s21.5 59.5 21.5 107.5v1051h426v-1034z
M459.002 1186l-148 153l-147 -153h-262l256 321h317l256 -321h-272z" />
    <glyph glyph-name="Kcommaaccent" unicode="&#x136;" horiz-adv-x="1413" 
d="M934 0l-318 606c-21.333 48 -34 81 -38 99h-5v-705h-432v1434h432v-682h5c12.667 36 27 69.333 43 100l286 582h512l-407 -684l446 -750h-524zM945 -107l-201 -364h-220l63 364h358z" />
    <glyph glyph-name="kcommaaccent" unicode="&#x137;" horiz-adv-x="1214" 
d="M760 0l-228 526h-4v-526h-426v1516h426v-973h4l207 481h480l-277 -469l293 -555h-475zM828 -107l-201 -364h-220l63 364h358z" />
    <glyph glyph-name="kgreenlandic" unicode="&#x138;" horiz-adv-x="1214" 
d="M760 0l-228 526h-4v-526h-426v1023h426v-480h4l207 481h480l-277 -469l293 -555h-475z" />
    <glyph glyph-name="Lacute" unicode="&#x139;" horiz-adv-x="1108" 
d="M141 0v1434h432v-1096h494v-338h-926zM590 1567h-301l299 321h358z" />
    <glyph glyph-name="lacute" unicode="&#x13a;" horiz-adv-x="631" 
d="M102 0v1516h426v-1516h-426zM388 1649h-301l299 321h358z" />
    <glyph glyph-name="Lcommaaccent" unicode="&#x13b;" horiz-adv-x="1108" 
d="M679 0l-0.00195312 -66.002c130 -9.33301 195 -68.666 195 -177.999c0 -74 -30.167 -130.667 -90.5 -170s-146.166 -59 -257.499 -59c-35.333 0 -73.666 2 -114.999 6v172c24.667 -5.33301 52 -8 82 -8c38 0 66.667 5.5 86 16.5s29 25.167 29 42.5
c0 20.667 -7.83301 35.834 -23.5 45.501s-42.167 14.5 -79.5 14.5h-18l-21 -2v186h-325v1434h432v-1096h494v-338h-388z" />
    <glyph glyph-name="lcommaaccent" unicode="&#x13c;" horiz-adv-x="631" 
d="M379 0l-0.00195312 -66.002c130 -9.33301 195 -68.666 195 -177.999c0 -74 -30.167 -130.667 -90.5 -170s-146.166 -59 -257.499 -59c-35.333 0 -73.666 2 -114.999 6v172c24.667 -5.33301 52 -8 82 -8c38 0 66.667 5.5 86 16.5s29 25.167 29 42.5
c0 20.667 -7.83301 35.834 -23.5 45.501s-42.167 14.5 -79.5 14.5h-18l-21 -2v186h-64v1516h426v-1516h-149z" />
    <glyph glyph-name="Lcaron" unicode="&#x13d;" horiz-adv-x="1108" 
d="M141 0v1434h432v-1096h494v-338h-926zM1118 1433l-201 -364h-220l63 364h358z" />
    <glyph glyph-name="lcaron" unicode="&#x13e;" horiz-adv-x="978" 
d="M102 0v1516h426v-1516h-426zM1018 1516l-201 -364h-220l63 364h358z" />
    <glyph glyph-name="Ldot" unicode="&#x13f;" horiz-adv-x="1108" 
d="M141 0v1434h432v-1096h494v-338h-926zM1063 765c0 -48.667 -17.668 -88.167 -53.001 -118.5s-81.666 -45.5 -138.999 -45.5c-56 0 -102.167 15.667 -138.5 47s-54.5 70.333 -54.5 117c0 48 17.833 86.5 53.5 115.5s82.167 43.5 139.5 43.5c58 0 104.5 -14.5 139.5 -43.5
s52.5 -67.5 52.5 -115.5z" />
    <glyph glyph-name="ldot" unicode="&#x140;" horiz-adv-x="1024" 
d="M102 0v1516h426v-1516h-426zM1016 704c0 -48.667 -17.668 -88.167 -53.001 -118.5s-81.666 -45.5 -138.999 -45.5c-56 0 -102.167 15.667 -138.5 47s-54.5 70.333 -54.5 117c0 48 17.833 86.5 53.5 115.5s82.167 43.5 139.5 43.5c58 0 104.5 -14.5 139.5 -43.5
s52.5 -67.5 52.5 -115.5z" />
    <glyph glyph-name="Lslash" unicode="&#x141;" horiz-adv-x="1108" 
d="M141 0v406l-153 -66v338l153 65v691h432v-506l261 110v-338l-261 -110v-252h494v-338h-926z" />
    <glyph glyph-name="lslash" unicode="&#x142;" horiz-adv-x="692" 
d="M559 651v-651h-426v399l-98 -57v322l98 57v795h426v-543l103 59v-321z" />
    <glyph glyph-name="Nacute" unicode="&#x143;" horiz-adv-x="1663" 
d="M1143 0l-506 692c-40 54.667 -72.667 104 -98 148h-4c4 -70.667 6 -150 6 -238v-602h-400v1434h408l485 -658l22 -31l26 -37l24.5 -37c7.66699 -12 13.5 -22.667 17.5 -32h4c-4 29.333 -6 80 -6 152v643h400v-1434h-379zM884 1567h-301l299 321h358z" />
    <glyph glyph-name="nacute" unicode="&#x144;" horiz-adv-x="1282" 
d="M766 0l0.00195312 559.001c0 63.333 -9.5 108.833 -28.5 136.5s-49.833 41.5 -92.5 41.5c-36.667 0 -65.334 -14.333 -86.001 -43s-31 -65.334 -31 -110.001v-584h-426v1024h426v-160h4c34 58.667 79.667 104.167 137 136.5s119.666 48.5 186.999 48.5
c224 0 336 -141.333 336 -424v-625h-426zM714.002 1186h-301l299 321h358z" />
    <glyph glyph-name="Ncommaaccent" unicode="&#x145;" horiz-adv-x="1663" 
d="M1143 0l-506 692c-40 54.667 -72.667 104 -98 148h-4c4 -70.667 6 -150 6 -238v-602h-400v1434h408l485 -658l22 -31l26 -37l24.5 -37c7.66699 -12 13.5 -22.667 17.5 -32h4c-4 29.333 -6 80 -6 152v643h400v-1434h-379zM1040 -107l-201 -364h-220l63 364h358z" />
    <glyph glyph-name="ncommaaccent" unicode="&#x146;" horiz-adv-x="1282" 
d="M766 0l0.00195312 559.001c0 63.333 -9.5 108.833 -28.5 136.5s-49.833 41.5 -92.5 41.5c-36.667 0 -65.334 -14.333 -86.001 -43s-31 -65.334 -31 -110.001v-584h-426v1024h426v-160h4c34 58.667 79.667 104.167 137 136.5s119.666 48.5 186.999 48.5
c224 0 336 -141.333 336 -424v-625h-426zM835.002 -106.999l-201 -364h-220l63 364h358z" />
    <glyph glyph-name="Ncaron" unicode="&#x147;" horiz-adv-x="1663" 
d="M1143 0l-506 692c-40 54.667 -72.667 104 -98 148h-4c4 -70.667 6 -150 6 -238v-602h-400v1434h408l485 -658l22 -31l26 -37l24.5 -37c7.66699 -12 13.5 -22.667 17.5 -32h4c-4 29.333 -6 80 -6 152v643h400v-1434h-379zM1246 1888l-256 -321h-317l-256 321h262l147 -153
l148 153h272z" />
    <glyph glyph-name="ncaron" unicode="&#x148;" horiz-adv-x="1282" 
d="M766 0l0.00195312 559.001c0 63.333 -9.5 108.833 -28.5 136.5s-49.833 41.5 -92.5 41.5c-36.667 0 -65.334 -14.333 -86.001 -43s-31 -65.334 -31 -110.001v-584h-426v1024h426v-160h4c34 58.667 79.667 104.167 137 136.5s119.666 48.5 186.999 48.5
c224 0 336 -141.333 336 -424v-625h-426zM1059 1507l-256 -321h-317l-256 321h262l147 -153l148 153h272z" />
    <glyph glyph-name="napostrophe" unicode="&#x149;" horiz-adv-x="1610" 
d="M223 1024h-248l123 444h366zM1094 0l0.00195312 559.001c0 63.333 -9.5 108.833 -28.5 136.5s-49.833 41.5 -92.5 41.5c-36.667 0 -65.334 -14.333 -86.001 -43s-31 -65.334 -31 -110.001v-584h-426v1024h426v-160h4c34 58.667 79.667 104.167 137 136.5
s119.666 48.5 186.999 48.5c224 0 336 -141.333 336 -424v-625h-426z" />
    <glyph glyph-name="Eng" unicode="&#x14a;" horiz-adv-x="1663" 
d="M1522 108c0 -200 -45.167 -348.167 -135.5 -444.5s-224.833 -144.5 -403.5 -144.5c-30.667 0 -69 4.33301 -115 13s-85 19.334 -117 32.001v378c22 -12.667 52.333 -24.834 91 -36.501s70.667 -17.5 96 -17.5c51.333 0 90.333 13.833 117 41.5s45 66.167 55 115.5
l-473 647c-40 54.667 -72.667 104 -98 148h-4c4 -70.667 6 -150 6 -238v-602h-400v1434h408l485 -658l22 -31l26 -37l24.5 -37c7.66699 -12 13.5 -22.667 17.5 -32h4c-4 29.333 -6 80 -6 152v643h400v-1326z" />
    <glyph glyph-name="eng" unicode="&#x14b;" horiz-adv-x="1282" 
d="M766 559c0 63.333 -9.49707 108.834 -28.4971 136.501s-49.833 41.5 -92.5 41.5c-36.667 0 -65.334 -14.333 -86.001 -43s-31 -65.334 -31 -110.001v-584h-426v1024h426v-160h4c34 58.667 79.667 104.167 137 136.5s119.666 48.5 186.999 48.5
c224 0 336 -141.333 336 -424v-625c-3.33301 -90 -23.5 -170 -60.5 -240s-89 -122.667 -156 -158s-146.167 -53 -237.5 -53c-52 0 -108.667 10 -170 30v312c37.333 -20.667 71.333 -31 102 -31c35.333 0 60.166 11.833 74.499 35.5s21.5 59.5 21.5 107.5v556z" />
    <glyph glyph-name="Omacron" unicode="&#x14c;" horiz-adv-x="1567" 
d="M1505 721c0 -144 -31 -272.833 -93 -386.5s-148.667 -202 -260 -265s-236 -94.5 -374 -94.5c-134.667 0 -257.167 30.5 -367.5 91.5s-196.166 146.667 -257.499 257s-92 235.166 -92 374.499c0 146 31 277.333 93 394s149 206.834 261 270.501s239.333 95.5 382 95.5
c137.333 0 260.166 -30.5 368.499 -91.5s192 -148 251 -261s88.5 -241.167 88.5 -384.5zM1047 709c0 118 -22.667 210.999 -68 278.999s-107.333 102 -186 102c-86 0 -153 -32.667 -201 -98s-72 -157.666 -72 -276.999c0 -116.667 23.833 -207.667 71.5 -273
s112.5 -98 194.5 -98c50 0 95 14.667 135 44s71 71.333 93 126s33 119.667 33 195zM454 1568v223h655v-223h-655z" />
    <glyph glyph-name="omacron" unicode="&#x14d;" horiz-adv-x="1298" 
d="M1241 530c0 -172.667 -52.168 -308.332 -156.501 -406.999s-250.166 -148 -437.499 -148c-186 0 -330.833 48.167 -434.5 144.5s-155.5 229.166 -155.5 398.499c0 108.667 24.333 203 73 283s118 141.333 208 184s193.667 64 311 64c121.333 0 226.5 -22.333 315.5 -67
s157.333 -106.667 205 -186s71.5 -168 71.5 -266zM808.999 528.002c0 139.333 -53.333 209 -160 209s-160 -73 -160 -219c0 -154 54 -231 162 -231c105.333 0 158 80.333 158 241zM319.999 1187v223h655v-223h-655z" />
    <glyph glyph-name="Obreve" unicode="&#x14e;" horiz-adv-x="1567" 
d="M1505 721c0 -144 -31 -272.833 -93 -386.5s-148.667 -202 -260 -265s-236 -94.5 -374 -94.5c-134.667 0 -257.167 30.5 -367.5 91.5s-196.166 146.667 -257.499 257s-92 235.166 -92 374.499c0 146 31 277.333 93 394s149 206.834 261 270.501s239.333 95.5 382 95.5
c137.333 0 260.166 -30.5 368.499 -91.5s192 -148 251 -261s88.5 -241.167 88.5 -384.5zM1047 709c0 118 -22.667 210.999 -68 278.999s-107.333 102 -186 102c-86 0 -153 -32.667 -201 -98s-72 -157.666 -72 -276.999c0 -116.667 23.833 -207.667 71.5 -273
s112.5 -98 194.5 -98c50 0 95 14.667 135 44s71 71.333 93 126s33 119.667 33 195zM1172 1913c-10.667 -111.333 -49.665 -196.831 -116.998 -256.498s-159.333 -89.5 -276 -89.5c-74.667 0 -141 14.667 -199 44s-103.333 70.666 -136 123.999
s-49.334 112.666 -50.001 177.999h240c6.66699 -36.667 23 -65.667 49 -87s60 -32 102 -32c41.333 0 74.666 10.667 99.999 32s41.333 50.333 48 87h239z" />
    <glyph glyph-name="obreve" unicode="&#x14f;" horiz-adv-x="1298" 
d="M1241 530c0 -172.667 -52.168 -308.332 -156.501 -406.999s-250.166 -148 -437.499 -148c-186 0 -330.833 48.167 -434.5 144.5s-155.5 229.166 -155.5 398.499c0 108.667 24.333 203 73 283s118 141.333 208 184s193.667 64 311 64c121.333 0 226.5 -22.333 315.5 -67
s157.333 -106.667 205 -186s71.5 -168 71.5 -266zM808.999 528.002c0 139.333 -53.333 209 -160 209s-160 -73 -160 -219c0 -154 54 -231 162 -231c105.333 0 158 80.333 158 241zM1037 1532c-10.667 -111.333 -49.665 -196.831 -116.998 -256.498
s-159.333 -89.5 -276 -89.5c-74.667 0 -141 14.667 -199 44s-103.333 70.666 -136 123.999s-49.334 112.666 -50.001 177.999h240c6.66699 -36.667 23 -65.667 49 -87s60 -32 102 -32c41.333 0 74.666 10.667 99.999 32s41.333 50.333 48 87h239z" />
    <glyph glyph-name="Ohungarumlaut" unicode="&#x150;" horiz-adv-x="1567" 
d="M1505 721c0 -144 -31 -272.833 -93 -386.5s-148.667 -202 -260 -265s-236 -94.5 -374 -94.5c-134.667 0 -257.167 30.5 -367.5 91.5s-196.166 146.667 -257.499 257s-92 235.166 -92 374.499c0 146 31 277.333 93 394s149 206.834 261 270.501s239.333 95.5 382 95.5
c137.333 0 260.166 -30.5 368.499 -91.5s192 -148 251 -261s88.5 -241.167 88.5 -384.5zM1047 709c0 118 -22.667 210.999 -68 278.999s-107.333 102 -186 102c-86 0 -153 -32.667 -201 -98s-72 -157.666 -72 -276.999c0 -116.667 23.833 -207.667 71.5 -273
s112.5 -98 194.5 -98c50 0 95 14.667 135 44s71 71.333 93 126s33 119.667 33 195zM1168 1567h-303l217 323h346zM682 1567h-303l217 323h346z" />
    <glyph glyph-name="ohungarumlaut" unicode="&#x151;" horiz-adv-x="1298" 
d="M1241 530c0 -172.667 -52.168 -308.332 -156.501 -406.999s-250.166 -148 -437.499 -148c-186 0 -330.833 48.167 -434.5 144.5s-155.5 229.166 -155.5 398.499c0 108.667 24.333 203 73 283s118 141.333 208 184s193.667 64 311 64c121.333 0 226.5 -22.333 315.5 -67
s157.333 -106.667 205 -186s71.5 -168 71.5 -266zM808.999 528.002c0 139.333 -53.333 209 -160 209s-160 -73 -160 -219c0 -154 54 -231 162 -231c105.333 0 158 80.333 158 241zM1034 1186h-303l217 323h346zM547.999 1186h-303l217 323h346z" />
    <glyph glyph-name="OE" unicode="&#x152;" horiz-adv-x="1954" 
d="M979 0c-56 -16.667 -129.667 -24.999 -221 -24.999c-134.667 0 -255 31 -361 93s-188.5 149 -247.5 261s-88.5 235 -88.5 369c0 148 29.833 280 89.5 396s144 205.667 253 269s233.167 95 372.5 95c41.333 0 83.333 -2.33301 126 -7s75 -10.334 97 -17.001h859v-338h-461
v-209h432v-338h-432v-211h493v-338h-911zM946 1022c-43.333 45.333 -94.332 68 -152.999 68c-86.667 0 -153.834 -33.167 -201.501 -99.5s-71.5 -161.5 -71.5 -285.5c0 -113.333 23.5 -201.833 70.5 -265.5s112.167 -95.5 195.5 -95.5c62.667 0 116 22 160 66v612z" />
    <glyph glyph-name="oe" unicode="&#x153;" horiz-adv-x="1898" 
d="M1221 391c7.33301 -44.667 32.502 -79.332 75.502 -103.999s100.167 -37 171.5 -37c48.667 0 98.667 5.33301 150 16s95.666 24.334 132.999 41.001v-270c-46.667 -18.667 -101 -33.667 -163 -45s-119.667 -17 -173 -17c-156.667 0 -290.334 55.333 -401.001 166h-4
c-42 -49.333 -97.833 -89 -167.5 -119s-149.834 -45 -240.501 -45c-104 0 -197.5 21.667 -280.5 65s-147.833 106 -194.5 188s-70 178.667 -70 290c0 106.667 22.833 200.167 68.5 280.5s109.667 142.166 192 185.499s175.166 65 278.499 65c78 0 151.333 -12.333 220 -37
s126.334 -60.334 173.001 -107.001h4c42.667 46.667 96.5 82 161.5 106s136.833 36 215.5 36c100.667 0 187.334 -21 260.001 -63s128 -101 166 -177s57 -162 57 -258v-160h-632zM1477 614.002c0 118 -42.333 177 -127 177c-36 0 -65.833 -16.5 -89.5 -49.5
s-37.5 -75.5 -41.5 -127.5h258zM809.002 526.002c0 65.333 -13.667 117.167 -41 155.5s-66.333 57.5 -117 57.5c-108 0 -162 -73 -162 -219c0 -154 54 -231 162 -231c105.333 0 158 79 158 237z" />
    <glyph glyph-name="Racute" unicode="&#x154;" horiz-adv-x="1397" 
d="M885 0l-107.001 309c-20.667 60.667 -47.5 108.334 -80.5 143.001s-68.833 52 -107.5 52h-17v-504h-432v1434h574c200.667 0 348.834 -32.833 444.501 -98.5s143.5 -164.167 143.5 -295.5c0 -98.667 -27.833 -181.334 -83.5 -248.001s-138.5 -115 -248.5 -145v-4
c60.667 -18.667 111.167 -49 151.5 -91s76.5 -104.333 108.5 -187l141 -365h-487zM843.999 979c0 48 -14.667 86 -44 114s-75.333 42 -138 42h-89v-328h78c58 0 104.667 16.333 140 49s53 73.667 53 123zM750.999 1567h-301l299 321h358z" />
    <glyph glyph-name="racute" unicode="&#x155;" horiz-adv-x="893" 
d="M872 659c-16 7.33301 -37.666 13.999 -64.999 19.999s-50 9 -68 9c-140.667 0 -211 -81.333 -211 -244v-444h-426v1024h426v-180h4c26 64.667 63 113.834 111 147.501s104 50.5 168 50.5c23.333 0 43.666 -4 60.999 -12v-371zM519.001 1186h-301l299 321h358z" />
    <glyph glyph-name="Rcommaaccent" unicode="&#x156;" horiz-adv-x="1397" 
d="M885 0l-107.001 309c-20.667 60.667 -47.5 108.334 -80.5 143.001s-68.833 52 -107.5 52h-17v-504h-432v1434h574c200.667 0 348.834 -32.833 444.501 -98.5s143.5 -164.167 143.5 -295.5c0 -98.667 -27.833 -181.334 -83.5 -248.001s-138.5 -115 -248.5 -145v-4
c60.667 -18.667 111.167 -49 151.5 -91s76.5 -104.333 108.5 -187l141 -365h-487zM843.999 979c0 48 -14.667 86 -44 114s-75.333 42 -138 42h-89v-328h78c58 0 104.667 16.333 140 49s53 73.667 53 123zM915.999 -107l-201 -364h-220l63 364h358z" />
    <glyph glyph-name="rcommaaccent" unicode="&#x157;" horiz-adv-x="893" 
d="M872 659c-16 7.33301 -37.666 13.999 -64.999 19.999s-50 9 -68 9c-140.667 0 -211 -81.333 -211 -244v-444h-426v1024h426v-180h4c26 64.667 63 113.834 111 147.501s104 50.5 168 50.5c23.333 0 43.666 -4 60.999 -12v-371zM529.001 -107.001l-201 -364h-220l63 364
h358z" />
    <glyph glyph-name="Rcaron" unicode="&#x158;" horiz-adv-x="1397" 
d="M885 0l-107.001 309c-20.667 60.667 -47.5 108.334 -80.5 143.001s-68.833 52 -107.5 52h-17v-504h-432v1434h574c200.667 0 348.834 -32.833 444.501 -98.5s143.5 -164.167 143.5 -295.5c0 -98.667 -27.833 -181.334 -83.5 -248.001s-138.5 -115 -248.5 -145v-4
c60.667 -18.667 111.167 -49 151.5 -91s76.5 -104.333 108.5 -187l141 -365h-487zM843.999 979c0 48 -14.667 86 -44 114s-75.333 42 -138 42h-89v-328h78c58 0 104.667 16.333 140 49s53 73.667 53 123zM1085 1888l-256 -321h-317l-256 321h262l147 -153l148 153h272z" />
    <glyph glyph-name="rcaron" unicode="&#x159;" horiz-adv-x="893" 
d="M872 659c-16 7.33301 -37.666 13.999 -64.999 19.999s-50 9 -68 9c-140.667 0 -211 -81.333 -211 -244v-444h-426v1024h426v-180h4c26 64.667 63 113.834 111 147.501s104 50.5 168 50.5c23.333 0 43.666 -4 60.999 -12v-371zM884.001 1507l-256 -321h-317l-256 321h262
l147 -153l148 153h272z" />
    <glyph glyph-name="Sacute" unicode="&#x15a;" horiz-adv-x="1171" 
d="M1137 434c0 -95.333 -25.501 -178.332 -76.501 -248.999s-122.5 -123.334 -214.5 -158.001s-202.667 -52 -332 -52c-150 0 -287.333 25.333 -412 76v393c60 -44 126.333 -79.5 199 -106.5s140.334 -40.5 203.001 -40.5c47.333 0 84 8.5 110 25.5s39 41.833 39 74.5
c0 23.333 -6.5 43.833 -19.5 61.5s-32.667 34.167 -59 49.5s-75.166 36.333 -146.499 63c-230.667 88.667 -346 232 -346 430c0 138.667 52.667 249.5 158 332.5s246.666 124.5 423.999 124.5c50 0 96 -2 138 -6s80.167 -9 114.5 -15s82.5 -17.333 144.5 -34v-365
c-120.667 66 -239.334 99 -356.001 99c-48 0 -86.667 -9 -116 -27s-44 -42.667 -44 -74c0 -30 11.833 -54.833 35.5 -74.5s73.167 -45.167 148.5 -76.5c148.667 -60 253.834 -125.667 315.501 -197s92.5 -156 92.5 -254zM637.999 1567h-301l299 321h358z" />
    <glyph glyph-name="sacute" unicode="&#x15b;" horiz-adv-x="989" 
d="M934 340c0 -116 -44.166 -205.832 -132.499 -269.499s-211.5 -95.5 -369.5 -95.5c-46 0 -102.833 4.66699 -170.5 14s-122.834 20.666 -165.501 33.999v299c126 -56 231.333 -84 316 -84c83.333 0 125 21.667 125 65c0 18 -9.66699 32.833 -29 44.5s-70 31.167 -152 58.5
c-90.667 28.667 -156.667 66.667 -198 114s-62 109 -62 185c0 106 42.167 189.833 126.5 251.5s202.833 92.5 355.5 92.5c89.333 0 184 -13 284 -39v-287c-42 18 -88 33 -138 45s-92 18 -126 18c-28 0 -50.333 -4.66699 -67 -14s-25 -22.333 -25 -39c0 -19.333 9 -35 27 -47
s54 -26.333 108 -43c104.667 -30.667 179.667 -70 225 -118s68 -109.667 68 -185zM547.001 1186h-301l299 321h358z" />
    <glyph glyph-name="Scircumflex" unicode="&#x15c;" horiz-adv-x="1171" 
d="M1137 434c0 -95.333 -25.501 -178.332 -76.501 -248.999s-122.5 -123.334 -214.5 -158.001s-202.667 -52 -332 -52c-150 0 -287.333 25.333 -412 76v393c60 -44 126.333 -79.5 199 -106.5s140.334 -40.5 203.001 -40.5c47.333 0 84 8.5 110 25.5s39 41.833 39 74.5
c0 23.333 -6.5 43.833 -19.5 61.5s-32.667 34.167 -59 49.5s-75.166 36.333 -146.499 63c-230.667 88.667 -346 232 -346 430c0 138.667 52.667 249.5 158 332.5s246.666 124.5 423.999 124.5c50 0 96 -2 138 -6s80.167 -9 114.5 -15s82.5 -17.333 144.5 -34v-365
c-120.667 66 -239.334 99 -356.001 99c-48 0 -86.667 -9 -116 -27s-44 -42.667 -44 -74c0 -30 11.833 -54.833 35.5 -74.5s73.167 -45.167 148.5 -76.5c148.667 -60 253.834 -125.667 315.501 -197s92.5 -156 92.5 -254zM731.999 1567l-148 153l-147 -153h-262l256 321h317
l256 -321h-272z" />
    <glyph glyph-name="scircumflex" unicode="&#x15d;" horiz-adv-x="989" 
d="M934 340c0 -116 -44.166 -205.832 -132.499 -269.499s-211.5 -95.5 -369.5 -95.5c-46 0 -102.833 4.66699 -170.5 14s-122.834 20.666 -165.501 33.999v299c126 -56 231.333 -84 316 -84c83.333 0 125 21.667 125 65c0 18 -9.66699 32.833 -29 44.5s-70 31.167 -152 58.5
c-90.667 28.667 -156.667 66.667 -198 114s-62 109 -62 185c0 106 42.167 189.833 126.5 251.5s202.833 92.5 355.5 92.5c89.333 0 184 -13 284 -39v-287c-42 18 -88 33 -138 45s-92 18 -126 18c-28 0 -50.333 -4.66699 -67 -14s-25 -22.333 -25 -39c0 -19.333 9 -35 27 -47
s54 -26.333 108 -43c104.667 -30.667 179.667 -70 225 -118s68 -109.667 68 -185zM639.001 1186l-148 153l-147 -153h-262l256 321h317l256 -321h-272z" />
    <glyph glyph-name="Scedilla" unicode="&#x15e;" horiz-adv-x="1171" 
d="M1137 434c0 -120.667 -40.1689 -220.669 -120.502 -300.002s-196.833 -129 -349.5 -149v-51c130 -9.33301 195 -68.666 195 -177.999c0 -74 -30.167 -130.667 -90.5 -170s-146.166 -59 -257.499 -59c-35.333 0 -73.666 2 -114.999 6v172c24.667 -5.33301 52 -8 82 -8
c38 0 66.667 5.5 86 16.5s29 25.167 29 42.5c0 20.667 -7.83301 35.834 -23.5 45.501s-42.167 14.5 -79.5 14.5h-18l-21 -2l1 163c-128.667 5.33301 -246.334 30 -353.001 74v393c60 -44 126.333 -79.5 199 -106.5s140.334 -40.5 203.001 -40.5c47.333 0 84 8.5 110 25.5
s39 41.833 39 74.5c0 23.333 -6.5 43.833 -19.5 61.5s-32.667 34.167 -59 49.5s-75.166 36.333 -146.499 63c-230.667 88.667 -346 232 -346 430c0 138.667 52.667 249.5 158 332.5s246.666 124.5 423.999 124.5c50 0 96 -2 138 -6s80.167 -9 114.5 -15
s82.5 -17.333 144.5 -34v-365c-120.667 66 -239.334 99 -356.001 99c-48 0 -86.667 -9 -116 -27s-44 -42.667 -44 -74c0 -30 11.833 -54.833 35.5 -74.5s73.167 -45.167 148.5 -76.5c148.667 -60 253.834 -125.667 315.501 -197s92.5 -156 92.5 -254z" />
    <glyph glyph-name="scedilla" unicode="&#x15f;" horiz-adv-x="989" 
d="M934 340c0 -98 -31.502 -177.502 -94.502 -238.502s-152.5 -99.833 -268.5 -116.5v-51c130 -9.33301 195 -68.666 195 -177.999c0 -74 -30.167 -130.667 -90.5 -170s-146.166 -59 -257.499 -59c-35.333 0 -73.666 2 -114.999 6v172c24.667 -5.33301 52 -8 82 -8
c38 0 66.667 5.5 86 16.5s29 25.167 29 42.5c0 20.667 -7.83301 35.834 -23.5 45.501s-42.167 14.5 -79.5 14.5h-18l-21 -2l1 164c-101.333 8.66699 -189 23.667 -263 45v299c126 -56 231.333 -84 316 -84c83.333 0 125 21.667 125 65c0 18 -9.66699 32.833 -29 44.5
s-70 31.167 -152 58.5c-90.667 28.667 -156.667 66.667 -198 114s-62 109 -62 185c0 106 42.167 189.833 126.5 251.5s202.833 92.5 355.5 92.5c89.333 0 184 -13 284 -39v-287c-42 18 -88 33 -138 45s-92 18 -126 18c-28 0 -50.333 -4.66699 -67 -14s-25 -22.333 -25 -39
c0 -19.333 9 -35 27 -47s54 -26.333 108 -43c104.667 -30.667 179.667 -70 225 -118s68 -109.667 68 -185z" />
    <glyph glyph-name="Scaron" unicode="&#x160;" horiz-adv-x="1171" 
d="M1137 434c0 -95.333 -25.501 -178.332 -76.501 -248.999s-122.5 -123.334 -214.5 -158.001s-202.667 -52 -332 -52c-150 0 -287.333 25.333 -412 76v393c60 -44 126.333 -79.5 199 -106.5s140.334 -40.5 203.001 -40.5c47.333 0 84 8.5 110 25.5s39 41.833 39 74.5
c0 23.333 -6.5 43.833 -19.5 61.5s-32.667 34.167 -59 49.5s-75.166 36.333 -146.499 63c-230.667 88.667 -346 232 -346 430c0 138.667 52.667 249.5 158 332.5s246.666 124.5 423.999 124.5c50 0 96 -2 138 -6s80.167 -9 114.5 -15s82.5 -17.333 144.5 -34v-365
c-120.667 66 -239.334 99 -356.001 99c-48 0 -86.667 -9 -116 -27s-44 -42.667 -44 -74c0 -30 11.833 -54.833 35.5 -74.5s73.167 -45.167 148.5 -76.5c148.667 -60 253.834 -125.667 315.501 -197s92.5 -156 92.5 -254zM1011 1857l-256 -321h-317l-256 321h262l147 -153
l148 153h272z" />
    <glyph glyph-name="scaron" unicode="&#x161;" horiz-adv-x="989" 
d="M934 340c0 -116 -44.166 -205.832 -132.499 -269.499s-211.5 -95.5 -369.5 -95.5c-46 0 -102.833 4.66699 -170.5 14s-122.834 20.666 -165.501 33.999v299c126 -56 231.333 -84 316 -84c83.333 0 125 21.667 125 65c0 18 -9.66699 32.833 -29 44.5s-70 31.167 -152 58.5
c-90.667 28.667 -156.667 66.667 -198 114s-62 109 -62 185c0 106 42.167 189.833 126.5 251.5s202.833 92.5 355.5 92.5c89.333 0 184 -13 284 -39v-287c-42 18 -88 33 -138 45s-92 18 -126 18c-28 0 -50.333 -4.66699 -67 -14s-25 -22.333 -25 -39c0 -19.333 9 -35 27 -47
s54 -26.333 108 -43c104.667 -30.667 179.667 -70 225 -118s68 -109.667 68 -185zM915.001 1507l-256 -321h-317l-256 321h262l147 -153l148 153h272z" />
    <glyph glyph-name="Tcommaaccent" unicode="&#x162;" horiz-adv-x="1303" 
d="M866 1096l-0.00195312 -1096h-157v-66c130 -9.33301 195 -68.666 195 -177.999c0 -74 -30.167 -130.667 -90.5 -170s-146.166 -59 -257.499 -59c-35.333 0 -73.666 2 -114.999 6v172c24.667 -5.33301 52 -8 82 -8c38 0 66.667 5.5 86 16.5s29 25.167 29 42.5
c0 20.667 -7.83301 35.834 -23.5 45.501s-42.167 14.5 -79.5 14.5h-18l-21 -2l1 186h-65v1096h-401v338h1241v-338h-406z" />
    <glyph glyph-name="tcommaaccent" unicode="&#x163;" horiz-adv-x="854" 
d="M823 14c-19.333 -9.33301 -51.002 -18.168 -95.002 -26.501s-96.667 -12.5 -158 -12.5v-41c130 -9.33301 195 -68.666 195 -177.999c0 -74 -30.167 -130.667 -90.5 -170s-146.166 -59 -257.499 -59c-35.333 0 -73.666 2 -114.999 6v172c24.667 -5.33301 52 -8 82 -8
c38 0 66.667 5.5 86 16.5s29 25.167 29 42.5c0 20.667 -7.83301 35.834 -23.5 45.501s-42.167 14.5 -79.5 14.5h-18l-21 -2l1 208c-57.333 32 -99.666 76.667 -126.999 134s-41 122.666 -41 195.999v377h-161v295h161v201l420 116v-317h213v-295h-213v-307
c0 -90 35.667 -135 107 -135c33.333 0 68.666 7.33301 105.999 22v-295z" />
    <glyph glyph-name="Tcaron" unicode="&#x164;" horiz-adv-x="1303" 
d="M866 1096v-1096h-434v1096h-401v338h1241v-338h-406zM1070 1888l-256 -321h-317l-256 321h262l147 -153l148 153h272z" />
    <glyph glyph-name="tcaron" unicode="&#x165;" horiz-adv-x="1111" 
d="M823 14c-19.333 -9.33301 -50.999 -18.167 -94.999 -26.5s-97 -12.5 -159 -12.5c-118.667 0 -211.5 32.667 -278.5 98s-100.5 158.333 -100.5 279v377h-161v295h161v201l420 116v-317h213v-295h-213v-307c0 -90 35.667 -135 107 -135c33.333 0 68.666 7.33301 105.999 22
v-295zM1151 1516l-201 -364h-220l63 364h358z" />
    <glyph glyph-name="Tbar" unicode="&#x166;" horiz-adv-x="1303" 
d="M866 1096v-300h286v-194h-286v-602h-434v602h-291v194h291v300h-401v338h1241v-338h-406z" />
    <glyph glyph-name="tbar" unicode="&#x167;" horiz-adv-x="854" 
d="M823 14c-19.333 -9.33301 -50.999 -18.167 -94.999 -26.5s-97 -12.5 -159 -12.5c-118.667 0 -211.5 32.667 -278.5 98s-100.5 158.333 -100.5 279v74h-129v195h129v108h-161v295h161v201l420 116v-317h213v-295h-213v-108h167v-195h-167v-4c0 -90 35.667 -135 107 -135
c33.333 0 68.666 7.33301 105.999 22v-295z" />
    <glyph glyph-name="Utilde" unicode="&#x168;" horiz-adv-x="1516" 
d="M1391 655c0 -230 -52.501 -400.834 -157.501 -512.501s-266.833 -167.5 -485.5 -167.5c-204 0 -358.833 55.833 -464.5 167.5s-158.5 279.834 -158.5 504.501v787h434v-803c0 -92 17.167 -162.833 51.5 -212.5s83.5 -74.5 147.5 -74.5
c64.667 0 113.834 23.333 147.501 70s50.5 115.667 50.5 207v813h435v-779zM1149 1872c0 -110 -19.998 -194.167 -59.998 -252.5s-97.667 -87.5 -173 -87.5c-58.667 0 -115.334 16.333 -170.001 49l-62.5 38c-19 12 -39.167 18 -60.5 18c-25.333 0 -45.333 -10.333 -60 -31
s-22 -50 -22 -88h-174c0 113.333 20.5 198.333 61.5 255s96.833 85 167.5 85c68 0 131 -19.333 189 -58c19.333 -12 37.666 -22.833 54.999 -32.5s36.333 -14.5 57 -14.5c22.667 0 41 9.83301 55 29.5s21 49.5 21 89.5h176z" />
    <glyph glyph-name="utilde" unicode="&#x169;" horiz-adv-x="1282" 
d="M754 0l-0.000976562 158.001h-4c-35.333 -48.667 -67.166 -84.334 -95.499 -107.001s-60.333 -41 -96 -55s-77.167 -21 -124.5 -21c-112 0 -197.333 36.333 -256 109s-88 180 -88 322v618h426v-586c0 -100.667 37.667 -151 113 -151c41.333 0 72.5 13.667 93.5 41
s31.5 66 31.5 116v580h426v-1024h-426zM1032 1540c0 -110 -19.998 -194.167 -59.998 -252.5s-97.667 -87.5 -173 -87.5c-58.667 0 -115.334 16.333 -170.001 49l-62.5 38c-19 12 -39.167 18 -60.5 18c-25.333 0 -45.333 -10.333 -60 -31s-22 -50 -22 -88h-174
c0 113.333 20.5 198.333 61.5 255s96.833 85 167.5 85c68 0 131 -19.333 189 -58c19.333 -12 37.666 -22.833 54.999 -32.5s36.333 -14.5 57 -14.5c22.667 0 41 9.83301 55 29.5s21 49.5 21 89.5h176z" />
    <glyph glyph-name="Umacron" unicode="&#x16a;" horiz-adv-x="1516" 
d="M1391 655c0 -230 -52.501 -400.834 -157.501 -512.501s-266.833 -167.5 -485.5 -167.5c-204 0 -358.833 55.833 -464.5 167.5s-158.5 279.834 -158.5 504.501v787h434v-803c0 -92 17.167 -162.833 51.5 -212.5s83.5 -74.5 147.5 -74.5
c64.667 0 113.834 23.333 147.501 70s50.5 115.667 50.5 207v813h435v-779zM428.999 1568v223h655v-223h-655z" />
    <glyph glyph-name="umacron" unicode="&#x16b;" horiz-adv-x="1282" 
d="M754 0l-0.000976562 158.001h-4c-35.333 -48.667 -67.166 -84.334 -95.499 -107.001s-60.333 -41 -96 -55s-77.167 -21 -124.5 -21c-112 0 -197.333 36.333 -256 109s-88 180 -88 322v618h426v-586c0 -100.667 37.667 -151 113 -151c41.333 0 72.5 13.667 93.5 41
s31.5 66 31.5 116v580h426v-1024h-426zM311.999 1187v223h655v-223h-655z" />
    <glyph glyph-name="Ubreve" unicode="&#x16c;" horiz-adv-x="1516" 
d="M1391 655c0 -230 -52.501 -400.834 -157.501 -512.501s-266.833 -167.5 -485.5 -167.5c-204 0 -358.833 55.833 -464.5 167.5s-158.5 279.834 -158.5 504.501v787h434v-803c0 -92 17.167 -162.833 51.5 -212.5s83.5 -74.5 147.5 -74.5
c64.667 0 113.834 23.333 147.501 70s50.5 115.667 50.5 207v813h435v-779zM1146 1913c-10.667 -111.333 -49.665 -196.831 -116.998 -256.498s-159.333 -89.5 -276 -89.5c-74.667 0 -141 14.667 -199 44s-103.333 70.666 -136 123.999s-49.334 112.666 -50.001 177.999h240
c6.66699 -36.667 23 -65.667 49 -87s60 -32 102 -32c41.333 0 74.666 10.667 99.999 32s41.333 50.333 48 87h239z" />
    <glyph glyph-name="ubreve" unicode="&#x16d;" horiz-adv-x="1282" 
d="M754 0l-0.000976562 158.001h-4c-35.333 -48.667 -67.166 -84.334 -95.499 -107.001s-60.333 -41 -96 -55s-77.167 -21 -124.5 -21c-112 0 -197.333 36.333 -256 109s-88 180 -88 322v618h426v-586c0 -100.667 37.667 -151 113 -151c41.333 0 72.5 13.667 93.5 41
s31.5 66 31.5 116v580h426v-1024h-426zM1029 1532c-10.667 -111.333 -49.665 -196.831 -116.998 -256.498s-159.333 -89.5 -276 -89.5c-74.667 0 -141 14.667 -199 44s-103.333 70.666 -136 123.999s-49.334 112.666 -50.001 177.999h240c6.66699 -36.667 23 -65.667 49 -87
s60 -32 102 -32c41.333 0 74.666 10.667 99.999 32s41.333 50.333 48 87h239z" />
    <glyph glyph-name="Uring" unicode="&#x16e;" horiz-adv-x="1516" 
d="M1391 655c0 -230 -52.501 -400.834 -157.501 -512.501s-266.833 -167.5 -485.5 -167.5c-204 0 -358.833 55.833 -464.5 167.5s-158.5 279.834 -158.5 504.501v787h434v-803c0 -92 17.167 -162.833 51.5 -212.5s83.5 -74.5 147.5 -74.5
c64.667 0 113.834 23.333 147.501 70s50.5 115.667 50.5 207v813h435v-779zM1021 1802c0 -70.667 -25.167 -127.5 -75.5 -170.5s-115.5 -64.5 -195.5 -64.5c-76.667 0 -139.834 21.833 -189.501 65.5s-74.5 100.167 -74.5 169.5c0 48 11.5 89.5 34.5 124.5
s54.833 62 95.5 81s85.334 28.5 134.001 28.5c82.667 0 148.5 -21.5 197.5 -64.5s73.5 -99.5 73.5 -169.5zM846.999 1802c0 21.333 -7.83301 40 -23.5 56s-40.167 24 -73.5 24c-30 0 -52.5 -7.66699 -67.5 -23s-22.5 -34.333 -22.5 -57s8.5 -41.667 25.5 -57
s38.5 -23 64.5 -23c28 0 51.167 7.5 69.5 22.5s27.5 34.167 27.5 57.5z" />
    <glyph glyph-name="uring" unicode="&#x16f;" horiz-adv-x="1282" 
d="M754 0l-0.000976562 158.001h-4c-35.333 -48.667 -67.166 -84.334 -95.499 -107.001s-60.333 -41 -96 -55s-77.167 -21 -124.5 -21c-112 0 -197.333 36.333 -256 109s-88 180 -88 322v618h426v-586c0 -100.667 37.667 -151 113 -151c41.333 0 72.5 13.667 93.5 41
s31.5 66 31.5 116v580h426v-1024h-426zM903.999 1421c0 -70.667 -25.167 -127.5 -75.5 -170.5s-115.5 -64.5 -195.5 -64.5c-76.667 0 -139.834 21.833 -189.501 65.5s-74.5 100.167 -74.5 169.5c0 48 11.5 89.5 34.5 124.5s54.833 62 95.5 81s85.334 28.5 134.001 28.5
c82.667 0 148.5 -21.5 197.5 -64.5s73.5 -99.5 73.5 -169.5zM729.999 1421c0 21.333 -7.83301 40 -23.5 56s-40.167 24 -73.5 24c-30 0 -52.5 -7.66699 -67.5 -23s-22.5 -34.333 -22.5 -57s8.5 -41.667 25.5 -57s38.5 -23 64.5 -23c28 0 51.167 7.5 69.5 22.5
s27.5 34.167 27.5 57.5z" />
    <glyph glyph-name="Uhungarumlaut" unicode="&#x170;" horiz-adv-x="1516" 
d="M1391 655c0 -230 -52.501 -400.834 -157.501 -512.501s-266.833 -167.5 -485.5 -167.5c-204 0 -358.833 55.833 -464.5 167.5s-158.5 279.834 -158.5 504.501v787h434v-803c0 -92 17.167 -162.833 51.5 -212.5s83.5 -74.5 147.5 -74.5
c64.667 0 113.834 23.333 147.501 70s50.5 115.667 50.5 207v813h435v-779zM1143 1567h-303l217 323h346zM656.999 1567h-303l217 323h346z" />
    <glyph glyph-name="uhungarumlaut" unicode="&#x171;" horiz-adv-x="1282" 
d="M754 0l-0.000976562 158.001h-4c-35.333 -48.667 -67.166 -84.334 -95.499 -107.001s-60.333 -41 -96 -55s-77.167 -21 -124.5 -21c-112 0 -197.333 36.333 -256 109s-88 180 -88 322v618h426v-586c0 -100.667 37.667 -151 113 -151c41.333 0 72.5 13.667 93.5 41
s31.5 66 31.5 116v580h426v-1024h-426zM1016 1186h-303l217 323h346zM529.999 1186h-303l217 323h346z" />
    <glyph glyph-name="Uogonek" unicode="&#x172;" horiz-adv-x="1516" 
d="M1391 655c0 -214 -45.167 -376.497 -135.5 -487.497s-227.833 -173.833 -412.5 -188.5c-31.333 -54.667 -47 -104.667 -47 -150c0 -24.667 6.66699 -43.334 20 -56.001s31 -19 53 -19c37.333 0 76.666 9.33301 117.999 28v-154
c-22.667 -12.667 -51.5 -23.167 -86.5 -31.5s-66.167 -12.5 -93.5 -12.5c-77.333 0 -135.333 18.167 -174 54.5s-58 85.833 -58 148.5c0 68.667 27.333 132.667 82 192c-174.667 15.333 -307 78.666 -397 189.999s-135 270.666 -135 477.999v787h434v-803
c0 -92 17.167 -162.833 51.5 -212.5s83.5 -74.5 147.5 -74.5c64.667 0 113.834 23.333 147.501 70s50.5 115.667 50.5 207v813h435v-779z" />
    <glyph glyph-name="uogonek" unicode="&#x173;" horiz-adv-x="1282" 
d="M754 0l-0.000976562 158.001h-4c-35.333 -48.667 -67.166 -84.334 -95.499 -107.001s-60.333 -41 -96 -55s-77.167 -21 -124.5 -21c-112 0 -197.333 36.333 -256 109s-88 180 -88 322v618h426v-586c0 -100.667 37.667 -151 113 -151c41.333 0 72.5 13.667 93.5 41
s31.5 66 31.5 116v580h426v-1024h-426zM962.999 0.000976562c-16 -25.333 -29.999 -53.832 -41.999 -85.499s-18 -60.167 -18 -85.5c0 -24.667 6.66699 -43.334 20 -56.001s31 -19 53 -19c37.333 0 76.666 9.33301 117.999 28v-154
c-22.667 -12.667 -51.5 -23.167 -86.5 -31.5s-66.167 -12.5 -93.5 -12.5c-77.333 0 -135.333 18.167 -174 54.5s-58 85.833 -58 148.5c0 38.667 9.16699 76.5 27.5 113.5s43.833 70.167 76.5 99.5h177z" />
    <glyph glyph-name="Wcircumflex" unicode="&#x174;" horiz-adv-x="2157" 
d="M1774 0l-459 -0.000976562l-199 817c-6 23.333 -12.667 81.333 -20 174h-4c-10 -82 -19.667 -140 -29 -174l-215 -817h-486l-342 1434h474l120 -844c2 -10.667 5 -41.667 9 -93l6 -83h6c1.33301 17.333 5.33301 46.833 12 88.5s13 72.834 19 93.501l221 838h471l184 -850
l13 -85l10 -83h4l3 35l13 139l125 844h426zM1225 1567l-148 153l-147 -153h-262l256 321h317l256 -321h-272z" />
    <glyph glyph-name="wcircumflex" unicode="&#x175;" horiz-adv-x="1731" 
d="M1430 0h-443.001l-102 498c-12.667 60 -19 113 -19 159h-6c-7.33301 -70.667 -14.666 -121.667 -21.999 -153l-111 -504h-442l-271 1024h428l88 -596l15 -133h6c8.66699 78 14.667 123.667 18 137l131 592h406l113 -592l9 -71l5 -64h6l3 29l91 698h383zM1012 1186
l-148 153l-147 -153h-262l256 321h317l256 -321h-272z" />
    <glyph glyph-name="Ycircumflex" unicode="&#x176;" horiz-adv-x="1331" 
d="M874 498v-497.999h-432v492l-442 942h496l155 -451c10.667 -30.667 18.167 -57.334 22.5 -80.001s9.16602 -45.667 14.499 -69h4c8.66699 60.667 18.334 107.667 29.001 141l153 459h457zM812 1567l-148 153l-147 -153h-262l256 321h317l256 -321h-272z" />
    <glyph glyph-name="ycircumflex" unicode="&#x177;" horiz-adv-x="1176" 
d="M301 -481c-40 0 -82.999 3.50098 -128.999 10.501s-87 17.167 -123 30.5v321c16.667 -12.667 41.5 -24.334 74.5 -35.001s64.167 -16 93.5 -16c79.333 0 132 31.333 158 94l33 80l-428 1020h471l124 -494c24 -92 37 -154 39 -186h4c2 14.667 4.83301 31 8.5 49
s55.5 228.333 155.5 631h414l-377 -1053c-56.667 -161.333 -126.834 -277 -210.501 -347s-186.167 -105 -307.5 -105zM734.001 1186l-148 153l-147 -153h-262l256 321h317l256 -321h-272z" />
    <glyph glyph-name="Ydieresis" unicode="&#x178;" horiz-adv-x="1331" 
d="M874 498v-497.999h-432v492l-442 942h496l155 -451c10.667 -30.667 18.167 -57.334 22.5 -80.001s9.16602 -45.667 14.499 -69h4c8.66699 60.667 18.334 107.667 29.001 141l153 459h457zM1107 1720c0 -48.667 -17.332 -88.165 -51.999 -118.498
s-81.334 -45.5 -140.001 -45.5c-56 0 -102.167 15.5 -138.5 46.5s-54.5 70.167 -54.5 117.5s17.667 85.666 53 114.999s82 44 140 44s104.5 -14.833 139.5 -44.5s52.5 -67.834 52.5 -114.501zM606.001 1720c0 -47.333 -17.165 -86.499 -51.498 -117.499
s-81.5 -46.5 -141.5 -46.5c-56.667 0 -102.834 15.833 -138.501 47.5s-53.5 70.5 -53.5 116.5c0 47.333 17.667 85.666 53 114.999s81.666 44 138.999 44c58 0 104.667 -14.5 140 -43.5s53 -67.5 53 -115.5z" />
    <glyph glyph-name="Zacute" unicode="&#x179;" horiz-adv-x="1313" 
d="M616 338h648v-338h-1203v303l662 793h-621v338h1141v-301zM751 1567h-301l299 321h358z" />
    <glyph glyph-name="zacute" unicode="&#x17a;" horiz-adv-x="1042" 
d="M584 295h422v-295h-981v197l460 532h-417v295h929v-242zM594 1186h-301l299 321h358z" />
    <glyph glyph-name="Zdotaccent" unicode="&#x17b;" horiz-adv-x="1313" 
d="M616 338h648v-338h-1203v303l662 793h-621v338h1141v-301zM869 1731c0 -48.667 -17.668 -88.167 -53.001 -118.5s-81.666 -45.5 -138.999 -45.5c-56 0 -102.167 15.667 -138.5 47s-54.5 70.333 -54.5 117c0 48 17.833 86.5 53.5 115.5s82.167 43.5 139.5 43.5
c58 0 104.5 -14.5 139.5 -43.5s52.5 -67.5 52.5 -115.5z" />
    <glyph glyph-name="zdotaccent" unicode="&#x17c;" horiz-adv-x="1042" 
d="M584 295h422v-295h-981v197l460 532h-417v295h929v-242zM727 1350c0 -48.667 -17.668 -88.167 -53.001 -118.5s-81.666 -45.5 -138.999 -45.5c-56 0 -102.167 15.667 -138.5 47s-54.5 70.333 -54.5 117c0 48 17.833 86.5 53.5 115.5s82.167 43.5 139.5 43.5
c58 0 104.5 -14.5 139.5 -43.5s52.5 -67.5 52.5 -115.5z" />
    <glyph glyph-name="Zcaron" unicode="&#x17d;" horiz-adv-x="1313" 
d="M616 338h648v-338h-1203v303l662 793h-621v338h1141v-301zM1082 1854l-256 -321h-317l-256 321h262l147 -153l148 153h272z" />
    <glyph glyph-name="zcaron" unicode="&#x17e;" horiz-adv-x="1042" 
d="M584 295h422v-295h-981v197l460 532h-417v295h929v-242zM947 1507l-256 -321h-317l-256 321h262l147 -153l148 153h272z" />
    <glyph glyph-name="longs" unicode="&#x17f;" horiz-adv-x="782" 
d="M782 1206c-44 15.333 -85.001 22.999 -123.001 22.999c-47.333 0 -82.333 -12.167 -105 -36.5s-34 -57.166 -34 -98.499v-1094h-426v1118c0 83.333 19.333 156.833 58 220.5s94.834 113.167 168.501 148.5s163.167 53 268.5 53c76 0 140.333 -7.33301 193 -22v-312z" />
    <glyph glyph-name="uni0180" unicode="&#x180;" horiz-adv-x="1315" 
d="M1257 530c0 -110 -18.666 -207.167 -55.999 -291.5s-90 -149.333 -158 -195s-144.667 -68.5 -230 -68.5c-66 0 -122.5 12.167 -169.5 36.5s-84.167 55.833 -111.5 94.5h-4v-106h-426v1155h-102v195h102v166h426v-166h276v-195h-276v-291h4
c34 50 79.167 89.167 135.5 117.5s119.166 42.5 188.499 42.5c129.333 0 228.5 -41.833 297.5 -125.5s103.5 -206.5 103.5 -368.5zM825.001 516c0 64 -13.001 112.667 -39.001 146s-64 50 -114 50c-42.667 0 -78.667 -17 -108 -51s-44 -78.667 -44 -134v-59
c0 -55.333 12.833 -99.333 38.5 -132s60.834 -49 105.501 -49c51.333 0 91 20 119 60s42 96.333 42 169z" />
    <glyph glyph-name="uni0181" unicode="&#x181;" horiz-adv-x="1786" 
d="M1737 440c0 -140.667 -49.333 -249.17 -148 -325.503s-239.667 -114.5 -423 -114.5h-654v1145h-33c-58.667 0 -105 -16.667 -139 -50s-51 -77.666 -51 -132.999c0 -27.333 5.66699 -57.333 17 -90h-304c-14.667 41.333 -22 87.333 -22 138
c0 130 45.167 233.167 135.5 309.5s211.5 114.5 363.5 114.5h642c380.667 0 571 -115.667 571 -347c0 -50 -12 -95.833 -36 -137.5s-60.5 -78.167 -109.5 -109.5s-102.833 -52.666 -161.5 -63.999v-4c68 -8 129 -28.167 183 -60.5s95.667 -72.666 125 -120.999
s44 -98.5 44 -150.5zM1278 441.997c0 41.333 -15 75.333 -45 102s-69.667 40 -119 40h-170v-293h144c58.667 0 105 13.5 139 40.5s51 63.833 51 110.5zM1233 1012c0 88.667 -69.667 132.999 -209 132.999h-80v-271h125c48 0 87.333 12.833 118 38.5s46 58.834 46 99.501z
" />
    <glyph glyph-name="uni0182" unicode="&#x182;" horiz-adv-x="1415" 
d="M1366 473c0 -151.333 -46.333 -268 -139 -350s-226.667 -123 -402 -123h-684v1434h1039v-338h-607v-222h304c106 0 195.5 -16.667 268.5 -50s128 -80 165 -140s55.5 -130.333 55.5 -211zM907 442c0 43.333 -13.333 77.833 -40 103.5s-63.667 38.5 -111 38.5h-183v-293
h164c54 0 95.833 12.833 125.5 38.5s44.5 63.167 44.5 112.5z" />
    <glyph glyph-name="uni0183" unicode="&#x183;" horiz-adv-x="1315" 
d="M1257 543c0 -112 -18.5 -211.167 -55.5 -297.5s-89.5 -153 -157.5 -200s-145 -70.5 -231 -70.5c-66 0 -122.5 12.167 -169.5 36.5s-84.167 55.833 -111.5 94.5h-4v-106h-426v1516h1010v-295h-584v-336h4c33.333 50.667 78.5 90.667 135.5 120s119.833 44 188.5 44
c129.333 0 228.5 -43 297.5 -129s103.5 -211.667 103.5 -377zM825 530c0 68.667 -13.168 120.335 -39.501 155.002s-64.166 52 -113.499 52c-43.333 0 -79.5 -18.167 -108.5 -54.5s-43.5 -83.5 -43.5 -141.5v-62c0 -58.667 13 -105.334 39 -140.001s61 -52 105 -52
c51.333 0 91 21.167 119 63.5s42 102.166 42 179.499z" />
    <glyph glyph-name="uni0184" unicode="&#x184;" horiz-adv-x="1343" 
d="M1313 510c0 -161.333 -50.665 -286.666 -151.998 -375.999s-245.333 -134 -432 -134h-588v1001l-205 181v30l607 300h30v-560h181c129.333 0 235.166 -15.833 317.499 -47.5s143.166 -78.834 182.499 -141.501s59 -147 59 -253zM856.002 477c0 56 -15.333 97.667 -46 125
s-78 41 -142 41h-95v-334h84c68.667 0 119 14 151 42s48 70 48 126z" />
    <glyph glyph-name="uni0185" unicode="&#x185;" horiz-adv-x="1354" 
d="M1296 543c0 -112 -18.5 -211.167 -55.5 -297.5s-89.5 -153 -157.5 -200s-145 -70.5 -231 -70.5c-124 0 -217.667 43.667 -281 131h-4v-106h-426v1058l-205 181v30l601 299h30v-683h4c33.333 50.667 78.5 90.667 135.5 120s119.833 44 188.5 44
c129.333 0 228.5 -43 297.5 -129s103.5 -211.667 103.5 -377zM864 530c0 68.667 -13.168 120.335 -39.501 155.002s-64.166 52 -113.499 52c-43.333 0 -79.5 -18.167 -108.5 -54.5s-43.5 -83.5 -43.5 -141.5v-62c0 -58.667 13 -105.334 39 -140.001s61 -52 105 -52
c51.333 0 91 21.167 119 63.5s42 102.166 42 179.499z" />
    <glyph glyph-name="uni0186" unicode="&#x186;" horiz-adv-x="1290" 
d="M82 1394c118.667 42.667 255.665 64.002 410.998 64.002c152.667 0 284.334 -29.167 395.001 -87.5s195.167 -141.333 253.5 -249s87.5 -231.834 87.5 -372.501c0 -151.333 -32.667 -286 -98 -404s-157.666 -209.167 -276.999 -273.5s-256.666 -96.5 -411.999 -96.5
c-124 0 -244 15 -360 45v399c40 -24 87.667 -42.667 143 -56s111.333 -20 168 -20c117.333 0 209.833 33.667 277.5 101s101.5 158.666 101.5 273.999c0 114.667 -33.833 205.167 -101.5 271.5s-158.167 99.5 -271.5 99.5c-104.667 0 -210.334 -26.667 -317.001 -80v385z
" />
    <glyph glyph-name="uni0187" unicode="&#x187;" horiz-adv-x="1290" 
d="M1208 39c-118.667 -42.667 -255.668 -64.001 -411.001 -64.001c-152.667 0 -284.334 29.167 -395.001 87.5s-195.167 141.333 -253.5 249s-87.5 231.834 -87.5 372.501c0 151.333 32.667 286 98 404s157.666 209.167 276.999 273.5s256.666 96.5 411.999 96.5
c34.667 0 65.334 -2 92.001 -6c30.667 68.667 74.834 121.667 132.501 159s127.834 56 210.501 56c54.667 0 104 -6.33301 148 -19v-304c-32 9.33301 -62 14 -90 14c-51.333 0 -88.5 -17.833 -111.5 -53.5s-34.5 -82.834 -34.5 -141.501c0 -46.667 5 -95 15 -145l-10 -7
c-62.667 31.333 -115.667 52.333 -159 63s-91.333 16 -144 16c-117.333 0 -209.833 -33.667 -277.5 -101s-101.5 -158.666 -101.5 -273.999c0 -114.667 33.833 -205.167 101.5 -271.5s158.167 -99.5 271.5 -99.5c104.667 0 210.334 26.667 317.001 80v-385z" />
    <glyph glyph-name="uni0188" unicode="&#x188;" horiz-adv-x="1014" 
d="M946 29c-20 -12 -57 -24.002 -111 -36.002s-127.667 -18 -221 -18c-108 0 -204.5 21.833 -289.5 65.5s-150.833 104.834 -197.5 183.501s-70 167 -70 265c0 117.333 24.833 217.833 74.5 301.5s120.5 147.667 212.5 192s198.667 66.5 320 66.5l48 -4
c20 66.667 53.667 117.167 101 151.5s106 51.5 176 51.5c52.667 0 95 -5 127 -15v-270c-25.333 7.33301 -49.333 11 -72 11c-68.667 0 -103 -51 -103 -153c0 -39.333 5.33301 -86.666 16 -141.999l-9 -6c-54 28 -94.167 45.667 -120.5 53s-56.5 11 -90.5 11
c-77.333 0 -138 -19.5 -182 -58.5s-66 -95.167 -66 -168.5c0 -70.667 21 -125.5 63 -164.5s100.333 -58.5 175 -58.5c79.333 0 152.333 19 219 57v-315z" />
    <glyph glyph-name="uni0189" unicode="&#x189;" horiz-adv-x="1554" 
d="M1493 735c0 -145.333 -30.5 -273.832 -91.5 -385.499s-148.167 -197.834 -261.5 -258.501s-244 -91 -392 -91h-607v549h-166v338h166v547h594c505.333 0 758 -233 758 -699zM1034 731.001c0 70 -14.167 133 -42.5 189s-68.833 99.333 -121.5 130s-114.667 46 -186 46
h-111v-209h240v-338h-240v-211h121c103.333 0 185.833 35.5 247.5 106.5s92.5 166.5 92.5 286.5z" />
    <glyph glyph-name="uni018A" unicode="&#x18a;" horiz-adv-x="1925" 
d="M1864 735c0 -145.333 -30.5 -273.83 -91.5 -385.497s-148.167 -197.834 -261.5 -258.501s-244 -91 -392 -91h-607v1096h-30c-62 0 -109.667 -12 -143 -36s-50 -58 -50 -102c0 -24.667 5.66699 -53.334 17 -86.001h-304c-14.667 43.333 -22 92.666 -22 147.999
c0 126 45 226.5 135 301.5s211.333 112.5 364 112.5h627c505.333 0 758 -233 758 -699zM1405 731.003c0 108.667 -31.5 196.667 -94.5 264s-148.167 101 -255.5 101h-111v-758h121c103.333 0 185.833 35.5 247.5 106.5s92.5 166.5 92.5 286.5z" />
    <glyph glyph-name="uni018B" unicode="&#x18b;" horiz-adv-x="1415" 
d="M49 453c0 83.333 18.999 156.667 56.999 220s93.333 112.666 166 147.999s161.334 53 266.001 53h304v222h-607v338h1039v-1434h-684c-178 0 -312.667 38.333 -404 115s-137 189.334 -137 338.001zM507.999 442.001c0 -50 14.833 -87.667 44.5 -113s71.5 -38 125.5 -38
h164v293h-183c-48 0 -85.167 -12.667 -111.5 -38s-39.5 -60 -39.5 -104z" />
    <glyph glyph-name="uni018C" unicode="&#x18c;" horiz-adv-x="1315" 
d="M786 0l0.00195312 119.002h-4c-34 -44.667 -78.333 -79.834 -133 -105.501s-108.667 -38.5 -162 -38.5c-87.333 0 -164.333 21.5 -231 64.5s-116.5 103.167 -149.5 180.5s-49.5 168.666 -49.5 273.999c0 108.667 19.667 205 59 289s94.666 149.333 165.999 196
s151.333 70 240 70c42 0 80.833 -6 116.5 -18s66.667 -28.167 93 -48.5s43.166 -40.5 50.499 -60.5h4v299h-584v295h1010v-1516h-426zM795.002 543.002c0 61.333 -13.499 109 -40.499 143s-63.5 51 -109.5 51s-83.5 -21.167 -112.5 -63.5s-43.5 -98.833 -43.5 -169.5
c0 -144.667 50 -217 150 -217c47.333 0 85.166 19.5 113.499 58.5s42.5 95.833 42.5 170.5v27z" />
    <glyph glyph-name="uni018D" unicode="&#x18d;" horiz-adv-x="1298" 
d="M57 527c0 106 23.3301 198.165 69.9971 276.498s115.167 138.833 205.5 181.5s198.5 64 324.5 64c118.667 0 221.834 -21.5 309.501 -64.5s155.334 -102 203.001 -177s71.5 -156.5 71.5 -244.5c0 -98.667 -27 -187.667 -81 -267s-134 -144.666 -240 -195.999
c118 -72.667 177 -162.334 177 -269.001c0 -97.333 -41.5 -173.666 -124.5 -228.999s-196.5 -83 -340.5 -83c-157.333 0 -300 24.667 -428 74v356c128.667 -79.333 252.334 -119 371.001 -119c28 0 50 4.83301 66 14.5s24 23.834 24 42.501c0 16 -11.5 32 -34.5 48
s-68.5 39.333 -136.5 70c-153.333 67.333 -264.5 142 -333.5 224s-103.5 181.333 -103.5 298zM488.997 529.998c0 -50.667 16.167 -98.167 48.5 -142.5s75.5 -77.166 129.5 -98.499c39.333 13.333 72.833 43 100.5 89s41.5 94.667 41.5 146c0 66 -14.167 118 -42.5 156
s-67.5 57 -117.5 57c-50.667 0 -90 -17.833 -118 -53.5s-42 -86.834 -42 -153.501z" />
    <glyph glyph-name="uni018E" unicode="&#x18e;" horiz-adv-x="1133" 
d="M63 0v338h494v211h-433v338h433v209h-461v338h893v-1434h-926z" />
    <glyph glyph-name="uni018F" unicode="&#x18f;" horiz-adv-x="1568" 
d="M62 850l993.997 0.00195312c-20 83.333 -62.833 145.833 -128.5 187.5s-147.834 62.5 -246.501 62.5c-183.333 0 -351.666 -50.667 -504.999 -152v381c74 46 156.167 79 246.5 99s194.833 30 313.5 30c154.667 0 290.334 -28.833 407.001 -86.5
s206.334 -141.167 269.001 -250.5s94 -238 94 -386s-30.833 -279.833 -92.5 -395.5s-149.167 -205.334 -262.5 -269.001s-242.666 -95.5 -387.999 -95.5c-136.667 0 -258.667 30.667 -366 92s-190 147.666 -248 258.999s-87 238.333 -87 381v143zM1060 594.002
l-545.999 0.000976562c9.33301 -88 37.166 -156 83.499 -204s104.833 -72 175.5 -72c76.667 0 140.167 25.167 190.5 75.5s82.5 117.166 96.5 200.499z" />
    <glyph glyph-name="uni0190" unicode="&#x190;" horiz-adv-x="1176" 
d="M54 399c0 88 31.8359 163.5 95.5029 226.5s148.5 102.167 254.5 117.5v5c-97.333 18.667 -171.5 55.834 -222.5 111.501s-76.5 126.5 -76.5 212.5c0 119.333 45.667 213.5 137 282.5s219.666 103.5 384.999 103.5c152 0 297.333 -26.667 436 -80v-321
c-46.667 24 -96.5 45 -149.5 63s-112.5 27 -178.5 27c-65.333 0 -114.333 -9.83301 -147 -29.5s-49 -50.834 -49 -93.501c0 -47.333 19.667 -81.666 59 -102.999s96.666 -32 171.999 -32h197v-314h-217c-82.667 0 -146.334 -12.833 -191.001 -38.5s-67 -61.834 -67 -108.501
c0 -45.333 19.5 -80.166 58.5 -104.499s97.167 -36.5 174.5 -36.5c68.667 0 137.834 9.5 207.501 28.5s132.5 45.5 188.5 79.5v-342c-54 -24.667 -121.333 -43.834 -202 -57.501s-164.334 -20.5 -251.001 -20.5c-199.333 0 -351.5 36.5 -456.5 109.5
s-157.5 177.833 -157.5 314.5z" />
    <glyph glyph-name="uni0191" unicode="&#x191;" horiz-adv-x="1108" 
d="M573 1096l0.000976562 -257.999h426v-338h-426v-513c0 -150.667 -37.833 -266.334 -113.5 -347.001s-185.5 -121 -329.5 -121c-84.667 0 -158.334 9 -221.001 27v352c29.333 -16 61.666 -24 96.999 -24c50.667 0 85.834 19.667 105.501 59s29.5 108.333 29.5 207v1294
h899v-338h-467z" />
    <glyph glyph-name="florin" unicode="&#x192;" horiz-adv-x="1178" 
d="M1044 1174c-42.667 20 -87.002 30.001 -133.002 30.001c-82.667 0 -131.667 -45.667 -147 -137l-23 -137h158v-215h-192l-91 -594c-20 -130.667 -66.667 -234.334 -140 -311.001s-165.666 -115 -276.999 -115c-33.333 0 -73.666 6.66699 -120.999 20v242
c26 -13.333 56.667 -20 92 -20c82 0 133.333 67.333 154 202l88 576h-105v215h142l22 149c16.667 111.333 61.667 200.333 135 267s166.333 100 279 100c54.667 0 107.667 -7.66699 159 -23v-249z" />
    <glyph glyph-name="uni0193" unicode="&#x193;" horiz-adv-x="1489" 
d="M1397 94c-54 -30.667 -134.667 -58.1689 -242 -82.502s-209.666 -36.5 -306.999 -36.5c-251.333 0 -445.333 62.833 -582 188.5s-205 301.834 -205 528.501c0 150.667 33.167 284.167 99.5 400.5s161.833 206.333 286.5 270s270.667 95.5 438 95.5
c49.333 0 102 -2.33301 158 -7c64.667 144 179 216 343 216c54.667 0 104 -6.33301 148 -19v-304c-32 9.33301 -62 14 -90 14c-97.333 0 -146 -59 -146 -177c0 -46 5.33301 -95.667 16 -149l-10 -7c-71.333 30 -137.5 51.333 -198.5 64s-126.5 19 -196.5 19
c-118.667 0 -213.167 -35.667 -283.5 -107s-105.5 -169.333 -105.5 -294c0 -119.333 29.5 -212.666 88.5 -279.999s141.5 -101 247.5 -101c49.333 0 85.666 2.66699 108.999 8v205h-275v327h707v-772z" />
    <glyph glyph-name="uni0194" unicode="&#x194;" horiz-adv-x="1438" 
d="M717 652c17.333 80 36.332 153.002 56.999 219.002l184 563h467l-467 -1151c54.667 -78.667 97.167 -152.5 127.5 -221.5s45.5 -138.5 45.5 -208.5c0 -104.667 -37.167 -186.5 -111.5 -245.5s-175.166 -88.5 -302.499 -88.5c-128 0 -229 29.667 -303 89
s-111 141 -111 245c0 55.333 11.667 114.166 35 176.499s70 147.166 140 254.499l-469 1150h467l184 -563c20.667 -66 39.667 -139 57 -219zM787.999 -116.998c0 40 -23.667 98 -71 174c-47.333 -76 -71 -134 -71 -174c0 -66.667 23.667 -100 71 -100s71 33.333 71 100z" />
    <glyph glyph-name="uni0195" unicode="&#x195;" horiz-adv-x="1906" 
d="M528 0h-426.002v1516h426v-631h4c34.667 50.667 78 90.667 130 120s109.333 44 172 44c110 0 194.167 -34.833 252.5 -104.5s87.5 -174.834 87.5 -315.501v-150c0 -108 46 -162 138 -162c34.667 0 61.834 14.333 81.501 43s29.5 69 29.5 121
c0 165.333 -43 346.333 -129 543h437c78.667 -179.333 118 -357 118 -533c0 -166 -48.667 -293.667 -146 -383s-236.666 -134 -417.999 -134c-177.333 0 -308.833 41.333 -394.5 124s-128.5 201.334 -128.5 356.001v130c0 102 -39 153 -117 153c-38 0 -67 -14.333 -87 -43
s-30 -66 -30 -112v-582z" />
    <glyph glyph-name="uni0196" unicode="&#x196;" horiz-adv-x="818" 
d="M125 1434h432.002v-838c0 -101.333 9.66699 -171 29 -209s54 -57 104 -57c35.333 0 67.666 8 96.999 24v-352c-62.667 -18 -136.334 -27 -221.001 -27c-294 0 -441 156 -441 468v991z" />
    <glyph glyph-name="uni0197" unicode="&#x197;" horiz-adv-x="772" 
d="M31 871h141v225h-141v338h710v-338h-142v-225h143v-295h-143v-238h142v-338h-710v338h141v238h-141v295z" />
    <glyph glyph-name="uni0198" unicode="&#x198;" horiz-adv-x="1413" 
d="M1458 0h-524.002l-320 611c-2.66699 4 -8.5 17.667 -17.5 41s-15.167 41 -18.5 53h-5v-705h-432v1434h432v-682h5l18 43l154 296l73.5 134c25 44 53.667 83.167 86 117.5s69.333 62.166 111 83.499s90.834 32 147.501 32c82.667 0 154.334 -9.66699 215.001 -29v-311
c-24.667 7.33301 -48 11 -70 11c-24 0 -43 -3.66699 -57 -11s-29 -20.166 -45 -38.499s-32.667 -42.833 -50 -73.5l-149 -256z" />
    <glyph glyph-name="uni0199" unicode="&#x199;" horiz-adv-x="1214" 
d="M760 0l-228 526h-4v-526h-426v1165c0 120 33.5 212.833 100.5 278.5s159.833 98.5 278.5 98.5c100 0 176 -13 228 -39v-310c-34.667 16.667 -65.667 25 -93 25c-58.667 0 -88 -45 -88 -135v-540h4l207 481h480l-277 -469l293 -555h-475z" />
    <glyph glyph-name="uni019A" unicode="&#x19a;" horiz-adv-x="692" 
d="M133 0v615h-133v278h133v623h426v-623h133v-278h-133v-615h-426z" />
    <glyph glyph-name="uni019B" unicode="&#x19b;" horiz-adv-x="1217" 
d="M756 0l-140 612l-141 -612h-448l424 971l-170 -82l-86 172l175 84c-28.667 17.333 -62 26 -100 26c-52.667 0 -101.667 -17 -147 -51v344c72.667 27.333 154.667 41 246 41c159.333 0 283.333 -61 372 -183l177 85l83 -169l-171 -83l10 -28l356 -1127h-440z" />
    <glyph glyph-name="uni019C" unicode="&#x19c;" horiz-adv-x="2112" 
d="M1972 0h-409.001v188h-4c-34 -64 -81.5 -115.5 -142.5 -154.5s-126.833 -58.5 -197.5 -58.5c-78.667 0 -143.167 15.333 -193.5 46s-94.166 82 -131.499 154c-42 -70 -90.833 -120.833 -146.5 -152.5s-123.5 -47.5 -203.5 -47.5c-142.667 0 -246.5 39.667 -311.5 119
s-97.5 198.333 -97.5 357v983h432v-922c0 -112 41 -168 123 -168c42.667 0 78 16.5 106 49.5s42 75.833 42 128.5v912h432v-930c0 -106.667 41.667 -160 125 -160c44 0 79.167 16.5 105.5 49.5s39.5 77.833 39.5 134.5v906h432v-1434z" />
    <glyph glyph-name="uni019D" unicode="&#x19d;" horiz-adv-x="1663" 
d="M1143 0l-506 692.001c-44 61.333 -76.667 110.666 -98 147.999h-4c4 -72 6 -151.333 6 -238v-602c0 -154 -36.667 -272.667 -110 -356s-179.666 -125 -318.999 -125c-72.667 0 -140.334 9 -203.001 27v352c29.333 -16 61.666 -24 96.999 -24
c50.667 0 85.834 19.667 105.501 59s29.5 108.333 29.5 207v1294h408l507 -688c35.333 -48 58 -83.667 68 -107h4c-4 29.333 -6 80 -6 152v643h400v-1434h-379z" />
    <glyph glyph-name="uni019E" unicode="&#x19e;" horiz-adv-x="1282" 
d="M766 -471l0.00195312 1030c0 63.333 -9.5 108.833 -28.5 136.5s-49.833 41.5 -92.5 41.5c-36.667 0 -65.334 -14.333 -86.001 -43s-31 -65.334 -31 -110.001v-584h-426v1024h426v-160h4c34 58.667 79.667 104.167 137 136.5s119.666 48.5 186.999 48.5
c224 0 336 -141.333 336 -424v-1096h-426z" />
    <glyph glyph-name="uni019F" unicode="&#x19f;" horiz-adv-x="1567" 
d="M1505 721c0 -144 -31 -272.833 -93 -386.5s-148.667 -202 -260 -265s-236 -94.5 -374 -94.5c-134.667 0 -257.167 30.5 -367.5 91.5s-196.166 146.667 -257.499 257s-92 235.166 -92 374.499c0 146 31 277.333 93 394s149 206.834 261 270.501s239.333 95.5 382 95.5
c137.333 0 260.166 -30.5 368.499 -91.5s192 -148 251 -261s88.5 -241.167 88.5 -384.5zM793 1090c-65.333 0 -120.332 -19.5 -164.999 -58.5s-75.334 -94.167 -92.001 -165.5h494l-2 6c-17.333 68.667 -46.333 122.167 -87 160.5s-90 57.5 -148 57.5zM786.001 344
c59.333 0 110.668 19.833 154.001 59.5s73.666 94.5 90.999 164.5h-496c18 -71.333 48.5 -126.5 91.5 -165.5s96.167 -58.5 159.5 -58.5z" />
    <glyph glyph-name="Ohorn" unicode="&#x1a0;" horiz-adv-x="1618" 
d="M1505 721c0 -144 -31.001 -272.834 -93.001 -386.501s-148.667 -202 -260 -265s-236 -94.5 -374 -94.5c-134.667 0 -257.167 30.5 -367.5 91.5s-196.166 146.667 -257.499 257s-92 235.166 -92 374.499c0 146 31 277.333 93 394s149 206.834 261 270.501
s239.333 95.5 382 95.5c55.333 0 109.833 -5.83301 163.5 -17.5s113.834 -32.167 180.501 -61.5c31.333 -13.333 62.333 -20 93 -20c43.333 0 75.666 12.167 96.999 36.5s32 57.5 32 99.5c0 32.667 -5.33301 67.334 -16 104.001h258c15.333 -47.333 23 -96.666 23 -147.999
c0 -76.667 -22.333 -138.334 -67 -185.001s-110 -72.667 -196 -78c93.333 -128 140 -283.667 140 -467zM1047 708.999c0 118 -22.667 210.999 -68 278.999s-107.333 102 -186 102c-86 0 -153 -32.667 -201 -98s-72 -157.666 -72 -276.999
c0 -116.667 23.833 -207.667 71.5 -273s112.5 -98 194.5 -98c50 0 95 14.667 135 44s71 71.333 93 126s33 119.667 33 195z" />
    <glyph glyph-name="ohorn" unicode="&#x1a1;" horiz-adv-x="1298" 
d="M1241 530c0 -172.667 -52.167 -308.334 -156.5 -407.001s-250.166 -148 -437.499 -148c-186 0 -330.833 48.167 -434.5 144.5s-155.5 229.166 -155.5 398.499c0 108.667 24.333 203 73 283s118 141.333 208 184s193.667 64 311 64c40.667 0 83.667 -2.33301 129 -7
s84 -7 116 -7c47.333 0 82.333 12.333 105 37s34 58 34 100c0 32.667 -5.33301 67.334 -16 104.001h258c15.333 -47.333 23 -96.666 23 -147.999c0 -66 -16.833 -121.167 -50.5 -165.5s-82.834 -73.833 -147.501 -88.5c94 -90 141 -204.667 141 -344zM809 528
c0 139.333 -53.333 209 -160 209s-160 -73 -160 -219c0 -154 54 -231 162 -231c105.333 0 158 80.333 158 241z" />
    <glyph glyph-name="uni01A2" unicode="&#x1a2;" horiz-adv-x="2218" 
d="M2074 0l-432.003 0.000976562v1028c-44 -8 -88 -12 -132 -12c-42.667 0 -88.667 3.33301 -138 10v-932c-160 -79.333 -355.333 -119 -586 -119c-144 0 -271 30 -381 90s-194.833 145.167 -254.5 255.5s-89.5 236.166 -89.5 377.499c0 146.667 31.167 278.167 93.5 394.5
s149.833 206.333 262.5 270s239.334 95.5 380.001 95.5c52.667 0 117.834 -4 195.501 -12s145.834 -17 204.501 -27c154 -26 279 -39 375 -39c180.667 0 348 26 502 78v-1458zM939.997 374.001l0.000976562 699c-46.667 11.333 -96.334 17 -149.001 17
c-84.667 0 -151 -33.5 -199 -100.5s-72 -159.833 -72 -278.5c0 -112.667 23.667 -202 71 -268s112.333 -99 195 -99c66.667 0 118 10 154 30z" />
    <glyph glyph-name="uni01A3" unicode="&#x1a3;" horiz-adv-x="1921" 
d="M1819 0l-425.001 0.000976562v678c-31.333 -4.66699 -65.333 -7 -102 -7c-39.333 0 -84.666 3.66699 -135.999 11v-610c-154.667 -64.667 -326.667 -97 -516 -97c-181.333 0 -323.833 48.667 -427.5 146s-155.5 229.666 -155.5 396.999c0 162 53.167 291 159.5 387
s248.5 144 426.5 144c89.333 0 209.666 -11.667 360.999 -35c128.667 -19.333 238.334 -29 329.001 -29c175.333 0 337.333 21.333 486 64v-1049zM730.999 298.001v429c-22.667 6.66699 -50 10 -82 10c-106.667 0 -160 -73 -160 -219c0 -154 54 -231 162 -231
c34 0 60.667 3.66699 80 11z" />
    <glyph glyph-name="uni01A4" unicode="&#x1a4;" horiz-adv-x="1714" 
d="M1684 961c0 -150.667 -55.167 -271.665 -165.5 -362.998s-257.833 -137 -442.5 -137h-132v-461h-432v1096h-30c-62 0 -109.667 -12 -143 -36s-50 -58 -50 -102c0 -24.667 5.66699 -53.334 17 -86.001h-304c-14.667 43.333 -22 92.666 -22 147.999
c0 126 45 226.5 135 301.5s211.333 112.5 364 112.5h621c202 0 349.833 -38.333 443.5 -115s140.5 -196 140.5 -358zM1227 946.002c0 58.667 -17 103 -51 133s-84 45 -150 45h-82v-354h97c124 0 186 58.667 186 176z" />
    <glyph glyph-name="uni01A5" unicode="&#x1a5;" horiz-adv-x="1315" 
d="M1257 543c0 -112 -19 -211 -57 -297s-91.667 -152.667 -161 -200s-147.333 -71 -234 -71c-120 0 -211 43.667 -273 131h-4v-577h-426v1636c0 120 33.5 212.833 100.5 278.5s159.833 98.5 278.5 98.5c100 0 176 -13 228 -39v-310c-34.667 16.667 -65.667 25 -93 25
c-58.667 0 -88 -45 -88 -135v-198h4c34 51.333 78 91.5 132 120.5s115.333 43.5 184 43.5c132 0 233.167 -44 303.5 -132s105.5 -212.667 105.5 -374zM825 530c0 64.667 -12.5 115.335 -37.5 152.002s-63.5 55 -115.5 55c-45.333 0 -82 -19.333 -110 -58
s-42 -91.667 -42 -159v-20c0 -64.667 12 -116.334 36 -155.001s60 -58 108 -58c51.333 0 91 21.167 119 63.5s42 102.166 42 179.499z" />
    <glyph glyph-name="uni01A6" unicode="&#x1a6;" horiz-adv-x="1397" 
d="M885 -195l-107.001 309.001c-20 60 -46.667 107.5 -80 142.5s-69.333 52.5 -108 52.5h-17v-309h-432v1434h432v-195h142c200.667 0 348.834 -32.833 444.501 -98.5s143.5 -164.167 143.5 -295.5c0 -98.667 -27.833 -181.334 -83.5 -248.001s-138.5 -115 -248.5 -145v-4
c60.667 -18.667 111.167 -49 151.5 -91s76.5 -104.333 108.5 -187l141 -365h-487zM843.999 784.001c0 48 -14.667 86 -44 114s-75.333 42 -138 42h-89v-328h78c58 0 104.667 16.333 140 49s53 73.667 53 123z" />
    <glyph glyph-name="uni01A7" unicode="&#x1a7;" horiz-adv-x="1171" 
d="M58 434c0 98 30.832 182.665 92.499 253.998s166.834 137 315.501 197c74.667 30.667 124 56 148 76s36 45 36 75c0 31.333 -14.667 56 -44 74s-68 27 -116 27c-116.667 0 -235.334 -33 -356.001 -99v365c68.667 18.667 121.334 30.834 158.001 36.501
s75.5 10.167 116.5 13.5s81.833 5 122.5 5c178 0 319.5 -41.5 424.5 -124.5s157.5 -193.833 157.5 -332.5c0 -198 -115.333 -341.333 -346 -430c-71.333 -27.333 -120 -48.5 -146 -63.5s-45.667 -31.167 -59 -48.5s-20 -38 -20 -62c0 -32 13 -56.667 39 -74
s62.667 -26 110 -26c62.667 0 130.5 13.5 203.5 40.5s139.167 62.5 198.5 106.5v-393c-124.667 -50.667 -262 -76 -412 -76c-130 0 -240.833 17.5 -332.5 52.5s-163 87.833 -214 158.5s-76.5 153.334 -76.5 248.001z" />
    <glyph glyph-name="uni01A8" unicode="&#x1a8;" horiz-adv-x="989" 
d="M75 340c0 75.333 22.665 136.832 67.998 184.499s120.333 87.167 225 118.5c54.667 16.667 90.834 31.167 108.501 43.5s26.5 27.833 26.5 46.5c0 16.667 -8.33301 29.667 -25 39s-39 14 -67 14c-36 0 -78.667 -6.16699 -128 -18.5s-94.666 -27.166 -135.999 -44.499v287
c100 26 194.667 39 284 39c153.333 0 272 -30.833 356 -92.5s126 -145.5 126 -251.5c0 -75.333 -20.5 -136.833 -61.5 -184.5s-107.167 -85.834 -198.5 -114.501c-82 -27.333 -132.667 -46.833 -152 -58.5s-29 -26.5 -29 -44.5c0 -43.333 41.667 -65 125 -65
c84.667 0 190 28 316 84v-299c-44.667 -13.333 -100 -24.666 -166 -33.999s-122.667 -14 -170 -14c-158.667 0 -282 31.833 -370 95.5s-132 153.5 -132 269.5z" />
    <glyph glyph-name="uni01A9" unicode="&#x1a9;" horiz-adv-x="1260" 
d="M29 0v240l487 477l-465 465v252h1118v-338h-510l351 -359l-383 -399h598v-338h-1196z" />
    <glyph glyph-name="uni01AA" unicode="&#x1aa;" horiz-adv-x="1146" 
d="M539 -104l0.000976562 963c-56.667 -23.333 -115 -35 -175 -35c-70 0 -132.833 14.167 -188.5 42.5s-98.834 69 -129.501 122s-46 115.167 -46 186.5c0 119.333 40.667 214.666 122 285.999s190 107 326 107c172.667 0 302 -44.667 388 -134s129 -220.666 129 -393.999
v-1062c0 -90 29.333 -135 88 -135c27.333 0 58.333 8.33301 93 25v-310c-52 -26 -128 -39 -228 -39c-118.667 0 -211.5 32.667 -278.5 98s-100.5 158.333 -100.5 279zM537.001 1119l-0.000976562 15c0 109.333 -41.667 164 -125 164c-32.667 0 -57.834 -9.66699 -75.501 -29
s-26.5 -44 -26.5 -74c0 -30.667 9.83301 -56 29.5 -76s45.834 -30 78.501 -30c40.667 0 80.334 10 119.001 30z" />
    <glyph glyph-name="uni01AB" unicode="&#x1ab;" horiz-adv-x="854" 
d="M823 63c0 -323.333 -136.668 -485 -410.001 -485c-59.333 0 -116.666 10.333 -171.999 31v248c43.333 -24.667 82.333 -37 117 -37c44.667 0 79.334 13.5 104.001 40.5s38 66.5 40 118.5c-98 11.333 -174.5 49.333 -229.5 114s-82.5 151 -82.5 259v377h-161v295h161v201
l420 116v-317h213v-295h-213v-307c0 -90 35.667 -135 107 -135c33.333 0 68.666 7.33301 105.999 22v-246z" />
    <glyph glyph-name="uni01AC" unicode="&#x1ac;" horiz-adv-x="1423" 
d="M986 1096v-1096h-434v1096h-41c-57.333 0 -102 -11.667 -134 -35s-48 -57.666 -48 -102.999c0 -24.667 5.66699 -53.334 17 -86.001h-304c-14.667 43.333 -22 92.666 -22 147.999c0 126 45 226.5 135 301.5s211.333 112.5 364 112.5h873v-338h-406z" />
    <glyph glyph-name="uni01AD" unicode="&#x1ad;" horiz-adv-x="854" 
d="M823 14c-19.333 -9.33301 -50.8311 -18.167 -94.498 -26.5s-96.834 -12.5 -159.501 -12.5c-118.667 0 -211.5 32.667 -278.5 98s-100.5 158.333 -100.5 279v377h-161v295h161v141c0 120 32.333 212.833 97 278.5s157 98.5 277 98.5c100 0 176 -13 228 -39v-310
c-34.667 16.667 -65.667 25 -93 25c-58.667 0 -88 -45 -88 -135v-59h212v-295h-213v-307c0 -90 35.667 -135 107 -135c33.333 0 68.666 7.33301 105.999 22v-295z" />
    <glyph glyph-name="uni01AE" unicode="&#x1ae;" horiz-adv-x="1303" 
d="M866 1096l0.00195312 -956c0 -101.333 9.66699 -171 29 -209s54 -57 104 -57c35.333 0 67.666 8 96.999 24v-352c-62.667 -18 -136.334 -27 -221.001 -27c-295.333 0 -443 156 -443 468v1109h-401v338h1241v-338h-406z" />
    <glyph glyph-name="Uhorn" unicode="&#x1af;" horiz-adv-x="1689" 
d="M1391 655c0 -230 -52.501 -400.836 -157.501 -512.503s-266.833 -167.5 -485.5 -167.5c-204 0 -358.833 55.833 -464.5 167.5s-158.5 279.834 -158.5 504.501v787h434v-803c0 -92 17.167 -162.833 51.5 -212.5s83.5 -74.5 147.5 -74.5
c64.667 0 113.834 23.333 147.501 70s50.5 115.667 50.5 207v813h321c104.667 0 157 49.333 157 148c0 32.667 -5.33301 67.334 -16 104.001h258c15.333 -47.333 23 -96.666 23 -147.999c0 -84.667 -27 -150.667 -81 -198s-129.667 -73 -227 -77v-608z" />
    <glyph glyph-name="uhorn" unicode="&#x1b0;" horiz-adv-x="1458" 
d="M754 0l-0.000976562 158h-4c-35.333 -48.667 -67.166 -84.334 -95.499 -107.001s-60.333 -41 -96 -55s-77.167 -21 -124.5 -21c-112 0 -197.333 36.333 -256 109s-88 180 -88 322v618h426v-586c0 -100.667 37.667 -151 113 -151c83.333 0 125 52.333 125 157v580h280
c52 0 91.5 12.833 118.5 38.5s40.5 62.167 40.5 109.5c0 32.667 -5.33301 67.334 -16 104.001h258c15.333 -47.333 23 -96.666 23 -147.999c0 -76 -23 -138.333 -69 -187s-115.667 -77.334 -209 -86.001v-855h-426z" />
    <glyph glyph-name="uni01B1" unicode="&#x1b1;" horiz-adv-x="1587" 
d="M730 1434l-0.000976562 -338c-75.333 -75.333 -127.666 -147.666 -156.999 -216.999s-44 -147 -44 -233c0 -88 24 -160.333 72 -217s108.667 -85 182 -85c51.333 0 97.666 12.667 138.999 38s74 62.166 98 110.499s36 106.166 36 173.499
c0 52.667 -7.16699 102.167 -21.5 148.5s-33.833 90.5 -58.5 132.5s-63 91.667 -115 149v338h657v-338h-336c110.667 -59.333 193.667 -133.833 249 -223.5s83 -191.167 83 -304.5s-31.167 -215.333 -93.5 -306s-149.166 -161 -260.499 -211s-233.666 -75 -366.999 -75
c-140 0 -263.833 24.5 -371.5 73.5s-193.167 119.5 -256.5 211.5s-95 191.667 -95 299c0 122.667 29.667 227.834 89 315.501s146.666 161.167 261.999 220.5h-349v338h658z" />
    <glyph glyph-name="uni01B2" unicode="&#x1b2;" horiz-adv-x="1582" 
d="M125 1434l433.999 0.000976562v-816c0 -92 17.5 -160.667 52.5 -206s84.167 -68 147.5 -68c97.333 0 173.333 40.5 228 121.5s82 192.167 82 333.5c0 199.333 -58.333 299 -175 299c-57.333 0 -114.666 -12 -171.999 -36l-1 358c81.333 25.333 163.333 38 246 38
c174 0 309.667 -56.833 407 -170.5s146 -273.167 146 -478.5c0 -162.667 -31.5 -307.834 -94.5 -435.501s-152.5 -226 -268.5 -295s-249.333 -103.5 -400 -103.5c-207.333 0 -364.5 55 -471.5 165s-160.5 273 -160.5 489v805z" />
    <glyph glyph-name="uni01B3" unicode="&#x1b3;" horiz-adv-x="1357" 
d="M496 1434l157.998 -460.001c6 -16 15 -50.667 27 -104h4c8.66699 45.333 19.334 82 32.001 110l81 177c51.333 112.667 105.333 191 162 235s135 66 235 66c54 0 108 -9 162 -27v-313c-25.333 7.33301 -48.666 11 -69.999 11c-29.333 0 -55.833 -12.167 -79.5 -36.5
s-52.167 -69.166 -85.5 -134.499l-248 -475v-483h-432v492l-442 942h496z" />
    <glyph glyph-name="uni01B4" unicode="&#x1b4;" horiz-adv-x="1253" 
d="M1253 711c-30.667 9.33301 -58.334 14.001 -83.001 14.001c-30 0 -56.167 -13.667 -78.5 -41s-45.166 -75.333 -68.499 -144l-204 -569c-60.667 -162.667 -131.167 -278.667 -211.5 -348s-182.5 -104 -306.5 -104c-48.667 0 -96.5 4 -143.5 12s-83.167 17.667 -108.5 29
v321c52 -34 108 -51 168 -51c80 0 132.667 31.333 158 94l33 80l-428 1020h471l133 -530c12 -44.667 20 -84.334 24 -119.001h3c4.66699 46.667 12.667 86 24 118l65 197c32 96 64.5 168.333 97.5 217s72.167 84.5 117.5 107.5s102 34.5 170 34.5
c60.667 0 116.667 -9.66699 168 -29v-309z" />
    <glyph glyph-name="uni01B5" unicode="&#x1b5;" horiz-adv-x="1313" 
d="M606 338h658v-338h-1203v303l235 278h-173v279h410l200 236h-631v338h1141v-301l-219 -273h173v-279h-397z" />
    <glyph glyph-name="uni01B6" unicode="&#x1b6;" horiz-adv-x="1042" 
d="M574 295h432v-295h-981v197l180 204h-103v223h300l93 105h-427v295h929v-242l-138 -158h107v-223h-300z" />
    <glyph glyph-name="uni01B7" unicode="&#x1b7;" horiz-adv-x="1397" 
d="M61 -372v408.999c145.333 -100 309.333 -150 492 -150c104 0 186 24 246 72s90 113.333 90 196c0 84.667 -31.667 148 -95 190s-160.666 63 -291.999 63h-145v260l378 428h-643v338h1175v-285l-375 -430c153.333 -42 267.666 -108 342.999 -198s113 -206 113 -348
c0 -211.333 -68.333 -373.166 -205 -485.499s-333.334 -168.5 -590.001 -168.5c-87.333 0 -174.666 9.33301 -261.999 28s-164 45.667 -230 81z" />
    <glyph glyph-name="uni01B8" unicode="&#x1b8;" horiz-adv-x="1397" 
d="M1336 -372c-64.667 -34 -145.169 -60.667 -241.502 -80s-191.166 -29 -284.499 -29c-246.667 0 -435.167 52 -565.5 156s-195.5 257.667 -195.5 461c0 280.667 152 475 456 583l-375 430v285h1175v-338h-643l378 -428v-260h-145c-258 0 -387 -86 -387 -258
c0 -80.667 29.333 -144.667 88 -192s141.334 -71 248.001 -71c182.667 0 346.667 50 492 150v-409z" />
    <glyph glyph-name="uni01B9" unicode="&#x1b9;" horiz-adv-x="1160" 
d="M1058 -420c-111.333 -40.667 -239.666 -60.998 -384.999 -60.998c-196.667 0 -349.834 44.167 -459.501 132.5s-164.5 210.833 -164.5 367.5c0 104.667 32 197.667 96 279s149 138.666 255 171.999l-274 312v242h919v-295h-417l274 -305l1 -172h-157
c-84 0 -149.167 -19.333 -195.5 -58s-69.5 -90.334 -69.5 -155.001c0 -139.333 86 -209 258 -209c53.333 0 104.833 6.33301 154.5 19s104.5 33 164.5 61v-330z" />
    <glyph glyph-name="uni01BA" unicode="&#x1ba;" horiz-adv-x="1071" 
d="M910 -130l-0.000976562 -296.001c-119.333 -36.667 -251.333 -55 -396 -55c-145.333 0 -259.833 29.167 -343.5 87.5s-125.5 141.166 -125.5 248.499c0 96 26.333 170.833 79 224.5s142.667 99.834 270 138.501c76.667 24 123.5 40.333 140.5 49s29.333 17.667 37 27
s11.5 19.666 11.5 30.999c0 26 -14.167 43.333 -42.5 52s-73.833 13 -136.5 13h-115l-1 156l210 183h-415v295h919v-242l-228 -203c76.667 -16 135.834 -46.5 177.501 -91.5s62.5 -101.167 62.5 -168.5c0 -68.667 -14.667 -125.667 -44 -171
s-77.833 -85.666 -145.5 -120.999s-158.5 -67.666 -272.5 -96.999c-30 -8 -53.667 -16.333 -71 -25s-26 -23.667 -26 -45c0 -20 13.667 -35.333 41 -46s66.333 -16 117 -16c103.333 0 202.333 24 297 72z" />
    <glyph glyph-name="uni01BB" unicode="&#x1bb;" horiz-adv-x="1145" 
d="M61 0l0.000976562 315.001l220 225h-136v279h396c17.333 23.333 30.666 46.166 39.999 68.499s14 50.833 14 85.5c0 48.667 -15.167 86.667 -45.5 114s-70.5 41 -120.5 41c-108.667 0 -210.334 -42.333 -305.001 -127v349c137.333 70.667 277 106 419 106
c150.667 0 267.334 -37.667 350.001 -113s124 -179 124 -311c0 -74 -18.667 -145 -56 -213h92v-279h-327l-194 -192v-6h532v-342h-1003z" />
    <glyph glyph-name="uni01BC" unicode="&#x1bc;" horiz-adv-x="1118" 
d="M57 1434h968.998v-332h-471l-36 -201c52 4 86 6 102 6c140 0 249.667 -37.833 329 -113.5s119 -178.5 119 -308.5c0 -98 -23.167 -185.833 -69.5 -263.5s-113.166 -138.167 -200.499 -181.5s-190.333 -65 -309 -65c-175.333 0 -319.666 20 -432.999 60v332
c128 -53.333 250.333 -80 367 -80c74 0 129.667 13.5 167 40.5s56 64.5 56 112.5c0 105.333 -87.333 158 -262 158c-49.333 0 -99 -3 -149 -9s-87.667 -11.333 -113 -16l95 529h-161v332z" />
    <glyph glyph-name="uni01BD" unicode="&#x1bd;" horiz-adv-x="1055" 
d="M78 29l-0.00195312 264c96 -38 196.667 -57 302 -57c56 0 97.833 6.83301 125.5 20.5s41.5 36.167 41.5 67.5c0 32.667 -16.667 54.667 -50 66s-83.666 17 -150.999 17c-49.333 0 -106 -4.66699 -170 -14l44 336h-126v295h858v-295h-373l-11 -92l78 4
c108 0 192.167 -25.167 252.5 -75.5s90.5 -120.833 90.5 -211.5c0 -122.667 -44.833 -216.5 -134.5 -281.5s-223.167 -97.5 -400.5 -97.5c-163.333 0 -288.666 18 -375.999 54z" />
    <glyph glyph-name="uni01BE" unicode="&#x1be;" horiz-adv-x="989" 
d="M75 1024h188.001v201l420 116v-317h213v-295h-187c8 -9.33301 18 -18.666 30 -27.999c58 -45.333 98.5 -82.333 121.5 -111s40.667 -60.5 53 -95.5s18.5 -73.833 18.5 -116.5c0 -131.333 -42.167 -231.333 -126.5 -300s-205.5 -103 -363.5 -103
c-78.667 0 -150.5 8.5 -215.5 25.5s-117.833 37.833 -158.5 62.5v393c114.667 -84 224 -126 328 -126c77.333 0 116 23.667 116 71c0 14 -5.33301 28.167 -16 42.5s-37 37.166 -79 68.499c-54 40.667 -90.833 76.5 -110.5 107.5s-32.834 67.5 -39.501 109.5h-192v295z" />
    <glyph glyph-name="uni01BF" unicode="&#x1bf;" horiz-adv-x="1315" 
d="M528 -67l0.000976562 -404h-426v1495h421v-139h5c81.333 109.333 195.666 164 342.999 164c117.333 0 211 -37.833 281 -113.5s105 -176.5 105 -302.5c0 -338.667 -243 -572 -729 -700zM528.001 662v-397c198 73.333 297 182 297 326c0 44 -12.333 79.333 -37 106
s-58 40 -100 40c-58 0 -111.333 -25 -160 -75z" />
    <glyph glyph-name="uni01C0" unicode="&#x1c0;" horiz-adv-x="815" 
d="M244 -481v2048h327v-2048h-327z" />
    <glyph glyph-name="uni01C1" unicode="&#x1c1;" horiz-adv-x="1349" 
d="M244 -481v2048h327v-2048h-327zM778 -481v2048h327v-2048h-327z" />
    <glyph glyph-name="uni01C2" unicode="&#x1c2;" horiz-adv-x="1024" 
d="M349 -481v691h-349v287h349v207h-349v287h349v576h327v-576h348v-287h-348v-207h348v-287h-348v-691h-327z" />
    <glyph glyph-name="uni01C3" unicode="&#x1c3;" horiz-adv-x="750" 
d="M543 483h-342l-54 951h449zM612 178c0 -59.333 -21.501 -108 -64.501 -146s-100.5 -57 -172.5 -57c-70 0 -127.167 19.333 -171.5 58s-66.5 87 -66.5 145c0 58.667 21.5 106.167 64.5 142.5s100.833 54.5 173.5 54.5c70.667 0 127.834 -18.167 171.501 -54.5
s65.5 -83.833 65.5 -142.5z" />
    <glyph glyph-name="uni01C4" unicode="&#x1c4;" horiz-adv-x="2867" 
d="M1493 735c0 -145.333 -30.5 -273.832 -91.5 -385.499s-148.167 -197.834 -261.5 -258.501s-244 -91 -392 -91h-607v1434h594c505.333 0 758 -233 758 -699zM1034 731.001c0 70 -14.167 133 -42.5 189s-68.833 99.333 -121.5 130s-114.667 46 -186 46h-111v-758h121
c103.333 0 185.833 35.5 247.5 106.5s92.5 166.5 92.5 286.5zM2170 338.001h648v-338h-1203v303l662 793h-621v338h1141v-301zM2636 1854l-256 -321h-317l-256 321h262l147 -153l148 153h272z" />
    <glyph glyph-name="uni01C5" unicode="&#x1c5;" horiz-adv-x="2596" 
d="M1493 735c0 -145.333 -30.5 -273.832 -91.5 -385.499s-148.167 -197.834 -261.5 -258.501s-244 -91 -392 -91h-607v1434h594c505.333 0 758 -233 758 -699zM1034 731.001c0 70 -14.167 133 -42.5 189s-68.833 99.333 -121.5 130s-114.667 46 -186 46h-111v-758h121
c103.333 0 185.833 35.5 247.5 106.5s92.5 166.5 92.5 286.5zM2138 295.001h422v-295h-981v197l460 532h-417v295h929v-242zM2501 1507l-256 -321h-317l-256 321h262l147 -153l148 153h272z" />
    <glyph glyph-name="uni01C6" unicode="&#x1c6;" horiz-adv-x="2357" 
d="M786 0l0.00195312 119.002h-4c-34 -44.667 -78.333 -79.834 -133 -105.501s-108.667 -38.5 -162 -38.5c-87.333 0 -164.333 21.5 -231 64.5s-116.5 103.167 -149.5 180.5s-49.5 168.666 -49.5 273.999c0 108.667 19.667 205 59 289s94.666 149.333 165.999 196
s151.333 70 240 70c42 0 80.833 -6 116.5 -18s66.667 -28.167 93 -48.5s43.166 -40.5 50.499 -60.5h4v594h426v-1516h-426zM795.002 543.002c0 61.333 -13.499 109 -40.499 143s-63.5 51 -109.5 51s-83.5 -21.167 -112.5 -63.5s-43.5 -98.833 -43.5 -169.5
c0 -144.667 50 -217 150 -217c47.333 0 85.166 19.5 113.499 58.5s42.5 95.833 42.5 170.5v27zM1899 295.002h422v-295h-981v197l460 532h-417v295h929v-242zM2262 1507l-256 -321h-317l-256 321h262l147 -153l148 153h272z" />
    <glyph glyph-name="uni01C7" unicode="&#x1c7;" horiz-adv-x="2155" 
d="M141 0v1434h432v-1096h494v-338h-926zM2030 612c0 -424.667 -206.332 -637.001 -618.999 -637.001c-33.333 0 -73.333 4 -120 12s-94 20 -142 36v399c34 -23.333 71.833 -42.166 113.5 -56.499s76.167 -21.5 103.5 -21.5c77.333 0 135.166 23.833 173.499 71.5
s57.5 121.5 57.5 221.5v797h433v-822z" />
    <glyph glyph-name="uni01C8" unicode="&#x1c8;" horiz-adv-x="1739" 
d="M141 0v1434h432v-1096h494v-338h-926zM1661 1300c0 -60 -21.834 -108.667 -65.501 -146s-101.167 -56 -172.5 -56c-69.333 0 -126.166 19.333 -170.499 58s-66.5 86.667 -66.5 144c0 58.667 21.5 106.167 64.5 142.5s100.5 54.5 172.5 54.5
c71.333 0 128.833 -18.167 172.5 -54.5s65.5 -83.833 65.5 -142.5zM1636 -10c0 -90 -17.665 -172.167 -52.998 -246.5s-87.333 -130.333 -156 -168s-150.334 -56.5 -245.001 -56.5c-52 0 -108.667 10 -170 30v312c37.333 -20.667 71.333 -31 102 -31
c35.333 0 60.166 11.833 74.499 35.5s21.5 59.5 21.5 107.5v1051h426v-1034z" />
    <glyph glyph-name="uni01C9" unicode="&#x1c9;" horiz-adv-x="1262" 
d="M102 0v1516h426v-1516h-426zM1184 1300c0 -60 -21.834 -108.667 -65.501 -146s-101.167 -56 -172.5 -56c-69.333 0 -126.166 19.333 -170.499 58s-66.5 86.667 -66.5 144c0 58.667 21.5 106.167 64.5 142.5s100.5 54.5 172.5 54.5c71.333 0 128.833 -18.167 172.5 -54.5
s65.5 -83.833 65.5 -142.5zM1159 -10c0 -90 -17.665 -172.167 -52.998 -246.5s-87.333 -130.333 -156 -168s-150.334 -56.5 -245.001 -56.5c-52 0 -108.667 10 -170 30v312c37.333 -20.667 71.333 -31 102 -31c35.333 0 60.166 11.833 74.499 35.5s21.5 59.5 21.5 107.5
v1051h426v-1034z" />
    <glyph glyph-name="uni01CA" unicode="&#x1ca;" horiz-adv-x="2710" 
d="M1143 0l-506 692c-40 54.667 -72.667 104 -98 148h-4c4 -70.667 6 -150 6 -238v-602h-400v1434h408l485 -658l22 -31l26 -37l24.5 -37c7.66699 -12 13.5 -22.667 17.5 -32h4c-4 29.333 -6 80 -6 152v643h400v-1434h-379zM2585 612
c0 -424.667 -206.332 -637.001 -618.999 -637.001c-33.333 0 -73.333 4 -120 12s-94 20 -142 36v399c34 -23.333 71.833 -42.166 113.5 -56.499s76.167 -21.5 103.5 -21.5c77.333 0 135.166 23.833 173.499 71.5s57.5 121.5 57.5 221.5v797h433v-822z" />
    <glyph glyph-name="uni01CB" unicode="&#x1cb;" horiz-adv-x="2294" 
d="M1143 0l-506 692c-40 54.667 -72.667 104 -98 148h-4c4 -70.667 6 -150 6 -238v-602h-400v1434h408l485 -658l22 -31l26 -37l24.5 -37c7.66699 -12 13.5 -22.667 17.5 -32h4c-4 29.333 -6 80 -6 152v643h400v-1434h-379zM2216 1300c0 -60 -21.834 -108.667 -65.501 -146
s-101.167 -56 -172.5 -56c-69.333 0 -126.166 19.333 -170.499 58s-66.5 86.667 -66.5 144c0 58.667 21.5 106.167 64.5 142.5s100.5 54.5 172.5 54.5c71.333 0 128.833 -18.167 172.5 -54.5s65.5 -83.833 65.5 -142.5zM2191 -10c0 -90 -17.665 -172.167 -52.998 -246.5
s-87.333 -130.333 -156 -168s-150.334 -56.5 -245.001 -56.5c-52 0 -108.667 10 -170 30v312c37.333 -20.667 71.333 -31 102 -31c35.333 0 60.166 11.833 74.499 35.5s21.5 59.5 21.5 107.5v1051h426v-1034z" />
    <glyph glyph-name="uni01CC" unicode="&#x1cc;" horiz-adv-x="1837" 
d="M766 0l0.00195312 559.001c0 63.333 -9.5 108.833 -28.5 136.5s-49.833 41.5 -92.5 41.5c-36.667 0 -65.334 -14.333 -86.001 -43s-31 -65.334 -31 -110.001v-584h-426v1024h426v-160h4c34 58.667 79.667 104.167 137 136.5s119.666 48.5 186.999 48.5
c224 0 336 -141.333 336 -424v-625h-426zM1809 1300c0 -60 -21.834 -108.667 -65.501 -146s-101.167 -56 -172.5 -56c-69.333 0 -126.166 19.333 -170.499 58s-66.5 86.667 -66.5 144c0 58.667 21.5 106.167 64.5 142.5s100.5 54.5 172.5 54.5
c71.333 0 128.833 -18.167 172.5 -54.5s65.5 -83.833 65.5 -142.5zM1784 -9.99902c0 -90 -17.665 -172.167 -52.998 -246.5s-87.333 -130.333 -156 -168s-150.334 -56.5 -245.001 -56.5c-52 0 -108.667 10 -170 30v312c37.333 -20.667 71.333 -31 102 -31
c35.333 0 60.166 11.833 74.499 35.5s21.5 59.5 21.5 107.5v1051h426v-1034z" />
    <glyph glyph-name="uni01CD" unicode="&#x1cd;" horiz-adv-x="1536" 
d="M1040 0l-63 264h-428l-68 -264h-467l494 1434h536l465 -1434h-469zM768 1122h-10c-1.33301 -16 -6 -42.333 -14 -79s-48.333 -194 -121 -472h274l-100 390c-14 57.333 -23.667 111 -29 161zM1183 1879l-256 -321h-317l-256 321h262l147 -153l148 153h272z" />
    <glyph glyph-name="uni01CE" unicode="&#x1ce;" horiz-adv-x="1149" 
d="M670 0l0.00292969 156.001h-4c-68 -120.667 -172 -181 -312 -181c-96.667 0 -172.334 28.667 -227.001 86s-82 134 -82 230c0 201.333 123.667 318 371 350l254 33c0 33.333 -15 60.666 -45 81.999s-70.333 32 -121 32c-114.667 0 -235.667 -32.667 -363 -98v277
c55.333 24 124.666 43.667 207.999 59s154.666 23 213.999 23c174 0 300.167 -37.167 378.5 -111.5s117.5 -198.5 117.5 -372.5v-565h-389zM418.003 348.001c0 -28 8.83105 -51 26.498 -69s42.834 -27 75.501 -27c44.667 0 80.834 16.667 108.501 50s41.5 76 41.5 128v39
l-144 -20c-72 -12 -108 -45.667 -108 -101zM1002 1496l-256 -321h-317l-256 321h262l147 -153l148 153h272z" />
    <glyph glyph-name="uni01CF" unicode="&#x1cf;" horiz-adv-x="772" 
d="M141 0v1434h432v-1434h-432zM804 1879l-256 -321h-317l-256 321h262l147 -153l148 153h272z" />
    <glyph glyph-name="uni01D0" unicode="&#x1d0;" horiz-adv-x="631" 
d="M102 0v1024h426v-1024h-426zM731 1496l-256 -321h-317l-256 321h262l147 -153l148 153h272z" />
    <glyph glyph-name="uni01D1" unicode="&#x1d1;" horiz-adv-x="1567" 
d="M1505 721c0 -144 -31 -272.833 -93 -386.5s-148.667 -202 -260 -265s-236 -94.5 -374 -94.5c-134.667 0 -257.167 30.5 -367.5 91.5s-196.166 146.667 -257.499 257s-92 235.166 -92 374.499c0 146 31 277.333 93 394s149 206.834 261 270.501s239.333 95.5 382 95.5
c137.333 0 260.166 -30.5 368.499 -91.5s192 -148 251 -261s88.5 -241.167 88.5 -384.5zM1047 709c0 118 -22.667 210.999 -68 278.999s-107.333 102 -186 102c-86 0 -153 -32.667 -201 -98s-72 -157.666 -72 -276.999c0 -116.667 23.833 -207.667 71.5 -273
s112.5 -98 194.5 -98c50 0 95 14.667 135 44s71 71.333 93 126s33 119.667 33 195zM1198 1879l-256 -321h-317l-256 321h262l147 -153l148 153h272z" />
    <glyph glyph-name="uni01D2" unicode="&#x1d2;" horiz-adv-x="1298" 
d="M1241 530c0 -172.667 -52.168 -308.332 -156.501 -406.999s-250.166 -148 -437.499 -148c-186 0 -330.833 48.167 -434.5 144.5s-155.5 229.166 -155.5 398.499c0 108.667 24.333 203 73 283s118 141.333 208 184s193.667 64 311 64c121.333 0 226.5 -22.333 315.5 -67
s157.333 -106.667 205 -186s71.5 -168 71.5 -266zM808.999 528.002c0 139.333 -53.333 209 -160 209s-160 -73 -160 -219c0 -154 54 -231 162 -231c105.333 0 158 80.333 158 241zM1064 1496l-256 -321h-317l-256 321h262l147 -153l148 153h272z" />
    <glyph glyph-name="uni01D3" unicode="&#x1d3;" horiz-adv-x="1516" 
d="M1391 655c0 -230 -52.501 -400.834 -157.501 -512.501s-266.833 -167.5 -485.5 -167.5c-204 0 -358.833 55.833 -464.5 167.5s-158.5 279.834 -158.5 504.501v787h434v-803c0 -92 17.167 -162.833 51.5 -212.5s83.5 -74.5 147.5 -74.5
c64.667 0 113.834 23.333 147.501 70s50.5 115.667 50.5 207v813h435v-779zM1173 1879l-256 -321h-317l-256 321h262l147 -153l148 153h272z" />
    <glyph glyph-name="uni01D4" unicode="&#x1d4;" horiz-adv-x="1282" 
d="M754 0l-0.000976562 158.001h-4c-35.333 -48.667 -67.166 -84.334 -95.499 -107.001s-60.333 -41 -96 -55s-77.167 -21 -124.5 -21c-112 0 -197.333 36.333 -256 109s-88 180 -88 322v618h426v-586c0 -100.667 37.667 -151 113 -151c41.333 0 72.5 13.667 93.5 41
s31.5 66 31.5 116v580h426v-1024h-426zM1054 1496l-256 -321h-317l-256 321h262l147 -153l148 153h272z" />
    <glyph glyph-name="uni01D5" unicode="&#x1d5;" horiz-adv-x="1516" 
d="M1391 655c0 -230 -52.501 -400.834 -157.501 -512.501s-266.833 -167.5 -485.5 -167.5c-204 0 -358.833 55.833 -464.5 167.5s-158.5 279.834 -158.5 504.501v787h434v-803c0 -92 17.167 -162.833 51.5 -212.5s83.5 -74.5 147.5 -74.5
c64.667 0 113.834 23.333 147.501 70s50.5 115.667 50.5 207v813h435v-779zM1155 2188v-223h-795v223h795zM314.999 1742c0 48.667 17.332 88.165 51.999 118.498s81.334 45.5 140.001 45.5c56 0 102.167 -15.5 138.5 -46.5s54.5 -70.167 54.5 -117.5
s-17.667 -85.666 -53 -114.999s-82 -44 -140 -44s-104.5 14.833 -139.5 44.5s-52.5 67.834 -52.5 114.501zM815.998 1742c0 47.333 17.165 86.499 51.498 117.499s81.5 46.5 141.5 46.5c56.667 0 102.834 -15.833 138.501 -47.5s53.5 -70.5 53.5 -116.5
c0 -47.333 -17.667 -85.666 -53 -114.999s-81.666 -44 -138.999 -44c-58 0 -104.667 14.5 -140 43.5s-53 67.5 -53 115.5z" />
    </font>
</defs>
</svg>
